<svg width="16" height="19" viewBox="0 0 16 19" fill="none" xmlns="http://www.w3.org/2000/svg">
<path d="M15.6647 14.803C15.3774 15.4666 15.0374 16.0775 14.6434 16.6391C14.1064 17.4048 13.6667 17.9347 13.3279 18.229C12.8026 18.7121 12.2398 18.9595 11.6371 18.9736C11.2045 18.9736 10.6827 18.8505 10.0753 18.6007C9.46598 18.3522 8.906 18.229 8.39396 18.229C7.85696 18.229 7.28102 18.3522 6.66499 18.6007C6.04801 18.8505 5.55099 18.9806 5.17098 18.9935C4.59305 19.0181 4.017 18.7637 3.442 18.229C3.07501 17.9089 2.61598 17.3602 2.06607 16.5828C1.47607 15.7527 0.991001 14.7901 0.610992 13.6926C0.204016 12.5072 0 11.3593 0 10.248C0 8.97505 0.27507 7.87712 0.82603 6.95706C1.25904 6.21803 1.83509 5.63506 2.55606 5.20709C3.27703 4.77913 4.05605 4.56104 4.89497 4.54709C5.35401 4.54709 5.95597 4.68908 6.70403 4.96814C7.44998 5.24813 7.92895 5.39012 8.13894 5.39012C8.29594 5.39012 8.82802 5.22409 9.73003 4.8931C10.583 4.58613 11.3029 4.45903 11.8927 4.5091C13.4908 4.63808 14.6915 5.26806 15.49 6.40305C14.0607 7.26906 13.3537 8.48201 13.3677 10.038C13.3806 11.2501 13.8203 12.2586 14.6845 13.0595C15.0761 13.4312 15.5134 13.7184 16 13.9224C15.8945 14.2285 15.7831 14.5216 15.6647 14.803ZM11.9994 0.380011C11.9994 1.32998 11.6524 2.21697 10.9606 3.03796C10.1258 4.01395 9.11599 4.57793 8.02099 4.48893C8.00704 4.37497 7.99895 4.25502 7.99895 4.12898C7.99895 3.217 8.39596 2.24101 9.10098 1.443C9.45297 1.03896 9.90063 0.703001 10.4435 0.435001C10.9852 0.171 11.4976 0.0250016 11.9795 0C11.9936 0.126997 11.9994 0.254001 11.9994 0.379999V0.380011Z" fill="#212226"/>
</svg>
