<svg width="189" height="32" viewBox="0 0 189 32" fill="none" xmlns="http://www.w3.org/2000/svg">
<path d="M0.496 24V1.44H10.512C12.9867 1.44 14.8747 2.03733 16.176 3.232C17.4773 4.42666 18.128 6.06933 18.128 8.16C18.128 10.2293 17.4773 11.872 16.176 13.088C14.8747 14.304 12.9867 14.912 10.512 14.912H4.624V24H0.496ZM4.624 11.648H10.032C11.3973 11.648 12.4213 11.3493 13.104 10.752C13.7867 10.1333 14.128 9.26933 14.128 8.16C14.128 7.05067 13.7867 6.19733 13.104 5.6C12.4213 4.98133 11.3973 4.672 10.032 4.672H4.624V11.648ZM26.8135 24.32C25.4055 24.32 24.1682 23.9893 23.1015 23.328C22.0348 22.6453 21.2028 21.6747 20.6055 20.416C20.0082 19.1573 19.7095 17.6533 19.7095 15.904C19.7095 14.1547 20.0082 12.6613 20.6055 11.424C21.2028 10.1653 22.0348 9.20533 23.1015 8.544C24.1682 7.86133 25.4055 7.52 26.8135 7.52C28.1788 7.52 29.3735 7.86133 30.3975 8.544C31.4428 9.20533 32.1362 10.1013 32.4775 11.232H32.1255L32.4775 7.84H36.3175C36.2535 8.50133 36.1895 9.17333 36.1255 9.856C36.0828 10.5387 36.0615 11.2107 36.0615 11.872V24H32.0935L32.0615 20.672H32.4455C32.1042 21.7813 31.4108 22.6667 30.3655 23.328C29.3202 23.9893 28.1362 24.32 26.8135 24.32ZM27.9335 21.248C29.1922 21.248 30.2055 20.8107 30.9735 19.936C31.7415 19.04 32.1255 17.696 32.1255 15.904C32.1255 14.112 31.7415 12.7787 30.9735 11.904C30.2055 11.0293 29.1922 10.592 27.9335 10.592C26.6748 10.592 25.6615 11.0293 24.8935 11.904C24.1255 12.7787 23.7415 14.112 23.7415 15.904C23.7415 17.696 24.1148 19.04 24.8615 19.936C25.6295 20.8107 26.6535 21.248 27.9335 21.248ZM40.2202 24V11.968C40.2202 11.2853 40.1989 10.592 40.1562 9.888C40.1349 9.184 40.0816 8.50133 39.9962 7.84H43.8682L44.3162 12.256H43.6762C43.8896 11.1893 44.2416 10.304 44.7322 9.6C45.2442 8.896 45.8629 8.37333 46.5882 8.032C47.3136 7.69067 48.1029 7.52 48.9562 7.52C49.3402 7.52 49.6496 7.54133 49.8842 7.584C50.1189 7.60533 50.3536 7.65867 50.5882 7.744L50.5562 11.264C50.1509 11.0933 49.7989 10.9867 49.5002 10.944C49.2229 10.9013 48.8709 10.88 48.4442 10.88C47.5269 10.88 46.7482 11.072 46.1082 11.456C45.4896 11.84 45.0202 12.3733 44.7002 13.056C44.4016 13.7387 44.2522 14.5173 44.2522 15.392V24H40.2202ZM58.7335 24.32C57.3255 24.32 56.0882 23.9893 55.0215 23.328C53.9548 22.6453 53.1228 21.6747 52.5255 20.416C51.9282 19.1573 51.6295 17.6533 51.6295 15.904C51.6295 14.1547 51.9282 12.6613 52.5255 11.424C53.1228 10.1653 53.9548 9.20533 55.0215 8.544C56.0882 7.86133 57.3255 7.52 58.7335 7.52C60.0988 7.52 61.2935 7.86133 62.3175 8.544C63.3628 9.20533 64.0562 10.1013 64.3975 11.232H64.0455L64.3975 7.84H68.2375C68.1735 8.50133 68.1095 9.17333 68.0455 9.856C68.0028 10.5387 67.9815 11.2107 67.9815 11.872V24H64.0135L63.9815 20.672H64.3655C64.0242 21.7813 63.3308 22.6667 62.2855 23.328C61.2402 23.9893 60.0562 24.32 58.7335 24.32ZM59.8535 21.248C61.1122 21.248 62.1255 20.8107 62.8935 19.936C63.6615 19.04 64.0455 17.696 64.0455 15.904C64.0455 14.112 63.6615 12.7787 62.8935 11.904C62.1255 11.0293 61.1122 10.592 59.8535 10.592C58.5948 10.592 57.5815 11.0293 56.8135 11.904C56.0455 12.7787 55.6615 14.112 55.6615 15.904C55.6615 17.696 56.0348 19.04 56.7815 19.936C57.5495 20.8107 58.5735 21.248 59.8535 21.248ZM78.4442 24.32C77.0362 24.32 75.7882 23.9893 74.7002 23.328C73.6336 22.6453 72.8016 21.6747 72.2042 20.416C71.6069 19.1573 71.3082 17.6533 71.3082 15.904C71.3082 14.1547 71.6069 12.6613 72.2042 11.424C72.8016 10.1653 73.6336 9.20533 74.7002 8.544C75.7882 7.86133 77.0362 7.52 78.4442 7.52C79.7882 7.52 80.9722 7.85067 81.9962 8.512C83.0416 9.152 83.7349 10.0267 84.0762 11.136H83.6602V0.447998H87.6602V24H83.7242V20.576H84.1082C83.7669 21.728 83.0736 22.6453 82.0282 23.328C81.0042 23.9893 79.8096 24.32 78.4442 24.32ZM79.5642 21.248C80.8229 21.248 81.8362 20.8107 82.6042 19.936C83.3722 19.04 83.7562 17.696 83.7562 15.904C83.7562 14.112 83.3722 12.7787 82.6042 11.904C81.8362 11.0293 80.8229 10.592 79.5642 10.592C78.3056 10.592 77.2816 11.0293 76.4922 11.904C75.7242 12.7787 75.3402 14.112 75.3402 15.904C75.3402 17.696 75.7242 19.04 76.4922 19.936C77.2816 20.8107 78.3056 21.248 79.5642 21.248ZM91.851 24V7.84H95.851V24H91.851ZM91.627 4.8V0.895998H96.075V4.8H91.627ZM105.79 24.32C104.403 24.32 103.123 24.16 101.95 23.84C100.798 23.4987 99.8271 23.0293 99.0378 22.432L100.158 19.744C100.968 20.2987 101.864 20.7253 102.846 21.024C103.827 21.3227 104.819 21.472 105.822 21.472C106.888 21.472 107.678 21.2907 108.19 20.928C108.723 20.5653 108.99 20.0747 108.99 19.456C108.99 18.9653 108.819 18.5813 108.478 18.304C108.158 18.0053 107.635 17.7813 106.91 17.632L103.71 17.024C102.344 16.7253 101.299 16.2133 100.574 15.488C99.8698 14.7627 99.5178 13.8133 99.5178 12.64C99.5178 11.6373 99.7844 10.752 100.318 9.984C100.872 9.216 101.651 8.61867 102.654 8.192C103.678 7.744 104.872 7.52 106.238 7.52C107.432 7.52 108.552 7.68 109.598 8C110.664 8.32 111.56 8.8 112.286 9.44L111.134 12.032C110.472 11.4987 109.715 11.0827 108.862 10.784C108.008 10.4853 107.176 10.336 106.366 10.336C105.256 10.336 104.446 10.5387 103.934 10.944C103.422 11.328 103.166 11.8293 103.166 12.448C103.166 12.9173 103.315 13.312 103.614 13.632C103.934 13.9307 104.424 14.1547 105.086 14.304L108.286 14.912C109.715 15.1893 110.792 15.68 111.518 16.384C112.264 17.0667 112.638 18.0053 112.638 19.2C112.638 20.2667 112.35 21.184 111.774 21.952C111.198 22.72 110.398 23.3067 109.374 23.712C108.35 24.1173 107.155 24.32 105.79 24.32ZM123.704 24.32C120.995 24.32 118.872 23.5733 117.336 22.08C115.8 20.5867 115.032 18.5387 115.032 15.936C115.032 14.2507 115.363 12.7787 116.024 11.52C116.685 10.2613 117.603 9.28 118.776 8.576C119.971 7.872 121.357 7.52 122.936 7.52C124.493 7.52 125.795 7.85067 126.84 8.512C127.885 9.17333 128.675 10.1013 129.208 11.296C129.763 12.4907 130.04 13.888 130.04 15.488V16.544H118.264V14.432H127.192L126.648 14.88C126.648 13.3867 126.328 12.2453 125.688 11.456C125.069 10.6667 124.163 10.272 122.968 10.272C121.645 10.272 120.621 10.7413 119.896 11.68C119.192 12.6187 118.84 13.9307 118.84 15.616V16.032C118.84 17.7813 119.267 19.0933 120.12 19.968C120.995 20.8213 122.221 21.248 123.8 21.248C124.717 21.248 125.571 21.1307 126.36 20.896C127.171 20.64 127.939 20.2347 128.664 19.68L129.848 22.368C129.08 22.9867 128.163 23.4667 127.096 23.808C126.029 24.1493 124.899 24.32 123.704 24.32ZM133.582 24V1.44H143.598C146.073 1.44 147.961 2.03733 149.262 3.232C150.564 4.42666 151.214 6.06933 151.214 8.16C151.214 10.2293 150.564 11.872 149.262 13.088C147.961 14.304 146.073 14.912 143.598 14.912H137.71V24H133.582ZM137.71 11.648H143.118C144.484 11.648 145.508 11.3493 146.19 10.752C146.873 10.1333 147.214 9.26933 147.214 8.16C147.214 7.05067 146.873 6.19733 146.19 5.6C145.508 4.98133 144.484 4.672 143.118 4.672H137.71V11.648ZM159.9 24.32C158.492 24.32 157.254 23.9893 156.188 23.328C155.121 22.6453 154.289 21.6747 153.692 20.416C153.094 19.1573 152.796 17.6533 152.796 15.904C152.796 14.1547 153.094 12.6613 153.692 11.424C154.289 10.1653 155.121 9.20533 156.188 8.544C157.254 7.86133 158.492 7.52 159.9 7.52C161.265 7.52 162.46 7.86133 163.484 8.544C164.529 9.20533 165.222 10.1013 165.564 11.232H165.212L165.564 7.84H169.404C169.34 8.50133 169.276 9.17333 169.212 9.856C169.169 10.5387 169.148 11.2107 169.148 11.872V24H165.18L165.148 20.672H165.532C165.19 21.7813 164.497 22.6667 163.452 23.328C162.406 23.9893 161.222 24.32 159.9 24.32ZM161.02 21.248C162.278 21.248 163.292 20.8107 164.06 19.936C164.828 19.04 165.212 17.696 165.212 15.904C165.212 14.112 164.828 12.7787 164.06 11.904C163.292 11.0293 162.278 10.592 161.02 10.592C159.761 10.592 158.748 11.0293 157.98 11.904C157.212 12.7787 156.828 14.112 156.828 15.904C156.828 17.696 157.201 19.04 157.948 19.936C158.716 20.8107 159.74 21.248 161.02 21.248ZM172.862 31.264L171.934 28.096C172.937 27.8827 173.78 27.6373 174.462 27.36C175.145 27.0827 175.71 26.72 176.158 26.272C176.606 25.824 176.98 25.248 177.278 24.544L178.078 22.656L177.982 24.224L170.942 7.84H175.198L180.254 20.448H179.326L184.414 7.84H188.446L181.086 24.896C180.596 26.048 180.062 26.9973 179.486 27.744C178.91 28.512 178.292 29.12 177.63 29.568C176.969 30.0373 176.244 30.4 175.454 30.656C174.665 30.912 173.801 31.1147 172.862 31.264Z" fill="white"/>
</svg>
