<svg width="44" height="49" viewBox="0 0 44 49" fill="none" xmlns="http://www.w3.org/2000/svg">
<g clip-path="url(#clip0_0_168)">
<path d="M16.4 9.6H18V8H16.4V9.6ZM26 9.6H27.6V8H26V9.6ZM26.16 13.92C25.6756 14.5658 25.0476 15.09 24.3255 15.451C23.6035 15.812 22.8073 16 22 16C21.1927 16 20.3965 15.812 19.6745 15.451C18.9524 15.09 18.3244 14.5658 17.84 13.92L16.56 14.88C19.28 18.5072 24.72 18.5072 27.44 14.88L26.16 13.92ZM11.6 8V4H10V8H11.6ZM14 1.6H18V0H14V1.6ZM11.6 4C11.6 3.36348 11.8529 2.75303 12.3029 2.30294C12.753 1.85286 13.3635 1.6 14 1.6V0C12.9391 0 11.9217 0.421427 11.1716 1.17157C10.4214 1.92172 10 2.93913 10 4H11.6ZM10 16V20H11.6V16H10ZM14 24H18V22.4H14V24ZM10 20C10 21.0609 10.4214 22.0783 11.1716 22.8284C11.9217 23.5786 12.9391 24 14 24V22.4C13.3635 22.4 12.753 22.1471 12.3029 21.6971C11.8529 21.247 11.6 20.6365 11.6 20H10ZM26 1.6H30V0H26V1.6ZM32.4 4V8H34V4H32.4ZM30 1.6C30.6365 1.6 31.247 1.85286 31.6971 2.30294C32.1471 2.75303 32.4 3.36348 32.4 4H34C34 2.93913 33.5786 1.92172 32.8284 1.17157C32.0783 0.421427 31.0609 0 30 0V1.6ZM26 24H30V22.4H26V24ZM34 20V16H32.4V20H34ZM30 24C31.0609 24 32.0783 23.5786 32.8284 22.8284C33.5786 22.0783 34 21.0609 34 20H32.4C32.4 20.6365 32.1471 21.247 31.6971 21.6971C31.247 22.1471 30.6365 22.4 30 22.4V24Z" fill="#0063F4"/>
</g>
<path d="M1.52585 45V35.9H7.06385V36.797H2.61785V39.995H6.40085V40.879H2.61785V45H1.52585ZM9.94085 45.156C9.40352 45.156 8.95718 45.065 8.60185 44.883C8.24652 44.701 7.98218 44.4583 7.80885 44.155C7.63552 43.8517 7.54885 43.5223 7.54885 43.167C7.54885 42.5083 7.80018 42.0013 8.30285 41.646C8.80552 41.2907 9.49018 41.113 10.3568 41.113H12.0988V41.035C12.0988 40.4717 11.9515 40.047 11.6568 39.761C11.3622 39.4663 10.9678 39.319 10.4738 39.319C10.0492 39.319 9.68085 39.4273 9.36885 39.644C9.06552 39.852 8.87485 40.1597 8.79685 40.567H7.67885C7.72218 40.099 7.87818 39.7047 8.14685 39.384C8.42418 39.0633 8.76652 38.8207 9.17385 38.656C9.58118 38.4827 10.0145 38.396 10.4738 38.396C11.3752 38.396 12.0512 38.6387 12.5018 39.124C12.9612 39.6007 13.1908 40.2377 13.1908 41.035V45H12.2158L12.1508 43.843C11.9688 44.207 11.7002 44.519 11.3448 44.779C10.9982 45.0303 10.5302 45.156 9.94085 45.156ZM10.1098 44.233C10.5258 44.233 10.8812 44.1247 11.1758 43.908C11.4792 43.6913 11.7088 43.4097 11.8648 43.063C12.0208 42.7163 12.0988 42.3523 12.0988 41.971V41.958H10.4478C9.80652 41.958 9.35152 42.0707 9.08285 42.296C8.82285 42.5127 8.69285 42.7857 8.69285 43.115C8.69285 43.453 8.81418 43.726 9.05685 43.934C9.30818 44.1333 9.65918 44.233 10.1098 44.233ZM17.6281 45.156C17.0127 45.156 16.4581 45.0173 15.9641 44.74C15.4787 44.454 15.0931 44.0597 14.8071 43.557C14.5297 43.0457 14.3911 42.452 14.3911 41.776C14.3911 41.1 14.5297 40.5107 14.8071 40.008C15.0931 39.4967 15.4787 39.1023 15.9641 38.825C16.4581 38.539 17.0127 38.396 17.6281 38.396C18.3907 38.396 19.0321 38.5953 19.5521 38.994C20.0807 39.3927 20.4144 39.9257 20.5531 40.593H19.4351C19.3484 40.1943 19.1361 39.8867 18.7981 39.67C18.4601 39.4447 18.0657 39.332 17.6151 39.332C17.2511 39.332 16.9087 39.423 16.5881 39.605C16.2674 39.787 16.0074 40.06 15.8081 40.424C15.6087 40.788 15.5091 41.2387 15.5091 41.776C15.5091 42.3133 15.6087 42.764 15.8081 43.128C16.0074 43.492 16.2674 43.7693 16.5881 43.96C16.9087 44.142 17.2511 44.233 17.6151 44.233C18.0657 44.233 18.4601 44.1247 18.7981 43.908C19.1361 43.6827 19.3484 43.3663 19.4351 42.959H20.5531C20.4231 43.609 20.0937 44.1377 19.5651 44.545C19.0364 44.9523 18.3907 45.156 17.6281 45.156ZM24.8121 45.156C24.1968 45.156 23.6508 45.0173 23.1741 44.74C22.6974 44.454 22.3204 44.0597 22.0431 43.557C21.7744 43.0543 21.6401 42.4607 21.6401 41.776C21.6401 41.1 21.7744 40.5107 22.0431 40.008C22.3118 39.4967 22.6844 39.1023 23.1611 38.825C23.6464 38.539 24.2054 38.396 24.8381 38.396C25.4621 38.396 25.9994 38.539 26.4501 38.825C26.9094 39.1023 27.2604 39.4707 27.5031 39.93C27.7458 40.3893 27.8671 40.8833 27.8671 41.412C27.8671 41.5073 27.8628 41.6027 27.8541 41.698C27.8541 41.7933 27.8541 41.9017 27.8541 42.023H22.7191C22.7451 42.517 22.8578 42.9287 23.0571 43.258C23.2651 43.5787 23.5208 43.8213 23.8241 43.986C24.1361 44.1507 24.4654 44.233 24.8121 44.233C25.2628 44.233 25.6398 44.129 25.9431 43.921C26.2464 43.713 26.4674 43.4313 26.6061 43.076H27.6851C27.5118 43.674 27.1781 44.1723 26.6841 44.571C26.1988 44.961 25.5748 45.156 24.8121 45.156ZM24.8121 39.319C24.2921 39.319 23.8284 39.4793 23.4211 39.8C23.0224 40.112 22.7928 40.5713 22.7321 41.178H26.7881C26.7621 40.5973 26.5628 40.1423 26.1901 39.813C25.8174 39.4837 25.3581 39.319 24.8121 39.319ZM32.4899 45V35.9H33.5819V45H32.4899ZM35.3464 45V35.9H38.1414C39.7447 35.9 40.9234 36.3073 41.6774 37.122C42.4401 37.9367 42.8214 39.0547 42.8214 40.476C42.8214 41.8713 42.4401 42.9763 41.6774 43.791C40.9234 44.597 39.7447 45 38.1414 45H35.3464ZM36.4384 44.09H38.1154C38.9994 44.09 39.7014 43.947 40.2214 43.661C40.7501 43.3663 41.1271 42.9503 41.3524 42.413C41.5777 41.867 41.6904 41.2213 41.6904 40.476C41.6904 39.7133 41.5777 39.059 41.3524 38.513C41.1271 37.967 40.7501 37.5467 40.2214 37.252C39.7014 36.9573 38.9994 36.81 38.1154 36.81H36.4384V44.09Z" fill="#212226"/>
<defs>
<clipPath id="clip0_0_168">
<rect width="24" height="24" fill="white" transform="translate(10)"/>
</clipPath>
</defs>
</svg>
