<svg width="375" height="812" viewBox="0 0 375 812" fill="none" xmlns="http://www.w3.org/2000/svg">
<g clip-path="url(#clip0_0_904)">
<path opacity="0.25" d="M12.0002 16.1333C20.9103 16.1333 28.1334 8.9102 28.1334 0.000101089C28.1334 -8.91 20.9103 -16.1331 12.0002 -16.1331C3.09012 -16.1331 -4.13293 -8.91 -4.13293 0.000101089C-4.13293 8.9102 3.09012 16.1333 12.0002 16.1333Z" stroke="white" stroke-opacity="0.15" stroke-width="3.29875"/>
<path d="M12 4.0335C14.2275 4.0335 16.0333 2.22773 16.0333 0.000208378C16.0333 -2.22732 14.2275 -4.03308 12 -4.03308C9.7725 -4.03308 7.96674 -2.22732 7.96674 0.000208378C7.96674 2.22773 9.7725 4.0335 12 4.0335Z" fill="white" fill-opacity="0.15"/>
<path opacity="0.25" d="M70.0002 16.1333C78.9103 16.1333 86.1333 8.9102 86.1333 0.000101089C86.1333 -8.91 78.9103 -16.1331 70.0002 -16.1331C61.0901 -16.1331 53.867 -8.91 53.867 0.000101089C53.867 8.9102 61.0901 16.1333 70.0002 16.1333Z" stroke="white" stroke-opacity="0.15" stroke-width="3.29875"/>
<path d="M70 4.0335C72.2275 4.0335 74.0332 2.22773 74.0332 0.000208378C74.0332 -2.22732 72.2275 -4.03308 70 -4.03308C67.7724 -4.03308 65.9667 -2.22732 65.9667 0.000208378C65.9667 2.22773 67.7724 4.0335 70 4.0335Z" fill="white" fill-opacity="0.15"/>
<path opacity="0.25" d="M128 16.1333C136.91 16.1333 144.133 8.9102 144.133 0.000101089C144.133 -8.91 136.91 -16.1331 128 -16.1331C119.09 -16.1331 111.867 -8.91 111.867 0.000101089C111.867 8.9102 119.09 16.1333 128 16.1333Z" stroke="white" stroke-opacity="0.15" stroke-width="3.29875"/>
<path d="M128 4.0335C130.227 4.0335 132.033 2.22773 132.033 0.000208378C132.033 -2.22732 130.227 -4.03308 128 -4.03308C125.772 -4.03308 123.967 -2.22732 123.967 0.000208378C123.967 2.22773 125.772 4.0335 128 4.0335Z" fill="white" fill-opacity="0.15"/>
<path opacity="0.25" d="M186 16.1333C194.91 16.1333 202.133 8.9102 202.133 0.000101089C202.133 -8.91 194.91 -16.1331 186 -16.1331C177.09 -16.1331 169.867 -8.91 169.867 0.000101089C169.867 8.9102 177.09 16.1333 186 16.1333Z" stroke="white" stroke-opacity="0.15" stroke-width="3.29875"/>
<path d="M186 4.0335C188.228 4.0335 190.034 2.22773 190.034 0.000208378C190.034 -2.22732 188.228 -4.03308 186 -4.03308C183.773 -4.03308 181.967 -2.22732 181.967 0.000208378C181.967 2.22773 183.773 4.0335 186 4.0335Z" fill="white" fill-opacity="0.15"/>
<path opacity="0.25" d="M244 16.1333C252.91 16.1333 260.133 8.9102 260.133 0.000101089C260.133 -8.91 252.91 -16.1331 244 -16.1331C235.09 -16.1331 227.867 -8.91 227.867 0.000101089C227.867 8.9102 235.09 16.1333 244 16.1333Z" stroke="white" stroke-opacity="0.15" stroke-width="3.29875"/>
<path d="M244 4.0335C246.228 4.0335 248.033 2.22773 248.033 0.000208378C248.033 -2.22732 246.228 -4.03308 244 -4.03308C241.773 -4.03308 239.967 -2.22732 239.967 0.000208378C239.967 2.22773 241.773 4.0335 244 4.0335Z" fill="white" fill-opacity="0.15"/>
<path opacity="0.25" d="M302 16.1333C310.91 16.1333 318.133 8.9102 318.133 0.000101089C318.133 -8.91 310.91 -16.1331 302 -16.1331C293.09 -16.1331 285.867 -8.91 285.867 0.000101089C285.867 8.9102 293.09 16.1333 302 16.1333Z" stroke="white" stroke-opacity="0.15" stroke-width="3.29875"/>
<path d="M302 4.0335C304.228 4.0335 306.033 2.22773 306.033 0.000208378C306.033 -2.22732 304.228 -4.03308 302 -4.03308C299.773 -4.03308 297.967 -2.22732 297.967 0.000208378C297.967 2.22773 299.773 4.0335 302 4.0335Z" fill="white" fill-opacity="0.15"/>
<path opacity="0.25" d="M360 16.1333C368.91 16.1333 376.133 8.9102 376.133 0.000101089C376.133 -8.91 368.91 -16.1331 360 -16.1331C351.09 -16.1331 343.867 -8.91 343.867 0.000101089C343.867 8.9102 351.09 16.1333 360 16.1333Z" stroke="white" stroke-opacity="0.15" stroke-width="3.29875"/>
<path d="M360 4.0335C362.228 4.0335 364.033 2.22773 364.033 0.000208378C364.033 -2.22732 362.228 -4.03308 360 -4.03308C357.773 -4.03308 355.967 -2.22732 355.967 0.000208378C355.967 2.22773 357.773 4.0335 360 4.0335Z" fill="white" fill-opacity="0.15"/>
<path opacity="0.25" d="M12.0002 89.9515C20.9103 89.9515 28.1334 82.7284 28.1334 73.8183C28.1334 64.9082 20.9103 57.6852 12.0002 57.6852C3.09012 57.6852 -4.13293 64.9082 -4.13293 73.8183C-4.13293 82.7284 3.09012 89.9515 12.0002 89.9515Z" stroke="white" stroke-opacity="0.15" stroke-width="3.29875"/>
<path d="M12 77.8516C14.2275 77.8516 16.0333 76.0458 16.0333 73.8183C16.0333 71.5908 14.2275 69.785 12 69.785C9.7725 69.785 7.96674 71.5908 7.96674 73.8183C7.96674 76.0458 9.7725 77.8516 12 77.8516Z" fill="white" fill-opacity="0.15"/>
<path opacity="0.25" d="M70.0002 89.9515C78.9103 89.9515 86.1333 82.7284 86.1333 73.8183C86.1333 64.9082 78.9103 57.6852 70.0002 57.6852C61.0901 57.6852 53.867 64.9082 53.867 73.8183C53.867 82.7284 61.0901 89.9515 70.0002 89.9515Z" stroke="white" stroke-opacity="0.15" stroke-width="3.29875"/>
<path d="M70 77.8516C72.2275 77.8516 74.0332 76.0458 74.0332 73.8183C74.0332 71.5908 72.2275 69.785 70 69.785C67.7724 69.785 65.9667 71.5908 65.9667 73.8183C65.9667 76.0458 67.7724 77.8516 70 77.8516Z" fill="white" fill-opacity="0.15"/>
<path opacity="0.25" d="M128 89.9515C136.91 89.9515 144.133 82.7284 144.133 73.8183C144.133 64.9082 136.91 57.6852 128 57.6852C119.09 57.6852 111.867 64.9082 111.867 73.8183C111.867 82.7284 119.09 89.9515 128 89.9515Z" stroke="white" stroke-opacity="0.15" stroke-width="3.29875"/>
<path d="M128 77.8516C130.227 77.8516 132.033 76.0458 132.033 73.8183C132.033 71.5908 130.227 69.785 128 69.785C125.772 69.785 123.967 71.5908 123.967 73.8183C123.967 76.0458 125.772 77.8516 128 77.8516Z" fill="white" fill-opacity="0.15"/>
<path opacity="0.25" d="M186 89.9515C194.91 89.9515 202.133 82.7284 202.133 73.8183C202.133 64.9082 194.91 57.6852 186 57.6852C177.09 57.6852 169.867 64.9082 169.867 73.8183C169.867 82.7284 177.09 89.9515 186 89.9515Z" stroke="white" stroke-opacity="0.15" stroke-width="3.29875"/>
<path d="M186 77.8516C188.228 77.8516 190.034 76.0458 190.034 73.8183C190.034 71.5908 188.228 69.785 186 69.785C183.773 69.785 181.967 71.5908 181.967 73.8183C181.967 76.0458 183.773 77.8516 186 77.8516Z" fill="white" fill-opacity="0.15"/>
<path opacity="0.25" d="M244 89.9515C252.91 89.9515 260.133 82.7284 260.133 73.8183C260.133 64.9082 252.91 57.6852 244 57.6852C235.09 57.6852 227.867 64.9082 227.867 73.8183C227.867 82.7284 235.09 89.9515 244 89.9515Z" stroke="white" stroke-opacity="0.15" stroke-width="3.29875"/>
<path d="M244 77.8516C246.228 77.8516 248.033 76.0458 248.033 73.8183C248.033 71.5908 246.228 69.785 244 69.785C241.773 69.785 239.967 71.5908 239.967 73.8183C239.967 76.0458 241.773 77.8516 244 77.8516Z" fill="white" fill-opacity="0.15"/>
<path opacity="0.25" d="M302 89.9515C310.91 89.9515 318.133 82.7284 318.133 73.8183C318.133 64.9082 310.91 57.6852 302 57.6852C293.09 57.6852 285.867 64.9082 285.867 73.8183C285.867 82.7284 293.09 89.9515 302 89.9515Z" stroke="white" stroke-opacity="0.15" stroke-width="3.29875"/>
<path d="M302 77.8516C304.228 77.8516 306.033 76.0458 306.033 73.8183C306.033 71.5908 304.228 69.785 302 69.785C299.773 69.785 297.967 71.5908 297.967 73.8183C297.967 76.0458 299.773 77.8516 302 77.8516Z" fill="white" fill-opacity="0.15"/>
<path opacity="0.25" d="M360 89.9515C368.91 89.9515 376.133 82.7284 376.133 73.8183C376.133 64.9082 368.91 57.6852 360 57.6852C351.09 57.6852 343.867 64.9082 343.867 73.8183C343.867 82.7284 351.09 89.9515 360 89.9515Z" stroke="white" stroke-opacity="0.15" stroke-width="3.29875"/>
<path d="M360 77.8516C362.228 77.8516 364.033 76.0458 364.033 73.8183C364.033 71.5908 362.228 69.785 360 69.785C357.773 69.785 355.967 71.5908 355.967 73.8183C355.967 76.0458 357.773 77.8516 360 77.8516Z" fill="white" fill-opacity="0.15"/>
<path opacity="0.25" d="M12.0002 163.77C20.9103 163.77 28.1334 156.547 28.1334 147.636C28.1334 138.726 20.9103 131.503 12.0002 131.503C3.09012 131.503 -4.13293 138.726 -4.13293 147.636C-4.13293 156.547 3.09012 163.77 12.0002 163.77Z" stroke="white" stroke-opacity="0.15" stroke-width="3.29875"/>
<path d="M12 151.67C14.2275 151.67 16.0333 149.864 16.0333 147.637C16.0333 145.409 14.2275 143.603 12 143.603C9.7725 143.603 7.96674 145.409 7.96674 147.637C7.96674 149.864 9.7725 151.67 12 151.67Z" fill="white" fill-opacity="0.15"/>
<path opacity="0.25" d="M70.0002 163.77C78.9103 163.77 86.1333 156.547 86.1333 147.636C86.1333 138.726 78.9103 131.503 70.0002 131.503C61.0901 131.503 53.867 138.726 53.867 147.636C53.867 156.547 61.0901 163.77 70.0002 163.77Z" stroke="white" stroke-opacity="0.15" stroke-width="3.29875"/>
<path d="M70 151.67C72.2275 151.67 74.0332 149.864 74.0332 147.637C74.0332 145.409 72.2275 143.603 70 143.603C67.7724 143.603 65.9667 145.409 65.9667 147.637C65.9667 149.864 67.7724 151.67 70 151.67Z" fill="white" fill-opacity="0.15"/>
<path opacity="0.25" d="M128 163.77C136.91 163.77 144.133 156.547 144.133 147.636C144.133 138.726 136.91 131.503 128 131.503C119.09 131.503 111.867 138.726 111.867 147.636C111.867 156.547 119.09 163.77 128 163.77Z" stroke="white" stroke-opacity="0.15" stroke-width="3.29875"/>
<path d="M128 151.67C130.227 151.67 132.033 149.864 132.033 147.637C132.033 145.409 130.227 143.603 128 143.603C125.772 143.603 123.967 145.409 123.967 147.637C123.967 149.864 125.772 151.67 128 151.67Z" fill="white" fill-opacity="0.15"/>
<path opacity="0.25" d="M186 163.77C194.91 163.77 202.133 156.547 202.133 147.636C202.133 138.726 194.91 131.503 186 131.503C177.09 131.503 169.867 138.726 169.867 147.636C169.867 156.547 177.09 163.77 186 163.77Z" stroke="white" stroke-opacity="0.15" stroke-width="3.29875"/>
<path d="M186 151.67C188.228 151.67 190.034 149.864 190.034 147.637C190.034 145.409 188.228 143.603 186 143.603C183.773 143.603 181.967 145.409 181.967 147.637C181.967 149.864 183.773 151.67 186 151.67Z" fill="white" fill-opacity="0.15"/>
<path opacity="0.25" d="M244 163.77C252.91 163.77 260.133 156.547 260.133 147.636C260.133 138.726 252.91 131.503 244 131.503C235.09 131.503 227.867 138.726 227.867 147.636C227.867 156.547 235.09 163.77 244 163.77Z" stroke="white" stroke-opacity="0.15" stroke-width="3.29875"/>
<path d="M244 151.67C246.228 151.67 248.033 149.864 248.033 147.637C248.033 145.409 246.228 143.603 244 143.603C241.773 143.603 239.967 145.409 239.967 147.637C239.967 149.864 241.773 151.67 244 151.67Z" fill="white" fill-opacity="0.15"/>
<path opacity="0.25" d="M302 163.77C310.91 163.77 318.133 156.547 318.133 147.636C318.133 138.726 310.91 131.503 302 131.503C293.09 131.503 285.867 138.726 285.867 147.636C285.867 156.547 293.09 163.77 302 163.77Z" stroke="white" stroke-opacity="0.15" stroke-width="3.29875"/>
<path d="M302 151.67C304.228 151.67 306.033 149.864 306.033 147.637C306.033 145.409 304.228 143.603 302 143.603C299.773 143.603 297.967 145.409 297.967 147.637C297.967 149.864 299.773 151.67 302 151.67Z" fill="white" fill-opacity="0.15"/>
<path opacity="0.25" d="M360 163.77C368.91 163.77 376.133 156.547 376.133 147.636C376.133 138.726 368.91 131.503 360 131.503C351.09 131.503 343.867 138.726 343.867 147.636C343.867 156.547 351.09 163.77 360 163.77Z" stroke="white" stroke-opacity="0.15" stroke-width="3.29875"/>
<path d="M360 151.67C362.228 151.67 364.033 149.864 364.033 147.637C364.033 145.409 362.228 143.603 360 143.603C357.773 143.603 355.967 145.409 355.967 147.637C355.967 149.864 357.773 151.67 360 151.67Z" fill="white" fill-opacity="0.15"/>
<path opacity="0.25" d="M12.0002 237.588C20.9103 237.588 28.1334 230.365 28.1334 221.455C28.1334 212.545 20.9103 205.322 12.0002 205.322C3.09012 205.322 -4.13293 212.545 -4.13293 221.455C-4.13293 230.365 3.09012 237.588 12.0002 237.588Z" stroke="white" stroke-opacity="0.15" stroke-width="3.29875"/>
<path d="M12 225.488C14.2275 225.488 16.0333 223.682 16.0333 221.455C16.0333 219.227 14.2275 217.421 12 217.421C9.7725 217.421 7.96674 219.227 7.96674 221.455C7.96674 223.682 9.7725 225.488 12 225.488Z" fill="white" fill-opacity="0.15"/>
<path opacity="0.25" d="M70.0002 237.588C78.9103 237.588 86.1333 230.365 86.1333 221.455C86.1333 212.545 78.9103 205.322 70.0002 205.322C61.0901 205.322 53.867 212.545 53.867 221.455C53.867 230.365 61.0901 237.588 70.0002 237.588Z" stroke="white" stroke-opacity="0.15" stroke-width="3.29875"/>
<path d="M70 225.488C72.2275 225.488 74.0332 223.682 74.0332 221.455C74.0332 219.227 72.2275 217.421 70 217.421C67.7724 217.421 65.9667 219.227 65.9667 221.455C65.9667 223.682 67.7724 225.488 70 225.488Z" fill="white" fill-opacity="0.15"/>
<path opacity="0.25" d="M128 237.588C136.91 237.588 144.133 230.365 144.133 221.455C144.133 212.545 136.91 205.322 128 205.322C119.09 205.322 111.867 212.545 111.867 221.455C111.867 230.365 119.09 237.588 128 237.588Z" stroke="white" stroke-opacity="0.15" stroke-width="3.29875"/>
<path d="M128 225.488C130.227 225.488 132.033 223.682 132.033 221.455C132.033 219.227 130.227 217.421 128 217.421C125.772 217.421 123.967 219.227 123.967 221.455C123.967 223.682 125.772 225.488 128 225.488Z" fill="white" fill-opacity="0.15"/>
<path opacity="0.25" d="M186 237.588C194.91 237.588 202.133 230.365 202.133 221.455C202.133 212.545 194.91 205.322 186 205.322C177.09 205.322 169.867 212.545 169.867 221.455C169.867 230.365 177.09 237.588 186 237.588Z" stroke="white" stroke-opacity="0.15" stroke-width="3.29875"/>
<path d="M186 225.488C188.228 225.488 190.034 223.682 190.034 221.455C190.034 219.227 188.228 217.421 186 217.421C183.773 217.421 181.967 219.227 181.967 221.455C181.967 223.682 183.773 225.488 186 225.488Z" fill="white" fill-opacity="0.15"/>
<path opacity="0.25" d="M244 237.588C252.91 237.588 260.133 230.365 260.133 221.455C260.133 212.545 252.91 205.322 244 205.322C235.09 205.322 227.867 212.545 227.867 221.455C227.867 230.365 235.09 237.588 244 237.588Z" stroke="white" stroke-opacity="0.15" stroke-width="3.29875"/>
<path d="M244 225.488C246.228 225.488 248.033 223.682 248.033 221.455C248.033 219.227 246.228 217.421 244 217.421C241.773 217.421 239.967 219.227 239.967 221.455C239.967 223.682 241.773 225.488 244 225.488Z" fill="white" fill-opacity="0.15"/>
<path opacity="0.25" d="M302 237.588C310.91 237.588 318.133 230.365 318.133 221.455C318.133 212.545 310.91 205.322 302 205.322C293.09 205.322 285.867 212.545 285.867 221.455C285.867 230.365 293.09 237.588 302 237.588Z" stroke="white" stroke-opacity="0.15" stroke-width="3.29875"/>
<path d="M302 225.488C304.228 225.488 306.033 223.682 306.033 221.455C306.033 219.227 304.228 217.421 302 217.421C299.773 217.421 297.967 219.227 297.967 221.455C297.967 223.682 299.773 225.488 302 225.488Z" fill="white" fill-opacity="0.15"/>
<path opacity="0.25" d="M360 237.588C368.91 237.588 376.133 230.365 376.133 221.455C376.133 212.545 368.91 205.322 360 205.322C351.09 205.322 343.867 212.545 343.867 221.455C343.867 230.365 351.09 237.588 360 237.588Z" stroke="white" stroke-opacity="0.15" stroke-width="3.29875"/>
<path d="M360 225.488C362.228 225.488 364.033 223.682 364.033 221.455C364.033 219.227 362.228 217.421 360 217.421C357.773 217.421 355.967 219.227 355.967 221.455C355.967 223.682 357.773 225.488 360 225.488Z" fill="white" fill-opacity="0.15"/>
<path opacity="0.25" d="M12.0002 311.406C20.9103 311.406 28.1334 304.183 28.1334 295.273C28.1334 286.363 20.9103 279.14 12.0002 279.14C3.09012 279.14 -4.13293 286.363 -4.13293 295.273C-4.13293 304.183 3.09012 311.406 12.0002 311.406Z" stroke="white" stroke-opacity="0.15" stroke-width="3.29875"/>
<path d="M12 299.306C14.2275 299.306 16.0333 297.5 16.0333 295.273C16.0333 293.045 14.2275 291.24 12 291.24C9.7725 291.24 7.96674 293.045 7.96674 295.273C7.96674 297.5 9.7725 299.306 12 299.306Z" fill="white" fill-opacity="0.15"/>
<path opacity="0.25" d="M70.0002 311.406C78.9103 311.406 86.1333 304.183 86.1333 295.273C86.1333 286.363 78.9103 279.14 70.0002 279.14C61.0901 279.14 53.867 286.363 53.867 295.273C53.867 304.183 61.0901 311.406 70.0002 311.406Z" stroke="white" stroke-opacity="0.15" stroke-width="3.29875"/>
<path d="M70 299.306C72.2275 299.306 74.0332 297.5 74.0332 295.273C74.0332 293.045 72.2275 291.24 70 291.24C67.7724 291.24 65.9667 293.045 65.9667 295.273C65.9667 297.5 67.7724 299.306 70 299.306Z" fill="white" fill-opacity="0.15"/>
<path opacity="0.25" d="M128 311.406C136.91 311.406 144.133 304.183 144.133 295.273C144.133 286.363 136.91 279.14 128 279.14C119.09 279.14 111.867 286.363 111.867 295.273C111.867 304.183 119.09 311.406 128 311.406Z" stroke="white" stroke-opacity="0.15" stroke-width="3.29875"/>
<path d="M128 299.306C130.227 299.306 132.033 297.5 132.033 295.273C132.033 293.045 130.227 291.24 128 291.24C125.772 291.24 123.967 293.045 123.967 295.273C123.967 297.5 125.772 299.306 128 299.306Z" fill="white" fill-opacity="0.15"/>
<path opacity="0.25" d="M186 311.406C194.91 311.406 202.133 304.183 202.133 295.273C202.133 286.363 194.91 279.14 186 279.14C177.09 279.14 169.867 286.363 169.867 295.273C169.867 304.183 177.09 311.406 186 311.406Z" stroke="white" stroke-opacity="0.15" stroke-width="3.29875"/>
<path d="M186 299.306C188.228 299.306 190.034 297.5 190.034 295.273C190.034 293.045 188.228 291.24 186 291.24C183.773 291.24 181.967 293.045 181.967 295.273C181.967 297.5 183.773 299.306 186 299.306Z" fill="white" fill-opacity="0.15"/>
<path opacity="0.25" d="M244 311.406C252.91 311.406 260.133 304.183 260.133 295.273C260.133 286.363 252.91 279.14 244 279.14C235.09 279.14 227.867 286.363 227.867 295.273C227.867 304.183 235.09 311.406 244 311.406Z" stroke="white" stroke-opacity="0.15" stroke-width="3.29875"/>
<path d="M244 299.306C246.228 299.306 248.033 297.5 248.033 295.273C248.033 293.045 246.228 291.24 244 291.24C241.773 291.24 239.967 293.045 239.967 295.273C239.967 297.5 241.773 299.306 244 299.306Z" fill="white" fill-opacity="0.15"/>
<path opacity="0.25" d="M302 311.406C310.91 311.406 318.133 304.183 318.133 295.273C318.133 286.363 310.91 279.14 302 279.14C293.09 279.14 285.867 286.363 285.867 295.273C285.867 304.183 293.09 311.406 302 311.406Z" stroke="white" stroke-opacity="0.15" stroke-width="3.29875"/>
<path d="M302 299.306C304.228 299.306 306.033 297.5 306.033 295.273C306.033 293.045 304.228 291.24 302 291.24C299.773 291.24 297.967 293.045 297.967 295.273C297.967 297.5 299.773 299.306 302 299.306Z" fill="white" fill-opacity="0.15"/>
<path opacity="0.25" d="M360 311.406C368.91 311.406 376.133 304.183 376.133 295.273C376.133 286.363 368.91 279.14 360 279.14C351.09 279.14 343.867 286.363 343.867 295.273C343.867 304.183 351.09 311.406 360 311.406Z" stroke="white" stroke-opacity="0.15" stroke-width="3.29875"/>
<path d="M360 299.306C362.228 299.306 364.033 297.5 364.033 295.273C364.033 293.045 362.228 291.24 360 291.24C357.773 291.24 355.967 293.045 355.967 295.273C355.967 297.5 357.773 299.306 360 299.306Z" fill="white" fill-opacity="0.15"/>
<path opacity="0.25" d="M12.0002 385.224C20.9103 385.224 28.1334 378.001 28.1334 369.091C28.1334 360.181 20.9103 352.958 12.0002 352.958C3.09012 352.958 -4.13293 360.181 -4.13293 369.091C-4.13293 378.001 3.09012 385.224 12.0002 385.224Z" stroke="white" stroke-opacity="0.15" stroke-width="3.29875"/>
<path d="M12 373.124C14.2275 373.124 16.0333 371.318 16.0333 369.091C16.0333 366.863 14.2275 365.058 12 365.058C9.7725 365.058 7.96674 366.863 7.96674 369.091C7.96674 371.318 9.7725 373.124 12 373.124Z" fill="white" fill-opacity="0.15"/>
<path opacity="0.25" d="M70.0002 385.224C78.9103 385.224 86.1333 378.001 86.1333 369.091C86.1333 360.181 78.9103 352.958 70.0002 352.958C61.0901 352.958 53.867 360.181 53.867 369.091C53.867 378.001 61.0901 385.224 70.0002 385.224Z" stroke="white" stroke-opacity="0.15" stroke-width="3.29875"/>
<path d="M70 373.124C72.2275 373.124 74.0332 371.318 74.0332 369.091C74.0332 366.863 72.2275 365.058 70 365.058C67.7724 365.058 65.9667 366.863 65.9667 369.091C65.9667 371.318 67.7724 373.124 70 373.124Z" fill="white" fill-opacity="0.15"/>
<path opacity="0.25" d="M128 385.224C136.91 385.224 144.133 378.001 144.133 369.091C144.133 360.181 136.91 352.958 128 352.958C119.09 352.958 111.867 360.181 111.867 369.091C111.867 378.001 119.09 385.224 128 385.224Z" stroke="white" stroke-opacity="0.15" stroke-width="3.29875"/>
<path d="M128 373.124C130.227 373.124 132.033 371.318 132.033 369.091C132.033 366.863 130.227 365.058 128 365.058C125.772 365.058 123.967 366.863 123.967 369.091C123.967 371.318 125.772 373.124 128 373.124Z" fill="white" fill-opacity="0.15"/>
<path opacity="0.25" d="M186 385.224C194.91 385.224 202.133 378.001 202.133 369.091C202.133 360.181 194.91 352.958 186 352.958C177.09 352.958 169.867 360.181 169.867 369.091C169.867 378.001 177.09 385.224 186 385.224Z" stroke="white" stroke-opacity="0.15" stroke-width="3.29875"/>
<path d="M186 373.124C188.228 373.124 190.034 371.318 190.034 369.091C190.034 366.863 188.228 365.058 186 365.058C183.773 365.058 181.967 366.863 181.967 369.091C181.967 371.318 183.773 373.124 186 373.124Z" fill="white" fill-opacity="0.15"/>
<path opacity="0.25" d="M244 385.224C252.91 385.224 260.133 378.001 260.133 369.091C260.133 360.181 252.91 352.958 244 352.958C235.09 352.958 227.867 360.181 227.867 369.091C227.867 378.001 235.09 385.224 244 385.224Z" stroke="white" stroke-opacity="0.15" stroke-width="3.29875"/>
<path d="M244 373.124C246.228 373.124 248.033 371.318 248.033 369.091C248.033 366.863 246.228 365.058 244 365.058C241.773 365.058 239.967 366.863 239.967 369.091C239.967 371.318 241.773 373.124 244 373.124Z" fill="white" fill-opacity="0.15"/>
<path opacity="0.25" d="M302 385.224C310.91 385.224 318.133 378.001 318.133 369.091C318.133 360.181 310.91 352.958 302 352.958C293.09 352.958 285.867 360.181 285.867 369.091C285.867 378.001 293.09 385.224 302 385.224Z" stroke="white" stroke-opacity="0.15" stroke-width="3.29875"/>
<path d="M302 373.124C304.228 373.124 306.033 371.318 306.033 369.091C306.033 366.863 304.228 365.058 302 365.058C299.773 365.058 297.967 366.863 297.967 369.091C297.967 371.318 299.773 373.124 302 373.124Z" fill="white" fill-opacity="0.15"/>
<path opacity="0.25" d="M360 385.224C368.91 385.224 376.133 378.001 376.133 369.091C376.133 360.181 368.91 352.958 360 352.958C351.09 352.958 343.867 360.181 343.867 369.091C343.867 378.001 351.09 385.224 360 385.224Z" stroke="white" stroke-opacity="0.15" stroke-width="3.29875"/>
<path d="M360 373.124C362.228 373.124 364.033 371.318 364.033 369.091C364.033 366.863 362.228 365.058 360 365.058C357.773 365.058 355.967 366.863 355.967 369.091C355.967 371.318 357.773 373.124 360 373.124Z" fill="white" fill-opacity="0.15"/>
<path opacity="0.25" d="M12.0002 459.042C20.9103 459.042 28.1334 451.819 28.1334 442.909C28.1334 433.999 20.9103 426.776 12.0002 426.776C3.09012 426.776 -4.13293 433.999 -4.13293 442.909C-4.13293 451.819 3.09012 459.042 12.0002 459.042Z" stroke="white" stroke-opacity="0.15" stroke-width="3.29875"/>
<path d="M12 446.942C14.2275 446.942 16.0333 445.137 16.0333 442.909C16.0333 440.682 14.2275 438.876 12 438.876C9.7725 438.876 7.96674 440.682 7.96674 442.909C7.96674 445.137 9.7725 446.942 12 446.942Z" fill="white" fill-opacity="0.15"/>
<path opacity="0.25" d="M70.0002 459.042C78.9103 459.042 86.1333 451.819 86.1333 442.909C86.1333 433.999 78.9103 426.776 70.0002 426.776C61.0901 426.776 53.867 433.999 53.867 442.909C53.867 451.819 61.0901 459.042 70.0002 459.042Z" stroke="white" stroke-opacity="0.15" stroke-width="3.29875"/>
<path d="M70 446.942C72.2275 446.942 74.0332 445.137 74.0332 442.909C74.0332 440.682 72.2275 438.876 70 438.876C67.7724 438.876 65.9667 440.682 65.9667 442.909C65.9667 445.137 67.7724 446.942 70 446.942Z" fill="white" fill-opacity="0.15"/>
<path opacity="0.25" d="M128 459.042C136.91 459.042 144.133 451.819 144.133 442.909C144.133 433.999 136.91 426.776 128 426.776C119.09 426.776 111.867 433.999 111.867 442.909C111.867 451.819 119.09 459.042 128 459.042Z" stroke="white" stroke-opacity="0.15" stroke-width="3.29875"/>
<path d="M128 446.942C130.227 446.942 132.033 445.137 132.033 442.909C132.033 440.682 130.227 438.876 128 438.876C125.772 438.876 123.967 440.682 123.967 442.909C123.967 445.137 125.772 446.942 128 446.942Z" fill="white" fill-opacity="0.15"/>
<path opacity="0.25" d="M186 459.042C194.91 459.042 202.133 451.819 202.133 442.909C202.133 433.999 194.91 426.776 186 426.776C177.09 426.776 169.867 433.999 169.867 442.909C169.867 451.819 177.09 459.042 186 459.042Z" stroke="white" stroke-opacity="0.15" stroke-width="3.29875"/>
<path d="M186 446.942C188.228 446.942 190.034 445.137 190.034 442.909C190.034 440.682 188.228 438.876 186 438.876C183.773 438.876 181.967 440.682 181.967 442.909C181.967 445.137 183.773 446.942 186 446.942Z" fill="white" fill-opacity="0.15"/>
<path opacity="0.25" d="M244 459.042C252.91 459.042 260.133 451.819 260.133 442.909C260.133 433.999 252.91 426.776 244 426.776C235.09 426.776 227.867 433.999 227.867 442.909C227.867 451.819 235.09 459.042 244 459.042Z" stroke="white" stroke-opacity="0.15" stroke-width="3.29875"/>
<path d="M244 446.942C246.228 446.942 248.033 445.137 248.033 442.909C248.033 440.682 246.228 438.876 244 438.876C241.773 438.876 239.967 440.682 239.967 442.909C239.967 445.137 241.773 446.942 244 446.942Z" fill="white" fill-opacity="0.15"/>
<path opacity="0.25" d="M302 459.042C310.91 459.042 318.133 451.819 318.133 442.909C318.133 433.999 310.91 426.776 302 426.776C293.09 426.776 285.867 433.999 285.867 442.909C285.867 451.819 293.09 459.042 302 459.042Z" stroke="white" stroke-opacity="0.15" stroke-width="3.29875"/>
<path d="M302 446.942C304.228 446.942 306.033 445.137 306.033 442.909C306.033 440.682 304.228 438.876 302 438.876C299.773 438.876 297.967 440.682 297.967 442.909C297.967 445.137 299.773 446.942 302 446.942Z" fill="white" fill-opacity="0.15"/>
<path opacity="0.25" d="M360 459.042C368.91 459.042 376.133 451.819 376.133 442.909C376.133 433.999 368.91 426.776 360 426.776C351.09 426.776 343.867 433.999 343.867 442.909C343.867 451.819 351.09 459.042 360 459.042Z" stroke="white" stroke-opacity="0.15" stroke-width="3.29875"/>
<path d="M360 446.942C362.228 446.942 364.033 445.137 364.033 442.909C364.033 440.682 362.228 438.876 360 438.876C357.773 438.876 355.967 440.682 355.967 442.909C355.967 445.137 357.773 446.942 360 446.942Z" fill="white" fill-opacity="0.15"/>
<path opacity="0.25" d="M12.0002 532.86C20.9103 532.86 28.1334 525.637 28.1334 516.727C28.1334 507.817 20.9103 500.594 12.0002 500.594C3.09012 500.594 -4.13293 507.817 -4.13293 516.727C-4.13293 525.637 3.09012 532.86 12.0002 532.86Z" stroke="white" stroke-opacity="0.15" stroke-width="3.29875"/>
<path d="M12 520.761C14.2275 520.761 16.0333 518.955 16.0333 516.727C16.0333 514.5 14.2275 512.694 12 512.694C9.7725 512.694 7.96674 514.5 7.96674 516.727C7.96674 518.955 9.7725 520.761 12 520.761Z" fill="white" fill-opacity="0.15"/>
<path opacity="0.25" d="M70.0002 532.86C78.9103 532.86 86.1333 525.637 86.1333 516.727C86.1333 507.817 78.9103 500.594 70.0002 500.594C61.0901 500.594 53.867 507.817 53.867 516.727C53.867 525.637 61.0901 532.86 70.0002 532.86Z" stroke="white" stroke-opacity="0.15" stroke-width="3.29875"/>
<path d="M70 520.761C72.2275 520.761 74.0332 518.955 74.0332 516.727C74.0332 514.5 72.2275 512.694 70 512.694C67.7724 512.694 65.9667 514.5 65.9667 516.727C65.9667 518.955 67.7724 520.761 70 520.761Z" fill="white" fill-opacity="0.15"/>
<path opacity="0.25" d="M128 532.86C136.91 532.86 144.133 525.637 144.133 516.727C144.133 507.817 136.91 500.594 128 500.594C119.09 500.594 111.867 507.817 111.867 516.727C111.867 525.637 119.09 532.86 128 532.86Z" stroke="white" stroke-opacity="0.15" stroke-width="3.29875"/>
<path d="M128 520.761C130.227 520.761 132.033 518.955 132.033 516.727C132.033 514.5 130.227 512.694 128 512.694C125.772 512.694 123.967 514.5 123.967 516.727C123.967 518.955 125.772 520.761 128 520.761Z" fill="white" fill-opacity="0.15"/>
<path opacity="0.25" d="M186 532.86C194.91 532.86 202.133 525.637 202.133 516.727C202.133 507.817 194.91 500.594 186 500.594C177.09 500.594 169.867 507.817 169.867 516.727C169.867 525.637 177.09 532.86 186 532.86Z" stroke="white" stroke-opacity="0.15" stroke-width="3.29875"/>
<path d="M186 520.761C188.228 520.761 190.034 518.955 190.034 516.727C190.034 514.5 188.228 512.694 186 512.694C183.773 512.694 181.967 514.5 181.967 516.727C181.967 518.955 183.773 520.761 186 520.761Z" fill="white" fill-opacity="0.15"/>
<path opacity="0.25" d="M244 532.86C252.91 532.86 260.133 525.637 260.133 516.727C260.133 507.817 252.91 500.594 244 500.594C235.09 500.594 227.867 507.817 227.867 516.727C227.867 525.637 235.09 532.86 244 532.86Z" stroke="white" stroke-opacity="0.15" stroke-width="3.29875"/>
<path d="M244 520.761C246.228 520.761 248.033 518.955 248.033 516.727C248.033 514.5 246.228 512.694 244 512.694C241.773 512.694 239.967 514.5 239.967 516.727C239.967 518.955 241.773 520.761 244 520.761Z" fill="white" fill-opacity="0.15"/>
<path opacity="0.25" d="M302 532.86C310.91 532.86 318.133 525.637 318.133 516.727C318.133 507.817 310.91 500.594 302 500.594C293.09 500.594 285.867 507.817 285.867 516.727C285.867 525.637 293.09 532.86 302 532.86Z" stroke="white" stroke-opacity="0.15" stroke-width="3.29875"/>
<path d="M302 520.761C304.228 520.761 306.033 518.955 306.033 516.727C306.033 514.5 304.228 512.694 302 512.694C299.773 512.694 297.967 514.5 297.967 516.727C297.967 518.955 299.773 520.761 302 520.761Z" fill="white" fill-opacity="0.15"/>
<path opacity="0.25" d="M360 532.86C368.91 532.86 376.133 525.637 376.133 516.727C376.133 507.817 368.91 500.594 360 500.594C351.09 500.594 343.867 507.817 343.867 516.727C343.867 525.637 351.09 532.86 360 532.86Z" stroke="white" stroke-opacity="0.15" stroke-width="3.29875"/>
<path d="M360 520.761C362.228 520.761 364.033 518.955 364.033 516.727C364.033 514.5 362.228 512.694 360 512.694C357.773 512.694 355.967 514.5 355.967 516.727C355.967 518.955 357.773 520.761 360 520.761Z" fill="white" fill-opacity="0.15"/>
<path opacity="0.25" d="M12.0002 606.679C20.9103 606.679 28.1334 599.456 28.1334 590.545C28.1334 581.635 20.9103 574.412 12.0002 574.412C3.09012 574.412 -4.13293 581.635 -4.13293 590.545C-4.13293 599.456 3.09012 606.679 12.0002 606.679Z" stroke="white" stroke-opacity="0.15" stroke-width="3.29875"/>
<path d="M12 594.579C14.2275 594.579 16.0333 592.773 16.0333 590.546C16.0333 588.318 14.2275 586.512 12 586.512C9.7725 586.512 7.96674 588.318 7.96674 590.546C7.96674 592.773 9.7725 594.579 12 594.579Z" fill="white" fill-opacity="0.15"/>
<path opacity="0.25" d="M70.0002 606.679C78.9103 606.679 86.1333 599.456 86.1333 590.545C86.1333 581.635 78.9103 574.412 70.0002 574.412C61.0901 574.412 53.867 581.635 53.867 590.545C53.867 599.456 61.0901 606.679 70.0002 606.679Z" stroke="white" stroke-opacity="0.15" stroke-width="3.29875"/>
<path d="M70 594.579C72.2275 594.579 74.0332 592.773 74.0332 590.546C74.0332 588.318 72.2275 586.512 70 586.512C67.7724 586.512 65.9667 588.318 65.9667 590.546C65.9667 592.773 67.7724 594.579 70 594.579Z" fill="white" fill-opacity="0.15"/>
<path opacity="0.25" d="M128 606.679C136.91 606.679 144.133 599.456 144.133 590.545C144.133 581.635 136.91 574.412 128 574.412C119.09 574.412 111.867 581.635 111.867 590.545C111.867 599.456 119.09 606.679 128 606.679Z" stroke="white" stroke-opacity="0.15" stroke-width="3.29875"/>
<path d="M128 594.579C130.227 594.579 132.033 592.773 132.033 590.546C132.033 588.318 130.227 586.512 128 586.512C125.772 586.512 123.967 588.318 123.967 590.546C123.967 592.773 125.772 594.579 128 594.579Z" fill="white" fill-opacity="0.15"/>
<path opacity="0.25" d="M186 606.679C194.91 606.679 202.133 599.456 202.133 590.545C202.133 581.635 194.91 574.412 186 574.412C177.09 574.412 169.867 581.635 169.867 590.545C169.867 599.456 177.09 606.679 186 606.679Z" stroke="white" stroke-opacity="0.15" stroke-width="3.29875"/>
<path d="M186 594.579C188.228 594.579 190.034 592.773 190.034 590.546C190.034 588.318 188.228 586.512 186 586.512C183.773 586.512 181.967 588.318 181.967 590.546C181.967 592.773 183.773 594.579 186 594.579Z" fill="white" fill-opacity="0.15"/>
<path opacity="0.25" d="M244 606.679C252.91 606.679 260.133 599.456 260.133 590.545C260.133 581.635 252.91 574.412 244 574.412C235.09 574.412 227.867 581.635 227.867 590.545C227.867 599.456 235.09 606.679 244 606.679Z" stroke="white" stroke-opacity="0.15" stroke-width="3.29875"/>
<path d="M244 594.579C246.228 594.579 248.033 592.773 248.033 590.546C248.033 588.318 246.228 586.512 244 586.512C241.773 586.512 239.967 588.318 239.967 590.546C239.967 592.773 241.773 594.579 244 594.579Z" fill="white" fill-opacity="0.15"/>
<path opacity="0.25" d="M302 606.679C310.91 606.679 318.133 599.456 318.133 590.545C318.133 581.635 310.91 574.412 302 574.412C293.09 574.412 285.867 581.635 285.867 590.545C285.867 599.456 293.09 606.679 302 606.679Z" stroke="white" stroke-opacity="0.15" stroke-width="3.29875"/>
<path d="M302 594.579C304.228 594.579 306.033 592.773 306.033 590.546C306.033 588.318 304.228 586.512 302 586.512C299.773 586.512 297.967 588.318 297.967 590.546C297.967 592.773 299.773 594.579 302 594.579Z" fill="white" fill-opacity="0.15"/>
<path opacity="0.25" d="M360 606.679C368.91 606.679 376.133 599.456 376.133 590.545C376.133 581.635 368.91 574.412 360 574.412C351.09 574.412 343.867 581.635 343.867 590.545C343.867 599.456 351.09 606.679 360 606.679Z" stroke="white" stroke-opacity="0.15" stroke-width="3.29875"/>
<path d="M360 594.579C362.228 594.579 364.033 592.773 364.033 590.546C364.033 588.318 362.228 586.512 360 586.512C357.773 586.512 355.967 588.318 355.967 590.546C355.967 592.773 357.773 594.579 360 594.579Z" fill="white" fill-opacity="0.15"/>
<path opacity="0.25" d="M12.0002 680.497C20.9103 680.497 28.1334 673.274 28.1334 664.364C28.1334 655.454 20.9103 648.231 12.0002 648.231C3.09012 648.231 -4.13293 655.454 -4.13293 664.364C-4.13293 673.274 3.09012 680.497 12.0002 680.497Z" stroke="white" stroke-opacity="0.15" stroke-width="3.29875"/>
<path d="M12 668.397C14.2275 668.397 16.0333 666.591 16.0333 664.364C16.0333 662.136 14.2275 660.331 12 660.331C9.7725 660.331 7.96674 662.136 7.96674 664.364C7.96674 666.591 9.7725 668.397 12 668.397Z" fill="white" fill-opacity="0.15"/>
<path opacity="0.25" d="M70.0002 680.497C78.9103 680.497 86.1333 673.274 86.1333 664.364C86.1333 655.454 78.9103 648.231 70.0002 648.231C61.0901 648.231 53.867 655.454 53.867 664.364C53.867 673.274 61.0901 680.497 70.0002 680.497Z" stroke="white" stroke-opacity="0.15" stroke-width="3.29875"/>
<path d="M70 668.397C72.2275 668.397 74.0332 666.591 74.0332 664.364C74.0332 662.136 72.2275 660.331 70 660.331C67.7724 660.331 65.9667 662.136 65.9667 664.364C65.9667 666.591 67.7724 668.397 70 668.397Z" fill="white" fill-opacity="0.15"/>
<path opacity="0.25" d="M128 680.497C136.91 680.497 144.133 673.274 144.133 664.364C144.133 655.454 136.91 648.231 128 648.231C119.09 648.231 111.867 655.454 111.867 664.364C111.867 673.274 119.09 680.497 128 680.497Z" stroke="white" stroke-opacity="0.15" stroke-width="3.29875"/>
<path d="M128 668.397C130.227 668.397 132.033 666.591 132.033 664.364C132.033 662.136 130.227 660.331 128 660.331C125.772 660.331 123.967 662.136 123.967 664.364C123.967 666.591 125.772 668.397 128 668.397Z" fill="white" fill-opacity="0.15"/>
<path opacity="0.25" d="M186 680.497C194.91 680.497 202.133 673.274 202.133 664.364C202.133 655.454 194.91 648.231 186 648.231C177.09 648.231 169.867 655.454 169.867 664.364C169.867 673.274 177.09 680.497 186 680.497Z" stroke="white" stroke-opacity="0.15" stroke-width="3.29875"/>
<path d="M186 668.397C188.228 668.397 190.034 666.591 190.034 664.364C190.034 662.136 188.228 660.331 186 660.331C183.773 660.331 181.967 662.136 181.967 664.364C181.967 666.591 183.773 668.397 186 668.397Z" fill="white" fill-opacity="0.15"/>
<path opacity="0.25" d="M244 680.497C252.91 680.497 260.133 673.274 260.133 664.364C260.133 655.454 252.91 648.231 244 648.231C235.09 648.231 227.867 655.454 227.867 664.364C227.867 673.274 235.09 680.497 244 680.497Z" stroke="white" stroke-opacity="0.15" stroke-width="3.29875"/>
<path d="M244 668.397C246.228 668.397 248.033 666.591 248.033 664.364C248.033 662.136 246.228 660.331 244 660.331C241.773 660.331 239.967 662.136 239.967 664.364C239.967 666.591 241.773 668.397 244 668.397Z" fill="white" fill-opacity="0.15"/>
<path opacity="0.25" d="M302 680.497C310.91 680.497 318.133 673.274 318.133 664.364C318.133 655.454 310.91 648.231 302 648.231C293.09 648.231 285.867 655.454 285.867 664.364C285.867 673.274 293.09 680.497 302 680.497Z" stroke="white" stroke-opacity="0.15" stroke-width="3.29875"/>
<path d="M302 668.397C304.228 668.397 306.033 666.591 306.033 664.364C306.033 662.136 304.228 660.331 302 660.331C299.773 660.331 297.967 662.136 297.967 664.364C297.967 666.591 299.773 668.397 302 668.397Z" fill="white" fill-opacity="0.15"/>
<path opacity="0.25" d="M360 680.497C368.91 680.497 376.133 673.274 376.133 664.364C376.133 655.454 368.91 648.231 360 648.231C351.09 648.231 343.867 655.454 343.867 664.364C343.867 673.274 351.09 680.497 360 680.497Z" stroke="white" stroke-opacity="0.15" stroke-width="3.29875"/>
<path d="M360 668.397C362.228 668.397 364.033 666.591 364.033 664.364C364.033 662.136 362.228 660.331 360 660.331C357.773 660.331 355.967 662.136 355.967 664.364C355.967 666.591 357.773 668.397 360 668.397Z" fill="white" fill-opacity="0.15"/>
<path opacity="0.25" d="M12.0002 754.315C20.9103 754.315 28.1334 747.092 28.1334 738.182C28.1334 729.272 20.9103 722.049 12.0002 722.049C3.09012 722.049 -4.13293 729.272 -4.13293 738.182C-4.13293 747.092 3.09012 754.315 12.0002 754.315Z" stroke="white" stroke-opacity="0.15" stroke-width="3.29875"/>
<path d="M12 742.215C14.2275 742.215 16.0333 740.409 16.0333 738.182C16.0333 735.954 14.2275 734.149 12 734.149C9.7725 734.149 7.96674 735.954 7.96674 738.182C7.96674 740.409 9.7725 742.215 12 742.215Z" fill="white" fill-opacity="0.15"/>
<path opacity="0.25" d="M70.0002 754.315C78.9103 754.315 86.1333 747.092 86.1333 738.182C86.1333 729.272 78.9103 722.049 70.0002 722.049C61.0901 722.049 53.867 729.272 53.867 738.182C53.867 747.092 61.0901 754.315 70.0002 754.315Z" stroke="white" stroke-opacity="0.15" stroke-width="3.29875"/>
<path d="M70 742.215C72.2275 742.215 74.0332 740.409 74.0332 738.182C74.0332 735.954 72.2275 734.149 70 734.149C67.7724 734.149 65.9667 735.954 65.9667 738.182C65.9667 740.409 67.7724 742.215 70 742.215Z" fill="white" fill-opacity="0.15"/>
<path opacity="0.25" d="M128 754.315C136.91 754.315 144.133 747.092 144.133 738.182C144.133 729.272 136.91 722.049 128 722.049C119.09 722.049 111.867 729.272 111.867 738.182C111.867 747.092 119.09 754.315 128 754.315Z" stroke="white" stroke-opacity="0.15" stroke-width="3.29875"/>
<path d="M128 742.215C130.227 742.215 132.033 740.409 132.033 738.182C132.033 735.954 130.227 734.149 128 734.149C125.772 734.149 123.967 735.954 123.967 738.182C123.967 740.409 125.772 742.215 128 742.215Z" fill="white" fill-opacity="0.15"/>
<path opacity="0.25" d="M186 754.315C194.91 754.315 202.133 747.092 202.133 738.182C202.133 729.272 194.91 722.049 186 722.049C177.09 722.049 169.867 729.272 169.867 738.182C169.867 747.092 177.09 754.315 186 754.315Z" stroke="white" stroke-opacity="0.15" stroke-width="3.29875"/>
<path d="M186 742.215C188.228 742.215 190.034 740.409 190.034 738.182C190.034 735.954 188.228 734.149 186 734.149C183.773 734.149 181.967 735.954 181.967 738.182C181.967 740.409 183.773 742.215 186 742.215Z" fill="white" fill-opacity="0.15"/>
<path opacity="0.25" d="M244 754.315C252.91 754.315 260.133 747.092 260.133 738.182C260.133 729.272 252.91 722.049 244 722.049C235.09 722.049 227.867 729.272 227.867 738.182C227.867 747.092 235.09 754.315 244 754.315Z" stroke="white" stroke-opacity="0.15" stroke-width="3.29875"/>
<path d="M244 742.215C246.228 742.215 248.033 740.409 248.033 738.182C248.033 735.954 246.228 734.149 244 734.149C241.773 734.149 239.967 735.954 239.967 738.182C239.967 740.409 241.773 742.215 244 742.215Z" fill="white" fill-opacity="0.15"/>
<path opacity="0.25" d="M302 754.315C310.91 754.315 318.133 747.092 318.133 738.182C318.133 729.272 310.91 722.049 302 722.049C293.09 722.049 285.867 729.272 285.867 738.182C285.867 747.092 293.09 754.315 302 754.315Z" stroke="white" stroke-opacity="0.15" stroke-width="3.29875"/>
<path d="M302 742.215C304.228 742.215 306.033 740.409 306.033 738.182C306.033 735.954 304.228 734.149 302 734.149C299.773 734.149 297.967 735.954 297.967 738.182C297.967 740.409 299.773 742.215 302 742.215Z" fill="white" fill-opacity="0.15"/>
<path opacity="0.25" d="M360 754.315C368.91 754.315 376.133 747.092 376.133 738.182C376.133 729.272 368.91 722.049 360 722.049C351.09 722.049 343.867 729.272 343.867 738.182C343.867 747.092 351.09 754.315 360 754.315Z" stroke="white" stroke-opacity="0.15" stroke-width="3.29875"/>
<path d="M360 742.215C362.228 742.215 364.033 740.409 364.033 738.182C364.033 735.954 362.228 734.149 360 734.149C357.773 734.149 355.967 735.954 355.967 738.182C355.967 740.409 357.773 742.215 360 742.215Z" fill="white" fill-opacity="0.15"/>
<path opacity="0.25" d="M12.0002 828.133C20.9103 828.133 28.1334 820.91 28.1334 812C28.1334 803.09 20.9103 795.867 12.0002 795.867C3.09012 795.867 -4.13293 803.09 -4.13293 812C-4.13293 820.91 3.09012 828.133 12.0002 828.133Z" stroke="white" stroke-opacity="0.15" stroke-width="3.29875"/>
<path d="M12 816.033C14.2275 816.033 16.0333 814.228 16.0333 812C16.0333 809.773 14.2275 807.967 12 807.967C9.7725 807.967 7.96674 809.773 7.96674 812C7.96674 814.228 9.7725 816.033 12 816.033Z" fill="white" fill-opacity="0.15"/>
<path opacity="0.25" d="M70.0002 828.133C78.9103 828.133 86.1333 820.91 86.1333 812C86.1333 803.09 78.9103 795.867 70.0002 795.867C61.0901 795.867 53.867 803.09 53.867 812C53.867 820.91 61.0901 828.133 70.0002 828.133Z" stroke="white" stroke-opacity="0.15" stroke-width="3.29875"/>
<path d="M70 816.033C72.2275 816.033 74.0332 814.228 74.0332 812C74.0332 809.773 72.2275 807.967 70 807.967C67.7724 807.967 65.9667 809.773 65.9667 812C65.9667 814.228 67.7724 816.033 70 816.033Z" fill="white" fill-opacity="0.15"/>
<path opacity="0.25" d="M128 828.133C136.91 828.133 144.133 820.91 144.133 812C144.133 803.09 136.91 795.867 128 795.867C119.09 795.867 111.867 803.09 111.867 812C111.867 820.91 119.09 828.133 128 828.133Z" stroke="white" stroke-opacity="0.15" stroke-width="3.29875"/>
<path d="M128 816.033C130.227 816.033 132.033 814.228 132.033 812C132.033 809.773 130.227 807.967 128 807.967C125.772 807.967 123.967 809.773 123.967 812C123.967 814.228 125.772 816.033 128 816.033Z" fill="white" fill-opacity="0.15"/>
<path opacity="0.25" d="M186 828.133C194.91 828.133 202.133 820.91 202.133 812C202.133 803.09 194.91 795.867 186 795.867C177.09 795.867 169.867 803.09 169.867 812C169.867 820.91 177.09 828.133 186 828.133Z" stroke="white" stroke-opacity="0.15" stroke-width="3.29875"/>
<path d="M186 816.033C188.228 816.033 190.034 814.228 190.034 812C190.034 809.773 188.228 807.967 186 807.967C183.773 807.967 181.967 809.773 181.967 812C181.967 814.228 183.773 816.033 186 816.033Z" fill="white" fill-opacity="0.15"/>
<path opacity="0.25" d="M244 828.133C252.91 828.133 260.133 820.91 260.133 812C260.133 803.09 252.91 795.867 244 795.867C235.09 795.867 227.867 803.09 227.867 812C227.867 820.91 235.09 828.133 244 828.133Z" stroke="white" stroke-opacity="0.15" stroke-width="3.29875"/>
<path d="M244 816.033C246.228 816.033 248.033 814.228 248.033 812C248.033 809.773 246.228 807.967 244 807.967C241.773 807.967 239.967 809.773 239.967 812C239.967 814.228 241.773 816.033 244 816.033Z" fill="white" fill-opacity="0.15"/>
<path opacity="0.25" d="M302 828.133C310.91 828.133 318.133 820.91 318.133 812C318.133 803.09 310.91 795.867 302 795.867C293.09 795.867 285.867 803.09 285.867 812C285.867 820.91 293.09 828.133 302 828.133Z" stroke="white" stroke-opacity="0.15" stroke-width="3.29875"/>
<path d="M302 816.033C304.228 816.033 306.033 814.228 306.033 812C306.033 809.773 304.228 807.967 302 807.967C299.773 807.967 297.967 809.773 297.967 812C297.967 814.228 299.773 816.033 302 816.033Z" fill="white" fill-opacity="0.15"/>
<path opacity="0.25" d="M360 828.133C368.91 828.133 376.133 820.91 376.133 812C376.133 803.09 368.91 795.867 360 795.867C351.09 795.867 343.867 803.09 343.867 812C343.867 820.91 351.09 828.133 360 828.133Z" stroke="white" stroke-opacity="0.15" stroke-width="3.29875"/>
<path d="M360 816.033C362.228 816.033 364.033 814.228 364.033 812C364.033 809.773 362.228 807.967 360 807.967C357.773 807.967 355.967 809.773 355.967 812C355.967 814.228 357.773 816.033 360 816.033Z" fill="white" fill-opacity="0.15"/>
</g>
<defs>
<clipPath id="clip0_0_904">
<rect width="812" height="812" fill="white" transform="translate(-220)"/>
</clipPath>
</defs>
</svg>
