<svg width="51" height="43" viewBox="0 0 51 43" fill="none" xmlns="http://www.w3.org/2000/svg">
<rect x="0.662048" width="50" height="43" rx="6" fill="#EB9481" fill-opacity="0.12"/>
<path d="M28.912 31.25H26.7454V29.0833H28.912V31.25ZM26.7454 23.6667H24.5787V29.0833H26.7454V23.6667ZM35.412 21.5H33.2454V25.8333H35.412V21.5ZM33.2454 19.3333H31.0787V21.5H33.2454V19.3333ZM20.2454 21.5H18.0787V23.6667H20.2454V21.5ZM18.0787 19.3333H15.912V21.5H18.0787V19.3333ZM25.662 13.9167H27.8287V11.75H25.662V13.9167ZM17.537 13.375V16.625H20.787V13.375H17.537ZM21.3287 18.25H16.9954C16.3995 18.25 15.912 17.7625 15.912 17.1667V12.8333C15.912 12.2375 16.3995 11.75 16.9954 11.75H21.3287C21.9245 11.75 22.412 12.2375 22.412 12.8333V17.1667C22.412 17.7625 21.9245 18.25 21.3287 18.25ZM17.537 26.375V29.625H20.787V26.375H17.537ZM21.3287 31.25H16.9954C16.3995 31.25 15.912 30.7625 15.912 30.1667V25.8333C15.912 25.2375 16.3995 24.75 16.9954 24.75H21.3287C21.9245 24.75 22.412 25.2375 22.412 25.8333V30.1667C22.412 30.7625 21.9245 31.25 21.3287 31.25ZM30.537 13.375V16.625H33.787V13.375H30.537ZM34.3287 18.25H29.9954C29.3995 18.25 28.912 17.7625 28.912 17.1667V12.8333C28.912 12.2375 29.3995 11.75 29.9954 11.75H34.3287C34.9245 11.75 35.412 12.2375 35.412 12.8333V17.1667C35.412 17.7625 34.9245 18.25 34.3287 18.25ZM33.2454 29.0833V25.8333H28.912V28H31.0787V31.25H35.412V29.0833H33.2454ZM31.0787 21.5H26.7454V23.6667H31.0787V21.5ZM26.7454 19.3333H20.2454V21.5H22.412V23.6667H24.5787V21.5H26.7454V19.3333ZM27.8287 18.25V16.0833H25.662V13.9167H23.4954V18.25H27.8287ZM19.9745 14.1875H18.3495V15.8125H19.9745V14.1875ZM19.9745 27.1875H18.3495V28.8125H19.9745V27.1875ZM32.9745 14.1875H31.3495V15.8125H32.9745V14.1875Z" fill="#EB9481"/>
</svg>
