<svg width="40" height="40" viewBox="0 0 40 40" fill="none" xmlns="http://www.w3.org/2000/svg">
<rect width="40" height="40" rx="20" fill="#0063F4" fill-opacity="0.15"/>
<path fill-rule="evenodd" clip-rule="evenodd" d="M10.4282 13.6557C10.4282 15.1238 11.6169 16.3115 13.084 16.3115C14.5501 16.3115 15.7397 15.1238 15.7397 13.6557C15.7397 12.1896 14.5501 11 13.084 11C11.6169 11 10.4282 12.1896 10.4282 13.6557Z" stroke="#0063F4" stroke-width="2.76639" stroke-linecap="round" stroke-linejoin="round"/>
<path d="M20.3503 13.6558H29.5716" stroke="#0063F4" stroke-width="2.76639" stroke-linecap="round" stroke-linejoin="round"/>
<path d="M19.6495 26.3443H10.4282" stroke="#0063F4" stroke-width="2.76639" stroke-linecap="round" stroke-linejoin="round"/>
<path fill-rule="evenodd" clip-rule="evenodd" d="M29.5716 26.3443C29.5716 27.8105 28.3821 29 26.9159 29C25.4488 29 24.2601 27.8105 24.2601 26.3443C24.2601 24.8762 25.4488 23.6885 26.9159 23.6885C28.3821 23.6885 29.5716 24.8762 29.5716 26.3443Z" stroke="#0063F4" stroke-width="2.76639" stroke-linecap="round" stroke-linejoin="round"/>
</svg>
