<svg width="121" height="120" viewBox="0 0 121 120" fill="none" xmlns="http://www.w3.org/2000/svg">
<g clip-path="url(#clip0_0_1266)">
<path d="M102.872 17.627C91.9929 6.74908 77.0034 0.00012207 60.4954 0.00012207C43.9874 0.00012207 28.9978 6.74908 18.119 17.627C7.24022 28.505 0.5 43.5027 0.5 59.9909C0.5 82.7929 13.3972 102.753 32.2568 112.881V27.6718H58.6344C71.0223 27.6718 81.3641 30.8657 88.1321 37.9943L76.383 45.3635L59.4862 55.9174L54.5699 48.0668L44.7836 54.1769V54.1955L41.2283 56.4081C39.1915 57.6857 38.5711 60.3704 39.8488 62.3979L50.848 79.997C52.1256 82.0245 54.8014 82.6448 56.8382 81.3672L60.1991 79.2657L70.0224 73.1277L70.1891 73.0166L82.1881 65.527L96.3167 56.6673C96.4093 57.3616 96.4833 58.0838 96.5481 58.8151V61.1851C95.3445 82.7096 79.6328 91.4397 58.6344 91.4397H56.7827V119.889C58.0141 119.963 59.2547 120 60.4954 120C77.0034 120 91.9929 113.242 102.872 102.364C113.76 91.486 120.5 76.4883 120.5 59.9909C120.5 43.4934 113.76 28.4957 102.872 17.627Z" fill="white"/>
</g>
<defs>
<clipPath id="clip0_0_1266">
<rect width="120" height="120" fill="white" transform="translate(0.5 0.00012207)"/>
</clipPath>
</defs>
</svg>
