<svg width="50" height="43" viewBox="0 0 50 43" fill="none" xmlns="http://www.w3.org/2000/svg">
<rect width="50" height="43" rx="6" fill="#9747FF" fill-opacity="0.12"/>
<path d="M19.73 29.2C20.55 28.32 21.8 28.39 22.52 29.35L23.53 30.7C24.34 31.77 25.65 31.77 26.46 30.7L27.47 29.35C28.19 28.39 29.44 28.32 30.26 29.2C32.04 31.1 33.49 30.47 33.49 27.81V16.54C33.5 12.51 32.56 11.5 28.78 11.5H21.22C17.44 11.5 16.5 12.51 16.5 16.54V27.8C16.5 30.47 17.96 31.09 19.73 29.2Z" stroke="#9747FF" stroke-width="1.5" stroke-linecap="round" stroke-linejoin="round"/>
<path d="M21 16.5H29" stroke="#9747FF" stroke-width="1.5" stroke-linecap="round" stroke-linejoin="round"/>
<path d="M22 20.5H28" stroke="#9747FF" stroke-width="1.5" stroke-linecap="round" stroke-linejoin="round"/>
</svg>
