<svg width="260" height="168" viewBox="0 0 260 168" fill="none" xmlns="http://www.w3.org/2000/svg">
<g clip-path="url(#clip0_0_538)">
<path d="M8.70854 128.939C9.9921 115.833 17.75 102.751 30.0936 98.1744C25.5324 111.749 25.9179 126.5 31.1819 139.817C33.2307 144.946 36.0432 150.436 34.3791 155.702C33.3437 158.979 30.6684 161.535 27.6461 163.169C24.6237 164.802 21.2437 165.631 17.9059 166.444L17.2595 167.008C11.6171 155.11 7.42499 142.045 8.70854 128.939Z" fill="#F0F0F0"/>
<path d="M30.2236 98.4182C23.2542 106.647 18.8677 117.157 18.1007 127.931C17.9349 130.26 17.9694 132.638 18.5368 134.915C19.1069 137.13 20.2596 139.152 21.8751 140.771C23.351 142.31 25.039 143.714 26.1152 145.586C27.2495 147.559 27.3503 149.831 26.6649 151.976C25.8262 154.601 24.0949 156.767 22.3283 158.827C20.3668 161.114 18.2931 163.458 17.5118 166.442C17.4171 166.804 16.8618 166.636 16.9563 166.275C18.3157 161.082 23.2402 158.025 25.5041 153.321C26.5605 151.126 26.9621 148.6 25.8592 146.34C24.8948 144.365 23.1554 142.916 21.6475 141.37C20.0641 139.747 18.8358 137.952 18.1701 135.766C17.4891 133.529 17.3617 131.148 17.4673 128.825C17.7459 123.558 18.8506 118.368 20.7409 113.444C22.8672 107.813 25.9407 102.587 29.8285 97.9931C30.0693 97.7088 30.4628 98.1358 30.2236 98.4182Z" fill="white"/>
<path d="M18.1653 124.416C16.3618 124.027 14.755 123.01 13.6319 121.546C12.5089 120.082 11.9427 118.266 12.0345 116.422C12.0389 116.347 12.0723 116.277 12.1277 116.226C12.183 116.175 12.256 116.147 12.3312 116.149C12.4065 116.151 12.478 116.182 12.5309 116.235C12.5838 116.289 12.6138 116.361 12.6146 116.436C12.526 118.153 13.0536 119.844 14.1021 121.205C15.1507 122.567 16.6512 123.508 18.3328 123.86C18.6981 123.937 18.5286 124.492 18.1653 124.416Z" fill="white"/>
<path d="M21.0239 140.089C24.2105 138.071 26.5197 134.925 27.4911 131.28C27.587 130.919 28.1424 131.087 28.0466 131.448C27.0286 135.239 24.6189 138.507 21.2983 140.6C20.9816 140.799 20.709 140.287 21.0239 140.089Z" fill="white"/>
<path d="M23.4196 108.349C24.0861 108.645 24.8157 108.77 25.5427 108.714C26.2697 108.658 26.9714 108.422 27.5849 108.028C27.8989 107.825 28.1712 108.338 27.8593 108.54C27.1795 108.972 26.4041 109.231 25.601 109.295C24.7979 109.359 23.9914 109.225 23.2521 108.904C23.1799 108.88 23.1196 108.829 23.0836 108.762C23.0476 108.695 23.0384 108.616 23.0581 108.543C23.0806 108.469 23.1313 108.408 23.1989 108.371C23.2666 108.335 23.3459 108.327 23.4196 108.349Z" fill="white"/>
<path d="M68.6646 120.518C68.4722 120.65 68.2798 120.783 68.0872 120.92C65.5093 122.714 63.0813 124.714 60.8271 126.901C60.6502 127.068 60.4733 127.239 60.3015 127.41C54.927 132.737 50.5878 139.016 47.5047 145.928C46.2804 148.679 45.2671 151.52 44.4736 154.425C43.3779 158.438 42.5091 162.875 40.2199 166.194C39.9849 166.543 39.7286 166.877 39.4523 167.194L17.9972 167.753C17.9478 167.73 17.8983 167.712 17.8487 167.689L16.993 167.75C17.0235 167.597 17.0584 167.44 17.0889 167.287C17.1062 167.198 17.1282 167.11 17.1455 167.021C17.1586 166.962 17.1719 166.903 17.1803 166.849C17.1845 166.829 17.189 166.809 17.1934 166.794C17.2018 166.74 17.2154 166.691 17.2239 166.642C17.4164 165.76 17.6155 164.877 17.821 163.995C17.8209 163.99 17.8209 163.99 17.8255 163.985C19.4091 157.265 21.5674 150.618 24.6656 144.51C24.7588 144.326 24.8517 144.137 24.9548 143.953C26.3666 141.208 28.0003 138.582 29.8397 136.103C30.8513 134.749 31.9307 133.447 33.0739 132.202C36.0338 128.99 39.4803 126.265 43.287 124.125C50.8762 119.86 59.7445 118.07 68.0331 120.338C68.2451 120.396 68.4525 120.455 68.6646 120.518Z" fill="#F0F0F0"/>
<path d="M68.6235 120.791C58.1061 123.164 48.2784 128.914 41.1816 137.054C39.6473 138.814 38.2439 140.733 37.3266 142.893C36.4486 145.005 36.152 147.314 36.4676 149.579C36.7195 151.697 37.2223 153.835 36.955 155.978C36.6733 158.236 35.386 160.111 33.5478 161.411C31.2987 163.001 28.6125 163.688 25.9623 164.269C23.0197 164.914 19.9531 165.537 17.533 167.449C17.2398 167.681 16.8976 167.212 17.1903 166.98C21.4008 163.653 27.173 164.178 31.8117 161.786C33.9761 160.67 35.8174 158.894 36.2965 156.426C36.7154 154.268 36.1988 152.063 35.9253 149.921C35.638 147.671 35.7372 145.498 36.5217 143.352C37.3241 141.156 38.6554 139.178 40.138 137.386C43.5303 133.349 47.5361 129.87 52.0087 127.078C57.0955 123.862 62.6946 121.541 68.5639 120.214C68.9272 120.132 68.9845 120.71 68.6235 120.791Z" fill="white"/>
<path d="M43.3489 134.287C42.1427 132.89 41.4719 131.11 41.4565 129.265C41.4411 127.419 42.0819 125.628 43.2646 124.212C43.5049 123.926 43.9601 124.286 43.7195 124.572C42.6157 125.889 42.019 127.558 42.0369 129.276C42.0547 130.995 42.6861 132.65 43.817 133.944C44.0625 134.225 43.5929 134.566 43.3489 134.287Z" fill="white"/>
<path d="M36.1985 148.522C39.9573 148.83 43.694 147.71 46.6636 145.384C46.9577 145.153 47.3 145.622 47.0063 145.852C43.9116 148.267 40.0205 149.425 36.1098 149.096C35.737 149.064 35.8278 148.491 36.1985 148.522Z" fill="white"/>
<path d="M57.2142 124.622C57.5683 125.26 58.0752 125.8 58.6894 126.193C59.3036 126.586 60.0057 126.82 60.7329 126.875C61.1058 126.902 61.0146 127.475 60.6441 127.449C59.8411 127.385 59.0659 127.125 58.3864 126.692C57.7069 126.259 57.1437 125.666 56.746 124.965C56.703 124.902 56.6855 124.825 56.6972 124.75C56.7088 124.675 56.7487 124.607 56.8087 124.56C56.8709 124.515 56.9484 124.496 57.0243 124.508C57.1003 124.519 57.1685 124.561 57.2142 124.622Z" fill="white"/>
<path d="M194.587 11.4992C194.267 10.553 190.25 7.33651 192.711 6.79589L194.73 9.4885L204.011 0.204468L204.944 1.13823L194.587 11.4992Z" fill="#0063F4"/>
<path d="M194.587 43.0687C194.267 42.1225 190.25 38.9061 192.711 38.3655L194.73 41.0581L204.011 31.774L204.944 32.7078L194.587 43.0687Z" fill="#0063F4"/>
<path d="M194.587 75.0893C194.267 74.143 190.25 70.9266 192.711 70.386L194.73 73.0786L204.011 63.7946L204.944 64.7283L194.587 75.0893Z" fill="#0063F4"/>
<path d="M186.041 49.2015C187.623 49.2015 188.905 47.9188 188.905 46.3366C188.905 44.7543 187.623 43.4717 186.041 43.4717C184.459 43.4717 183.177 44.7543 183.177 46.3366C183.177 47.9188 184.459 49.2015 186.041 49.2015Z" fill="#3F3D56"/>
<path d="M186.041 17.974C187.623 17.974 188.905 16.6913 188.905 15.1091C188.905 13.5268 187.623 12.2441 186.041 12.2441C184.459 12.2441 183.177 13.5268 183.177 15.1091C183.177 16.6913 184.459 17.974 186.041 17.974Z" fill="#3F3D56"/>
<path d="M259.5 8.51978H213.391V9.09276H259.5V8.51978Z" fill="#3F3D56"/>
<path d="M187.473 82.4901C189.055 82.4901 190.337 81.2074 190.337 79.6252C190.337 78.0429 189.055 76.7603 187.473 76.7603C185.891 76.7603 184.609 78.0429 184.609 79.6252C184.609 81.2074 185.891 82.4901 187.473 82.4901Z" fill="#3F3D56"/>
<path d="M259.5 40.0892H213.391V40.6622H259.5V40.0892Z" fill="#3F3D56"/>
<path d="M259.5 72.1099H213.391V72.6828H259.5V72.1099Z" fill="#3F3D56"/>
<path d="M201.821 79.358H187.501V64.7469H197.238V65.3199H188.074V78.785H201.248V72.1957H201.821V79.358Z" fill="#3F3D56"/>
<path d="M201.821 47.2711H187.501V32.66H197.238V33.233H188.074V46.6981H201.248V40.1088H201.821V47.2711Z" fill="#3F3D56"/>
<path d="M201.821 14.611H187.501V0H197.238V0.572982H188.074V14.0381H201.248V7.44877H201.821V14.611Z" fill="#3F3D56"/>
<path d="M108.327 52.076C108.327 52.076 104.5 68.2402 109.178 68.2402C113.855 68.2402 124.911 49.9491 124.911 49.9491L121.084 45.27L114.215 54.8102L113.855 49.9491L108.327 52.076Z" fill="#A0616A"/>
<path d="M123.891 50.6518C125.947 50.6518 127.614 48.9843 127.614 46.9274C127.614 44.8705 125.947 43.203 123.891 43.203C121.835 43.203 120.168 44.8705 120.168 46.9274C120.168 48.9843 121.835 50.6518 123.891 50.6518Z" fill="#A0616A"/>
<path d="M105.082 162.168L110.038 162.167L112.396 143.045L105.081 143.046L105.082 162.168Z" fill="#A0616A"/>
<path d="M104.908 167.339L120.147 167.339V167.146C120.147 165.572 119.522 164.063 118.41 162.95C117.298 161.837 115.789 161.212 114.216 161.212H114.215L111.432 159.1L106.238 161.213L104.908 161.213L104.908 167.339Z" fill="#2F2E41"/>
<path d="M51.7747 155.983L56.2088 158.196L66.8545 142.14L60.31 138.873L51.7747 155.983Z" fill="#A0616A"/>
<path d="M49.3097 160.532L62.9457 167.339L63.0317 167.167C63.7342 165.759 63.8487 164.129 63.3501 162.637C62.8516 161.144 61.7807 159.911 60.3732 159.208L60.3729 159.208L58.8252 156.074L53.2348 155.644L52.0445 155.05L49.3097 160.532Z" fill="#2F2E41"/>
<path d="M163.699 167.358H0.5V168H163.699V167.358Z" fill="#CCCCCC"/>
<path d="M73.042 81.4001C73.042 81.4001 71.0616 105.221 70.6364 110.326C70.3448 113.526 69.6298 116.673 68.5103 119.684C68.5103 119.684 67.6598 121.386 67.6598 123.087L58.0214 140.61C58.0214 140.61 55.0761 142.776 55.5013 144.477C55.9265 146.179 53.7256 147.199 53.7256 147.199L63.8757 149.156C63.8757 149.156 63.4504 147.88 64.7261 147.455C66.0018 147.029 67.0172 143.34 67.0172 143.34L81.2669 120.109L91.4723 98.8408C91.4723 98.8408 97.4254 117.983 98.701 120.109C98.701 120.109 103.378 143.93 104.229 146.057C105.079 148.184 105.505 148.184 105.079 149.035C104.654 149.886 104.654 150.736 105.079 151.162C105.505 151.587 113.584 151.162 113.584 151.162L111.458 120.96L107.631 84.8035L88.0705 78.8483L73.042 81.4001Z" fill="#2F2E41"/>
<path d="M92.1926 24.5328C97.1243 24.5328 101.122 20.5334 101.122 15.5999C101.122 10.6665 97.1243 6.66711 92.1926 6.66711C87.2609 6.66711 83.2629 10.6665 83.2629 15.5999C83.2629 20.5334 87.2609 24.5328 92.1926 24.5328Z" fill="#A0616A"/>
<path d="M108.481 37.5871L97.8509 31.1443C97.8509 31.1443 97.5563 27.1435 94.5275 26.9553C93.0069 26.8608 90.725 26.7163 87.3006 26.4954C86.5769 26.4487 86.0885 30.4095 85.2591 30.3558L74.0381 33.3334L75.739 62.2587C75.739 62.2587 73.1877 73.7438 74.0381 75.8707C74.8886 77.9975 71.912 78.8483 72.7624 79.2737C73.6129 79.699 72.7624 82.6767 72.7624 82.6767C72.7624 82.6767 89.3461 91.1841 107.631 84.8035L105.93 79.2737C106.161 78.5508 106.205 77.7808 106.056 77.0365C105.907 76.2922 105.571 75.5981 105.079 75.0199C105.079 75.0199 106.78 72.4677 104.654 70.3408C104.654 70.3408 105.505 66.5125 103.378 64.811L102.953 58.8557L104.229 55.8781L108.481 37.5871Z" fill="#E6E6E6"/>
<path d="M84.4439 20.703L84.1943 20.123C84.1622 20.0481 81.0042 12.58 83.8033 7.97346C85.0991 5.84086 87.4552 4.63684 90.806 4.39512C96.049 4.01588 99.6374 5.26003 101.474 8.09041C101.782 8.5701 101.955 9.12394 101.976 9.69371C101.996 10.2635 101.862 10.8281 101.588 11.3283C101.315 11.8284 100.911 12.2456 100.421 12.5359C99.9304 12.8263 99.3708 12.9791 98.8009 12.9782H98.7304L97.7671 11.7269L97.711 11.8486C97.3622 12.6035 96.5612 13.0167 95.6231 12.9262C95.4635 12.9147 95.3221 13.0525 95.2086 13.3474C95.1704 13.4764 95.0982 13.5927 94.9995 13.6842C94.9009 13.7756 94.7794 13.8388 94.648 13.8671C93.9548 14.0021 92.9667 13.1286 92.5244 12.6933C92.5073 12.7935 92.469 12.8888 92.4119 12.9729C92.3548 13.057 92.2803 13.1279 92.1935 13.1807C91.7274 13.4497 91.0021 13.0983 90.7939 12.9864C89.1353 13.3389 88.0616 13.2446 87.6016 12.7064C87.2898 14.9135 86.6205 18.886 85.818 19.1062C85.7341 19.1255 85.6463 19.1173 85.5674 19.0828C85.4885 19.0483 85.4228 18.9894 85.38 18.9147C85.1868 18.6637 85.0141 18.5387 84.9063 18.5738C84.6452 18.6569 84.4911 19.5169 84.469 20.072L84.4439 20.703Z" fill="#2F2E41"/>
<path d="M103.804 38.0125L108.046 37.3231C111.101 40.26 113.183 44.0639 114.009 48.2215C115.285 55.0274 115.71 56.3036 115.71 56.3036L105.505 58.8558L99.9767 48.2215L103.804 38.0125Z" fill="#E6E6E6"/>
<path d="M84.9814 46.8649L82.36 80.1077L149.256 85.3865L151.878 52.1438L84.9814 46.8649Z" fill="white"/>
<path d="M92.1284 49.4405C90.4913 48.271 88.4128 48.1865 87.6188 48.2033C87.861 48.9597 88.6138 50.8996 90.2508 52.0696C91.8919 53.2421 93.9679 53.324 94.7607 53.3077C94.5185 52.5516 93.7657 50.6108 92.1284 49.4405Z" fill="#0063F4"/>
<path d="M98.5866 70.5934L87.845 69.7458C87.5276 69.7207 87.2084 69.7585 86.9056 69.8568C86.6028 69.9552 86.3223 70.1123 86.0802 70.3191C85.838 70.5259 85.639 70.7783 85.4944 71.0621C85.3498 71.3458 85.2625 71.6553 85.2375 71.9728C85.2124 72.2903 85.2502 72.6096 85.3485 72.9125C85.4468 73.2155 85.6038 73.496 85.8106 73.7382C86.0173 73.9805 86.2697 74.1796 86.5533 74.3242C86.837 74.4689 87.1463 74.5562 87.4637 74.5812L98.2053 75.4289C98.8463 75.4795 99.4811 75.2732 99.9701 74.8556C100.459 74.438 100.762 73.8431 100.813 73.2019C100.863 72.5607 100.657 71.9256 100.24 71.4364C99.8223 70.9472 99.2276 70.644 98.5866 70.5934Z" fill="#0063F4"/>
<path d="M149.241 48.9126L89.0156 44.1597C88.3151 44.1045 87.6106 44.1879 86.9423 44.4051C86.274 44.6223 85.6551 44.969 85.1207 45.4255C84.5864 45.882 84.1472 46.4393 83.8282 47.0656C83.5092 47.6919 83.3167 48.3749 83.2615 49.0757L80.9454 78.4269C80.834 79.8425 81.2892 81.2444 82.2109 82.3243C83.1326 83.4042 84.4452 84.0738 85.8603 84.1858L146.085 88.9387C146.786 88.9939 147.49 88.9105 148.158 88.6933C148.827 88.4761 149.446 88.1294 149.98 87.6729C150.514 87.2164 150.954 86.6591 151.273 86.0328C151.592 85.4065 151.784 84.7235 151.839 84.0227L154.04 56.1256L154.085 55.5556L154.155 54.6687C154.21 53.968 154.127 53.2632 153.909 52.5947C153.692 51.9262 153.346 51.307 152.889 50.7725C152.433 50.238 151.876 49.7986 151.25 49.4795C150.624 49.1604 149.941 48.9678 149.241 48.9126ZM147.462 74.4498L147.081 79.2854C147.011 80.1394 146.606 80.9311 145.954 81.4873C145.303 82.0436 144.457 82.3191 143.603 82.2537L135.546 81.6186C134.692 81.5488 133.901 81.1437 133.345 80.4919C132.789 79.8401 132.514 78.9945 132.579 78.1401L132.961 73.3045C133.031 72.4506 133.436 71.6591 134.087 71.1029C134.739 70.5468 135.584 70.2711 136.438 70.3362L144.492 70.9721C145.346 71.0421 146.137 71.4471 146.694 72.0986C147.25 72.7501 147.526 73.5953 147.462 74.4498ZM84.7045 71.9284C84.767 71.1459 85.1372 70.4202 85.7339 69.9104C86.3307 69.4007 87.1052 69.1485 87.8875 69.2093L98.6287 70.0575C99.0167 70.0874 99.395 70.1936 99.742 70.3699C100.089 70.5462 100.398 70.7892 100.651 71.0849C100.904 71.3807 101.096 71.7234 101.217 72.0936C101.337 72.4637 101.384 72.854 101.354 73.2421C101.323 73.6303 101.217 74.0086 101.04 74.3556C100.864 74.7025 100.621 75.0113 100.325 75.2642C100.029 75.5171 99.6864 75.7093 99.3163 75.8296C98.9461 75.9499 98.556 75.9961 98.168 75.9655L98.1624 75.9669L87.4212 75.1187C87.0333 75.0881 86.6552 74.9812 86.3086 74.8042C85.9621 74.6272 85.6538 74.3835 85.4014 74.0872C85.1491 73.7908 84.9576 73.4476 84.838 73.0772C84.7185 72.7068 84.6731 72.3164 84.7045 71.9284ZM87.004 48.0116L86.9306 47.711L87.2395 47.6827C87.3603 47.6697 90.2176 47.4131 92.4418 49.0024C94.666 50.5917 95.348 53.3802 95.3776 53.4969L95.4483 53.7981L95.14 53.8293C94.7024 53.8618 94.2629 53.8589 93.8258 53.8206C92.4353 53.7391 91.0922 53.2854 89.937 52.5067C87.7129 50.9174 87.0308 48.1289 87.004 48.0116Z" fill="#0063F4"/>
<path d="M138.426 77.6567L134.935 77.3812C134.686 77.362 134.44 77.4424 134.25 77.6048C134.06 77.7672 133.943 77.9983 133.923 78.2474C133.903 78.4965 133.983 78.7432 134.145 78.9333C134.307 79.1235 134.538 79.2416 134.787 79.2617L138.278 79.5371C138.527 79.5564 138.774 79.4759 138.963 79.3135C139.153 79.1511 139.271 78.92 139.29 78.671C139.31 78.4219 139.23 78.1752 139.068 77.985C138.906 77.7948 138.675 77.6768 138.426 77.6567Z" fill="#0063F4"/>
<path d="M144.871 78.1653L141.38 77.8898C141.131 77.8708 140.885 77.9513 140.695 78.1137C140.506 78.2761 140.388 78.5071 140.369 78.7561C140.349 79.005 140.429 79.2516 140.591 79.4417C140.753 79.6319 140.983 79.75 141.232 79.7703L144.723 80.0458C144.972 80.0648 145.218 79.9843 145.408 79.8219C145.598 79.6595 145.715 79.4285 145.735 79.1795C145.754 78.9306 145.674 78.684 145.513 78.4938C145.351 78.3037 145.12 78.1856 144.871 78.1653Z" fill="#0063F4"/>
<path d="M138.617 75.239L135.126 74.9636C134.877 74.9445 134.631 75.025 134.441 75.1874C134.251 75.3498 134.134 75.5808 134.114 75.8298C134.095 76.0788 134.174 76.3253 134.336 76.5155C134.498 76.7056 134.729 76.8238 134.978 76.844L138.469 77.1195C138.718 77.1387 138.964 77.0583 139.154 76.8959C139.344 76.7335 139.461 76.5024 139.481 76.2533C139.501 76.0042 139.421 75.7575 139.259 75.5674C139.097 75.3772 138.866 75.2591 138.617 75.239Z" fill="#0063F4"/>
<path d="M145.062 75.7476L141.571 75.4722C141.322 75.453 141.075 75.5334 140.886 75.6958C140.696 75.8582 140.578 76.0893 140.559 76.3383C140.539 76.5874 140.619 76.8341 140.781 77.0243C140.943 77.2144 141.174 77.3325 141.423 77.3526L144.914 77.6281C145.163 77.6473 145.409 77.5669 145.599 77.4045C145.789 77.2421 145.906 77.011 145.926 76.7619C145.946 76.5128 145.866 76.2661 145.704 76.076C145.542 75.8858 145.311 75.7677 145.062 75.7476Z" fill="#0063F4"/>
<path d="M138.808 72.8212L135.317 72.5458C135.068 72.5265 134.821 72.607 134.631 72.7694C134.441 72.9318 134.324 73.1629 134.304 73.412C134.285 73.661 134.365 73.9077 134.527 74.0979C134.689 74.2881 134.919 74.4061 135.168 74.4262L138.659 74.7017C138.908 74.7207 139.155 74.6402 139.344 74.4778C139.534 74.3154 139.651 74.0844 139.671 73.8355C139.691 73.5865 139.611 73.3399 139.449 73.1498C139.287 72.9596 139.056 72.8415 138.808 72.8212Z" fill="#0063F4"/>
<path d="M145.253 73.3299L141.762 73.0544C141.513 73.0354 141.266 73.1159 141.077 73.2783C140.887 73.4406 140.769 73.6717 140.75 73.9206C140.73 74.1696 140.81 74.4162 140.972 74.6063C141.134 74.7964 141.364 74.9146 141.613 74.9348L145.104 75.2103C145.353 75.2293 145.6 75.1488 145.789 74.9864C145.979 74.824 146.096 74.593 146.116 74.3441C146.136 74.0951 146.056 73.8485 145.894 73.6584C145.732 73.4683 145.501 73.3501 145.253 73.3299Z" fill="#0063F4"/>
<path d="M82.3663 58.3368L82.3214 58.9082L153.018 64.4637L153.062 63.8922L82.3663 58.3368Z" fill="white"/>
<path d="M154.085 55.5555L154.04 56.1257L151.58 55.9326L125.366 53.8727L125.413 53.302L151.624 55.3624L154.085 55.5555Z" fill="#3F3D56"/>
<path d="M67.6598 49.4975C67.6598 49.4975 63.8328 65.6617 68.5102 65.6617C73.1877 65.6617 84.2435 47.3706 84.2435 47.3706L80.4165 42.6915L73.5474 52.2317L73.1877 47.3706L67.6598 49.4975Z" fill="#A0616A"/>
<path d="M83.2237 48.0734C85.2799 48.0734 86.9468 46.4059 86.9468 44.349C86.9468 42.2921 85.2799 40.6246 83.2237 40.6246C81.1675 40.6246 79.5006 42.2921 79.5006 44.349C79.5006 46.4059 81.1675 48.0734 83.2237 48.0734Z" fill="#A0616A"/>
<path d="M77.1357 35.8856L74.5844 33.3334C74.5844 33.3334 69.4817 36.311 69.0565 39.2886C68.6313 42.2662 66.5052 51.6244 66.5052 51.6244L74.3718 52.2625L76.9231 48.4341L77.1357 35.8856Z" fill="#E6E6E6"/>
</g>
<defs>
<clipPath id="clip0_0_538">
<rect width="259" height="168" fill="white" transform="translate(0.5)"/>
</clipPath>
</defs>
</svg>
