<svg width="260" height="254" viewBox="0 0 260 254" fill="none" xmlns="http://www.w3.org/2000/svg">
<g clip-path="url(#clip0_0_265)">
<path d="M125.007 253.152L87.6459 253.379L90.0884 216.249L120.976 216.224L125.007 253.152Z" fill="#E5E5E4"/>
<path d="M115.202 216.46C115.171 216.461 115.164 216.05 115.061 215.32C114.957 214.592 114.779 213.532 114.315 212.302C113.863 211.078 113.122 209.653 111.87 208.464C110.642 207.255 108.78 206.491 106.792 206.499C104.808 206.516 102.936 207.259 101.689 208.44C100.424 209.618 99.7165 211.064 99.2883 212.295C98.8579 213.537 98.6809 214.596 98.5635 215.323C98.4561 216.054 98.4146 216.462 98.3901 216.46C98.3796 216.459 98.3784 216.356 98.3854 216.161C98.3895 215.966 98.4123 215.678 98.4461 215.309C98.5279 214.572 98.6733 213.498 99.0845 212.226C99.4939 210.967 100.196 209.471 101.498 208.235C102.787 206.992 104.732 206.212 106.791 206.195C108.852 206.184 110.801 206.994 112.063 208.26C113.349 209.505 114.083 210.975 114.517 212.229C114.963 213.49 115.11 214.569 115.179 215.307C115.211 215.677 115.222 215.966 115.218 216.161C115.218 216.357 115.212 216.46 115.202 216.46Z" fill="#D7D9D9"/>
<path d="M96.8581 216.46C96.9416 216.463 96.6595 224.721 96.2273 234.902C95.7945 245.086 95.3764 253.336 95.2923 253.333C95.2087 253.329 95.4908 245.073 95.923 234.889C96.3552 224.708 96.774 216.456 96.8581 216.46Z" fill="#D7D9D9"/>
<path d="M17.5639 209.257C15.5372 207.984 13.2151 207.185 10.8345 206.941C9.73528 206.828 8.53389 206.86 7.65197 207.526C7.46449 207.668 7.28226 207.877 7.32373 208.107C7.35469 208.277 7.49836 208.401 7.63503 208.505C10.3731 210.594 14.5146 210.857 17.5639 209.257Z" fill="#D7D9D9"/>
<path d="M17.391 209.066C15.8678 207.878 14.3358 206.68 13.0451 205.243C11.7543 203.804 10.7053 202.097 10.3199 200.203C10.2031 199.629 10.1669 198.973 10.5354 198.517C14 201.223 16.7211 204.722 17.391 209.066Z" fill="#D7D9D9"/>
<path d="M17.5283 209.231C17.2672 207.336 17.1732 205.387 17.6083 203.524C18.044 201.662 19.0573 199.879 20.6483 198.816C21.2469 200.215 20.9894 201.827 20.5677 203.29C19.9159 205.549 18.8938 207.702 17.554 209.635" fill="#D7D9D9"/>
<path d="M20.9244 215.316C18.8627 215.567 17.0668 216.654 15.5278 218.048C13.9883 219.441 12.8937 221.32 12.4405 223.347C14.4631 223.222 16.1784 221.796 17.4231 220.196C18.6671 218.597 19.5291 216.843 20.8958 215.348" fill="#D7D9D9"/>
<path d="M21.6616 216.29C20.0011 212.199 20.6027 207.27 23.1988 203.699C24.3733 207.878 23.9423 212.597 21.6616 216.29Z" fill="#D7D9D9"/>
<path d="M26.1494 221.633C24.2781 221.517 22.3759 221.963 20.7516 222.898C19.1268 223.833 17.7858 225.254 16.9466 226.93C16.8327 227.159 16.7322 227.448 16.8846 227.652C17.0172 227.829 17.2742 227.846 17.495 227.831C19.3085 227.714 20.9158 226.623 22.2421 225.38C23.5685 224.138 24.7244 222.702 26.1897 221.628" fill="#D7D9D9"/>
<path d="M26.0063 221.342C25.0409 218.253 24.9807 214.889 25.8352 211.768C26.1722 210.535 26.7387 209.238 27.8782 208.66C27.9752 208.611 28.0885 208.567 28.1907 208.605C28.2876 208.642 28.3437 208.741 28.3881 208.834C28.794 209.681 28.912 210.643 28.8699 211.581C28.8285 212.519 28.634 213.443 28.4395 214.361C28.0809 216.061 27.8899 217.887 26.9577 219.353C26.7364 219.701 26.5419 220.077 26.3649 220.45C26.1885 220.822 26.1874 220.953 26.0256 221.249" fill="#D7D9D9"/>
<path d="M37.8842 223.112C37.0046 219.764 37.9385 215.706 40.0481 212.962C40.2035 212.76 40.4091 212.543 40.6631 212.567C41.0515 212.603 41.152 213.12 41.1344 213.51C40.982 216.931 39.8408 220.302 37.8842 223.112Z" fill="#D7D9D9"/>
<path d="M38.9554 223.844C43.0221 224.902 47.6881 223.873 51.0709 221.38C49.0659 220.364 46.7028 220.074 44.512 220.574C42.3212 221.076 40.3191 222.057 38.9554 223.844Z" fill="#D7D9D9"/>
<path d="M39.8582 221.615C42.136 217.901 46.503 215.477 50.8542 215.257C50.3525 217.026 48.8982 218.402 47.2576 219.233C45.617 220.064 43.7848 220.426 41.9795 220.776C41.2775 220.913 40.3138 221.063 39.8582 221.615Z" fill="#D7D9D9"/>
<path d="M38.1108 210.799C38.7275 208.686 39.3478 206.554 39.5172 204.36C39.6866 202.165 39.3735 199.874 38.2346 197.99C36.1069 202.107 35.8914 206.918 38.0471 211.02" fill="#D7D9D9"/>
<path d="M45.2742 207.179C47.7623 202.657 52.8382 199.045 57.975 198.538C55.9933 203.472 50.5896 207.285 45.2742 207.179Z" fill="#D7D9D9"/>
<path d="M43.7089 208.065C47.4194 208.63 50.5809 211 54.0484 212.437C54.7901 212.744 55.5903 212.989 56.3863 212.885C57.1818 212.78 57.9674 212.246 58.1455 211.464C58.2938 210.814 57.9983 210.124 57.5317 209.647C57.0656 209.171 56.4494 208.874 55.8338 208.618C52.0568 207.045 48.0064 207.006 44.0278 207.959" fill="#D7D9D9"/>
<path d="M41.5613 210.668C42.4012 210.908 42.6885 211.343 43.3538 211.909C45.6105 213.832 48.3176 215.222 51.1946 215.938C51.4943 216.012 51.8867 216.042 52.0351 215.771C52.1653 215.535 52.0012 215.248 51.8324 215.038C50.6269 213.53 48.9081 212.498 47.0981 211.824C45.2887 211.15 43.7211 210.338 41.5613 210.512" fill="#D7D9D9"/>
<path d="M39.1381 194.949C42.1553 197.765 46.4054 199.211 50.5148 198.819C50.7017 198.802 50.9055 198.772 51.0323 198.633C51.3191 198.322 50.9751 197.841 50.6416 197.581C47.2967 194.973 43.2457 193.892 39.1381 194.949Z" fill="#D7D9D9"/>
<path d="M42.0111 193.897C45.9996 190.907 51.4692 190.005 56.207 191.555C54.4192 193.317 51.9388 194.265 49.4425 194.525C46.9457 194.785 44.446 194.508 42.0111 193.897Z" fill="#D7D9D9"/>
<path d="M40.8692 186.674C40.541 183.336 40.7542 180.7 40.5223 177.346C40.5036 177.078 40.4458 176.756 40.1952 176.659C39.8466 176.525 39.5551 176.954 39.4406 177.31C38.4466 180.402 38.9903 183.948 40.8646 186.601" fill="#D7D9D9"/>
<path d="M40.6292 187.043C42.8918 185.644 44.5896 183.816 46.159 181.668C47.2517 180.174 48.1722 178.383 47.924 176.549C46.3903 176.518 44.9325 177.364 43.9349 178.53C42.9373 179.695 42.344 181.152 41.9012 182.621C41.4585 184.09 41.1484 185.6 40.6292 187.043Z" fill="#D7D9D9"/>
<path d="M46.0626 185.534C51.0282 183.697 55.6615 180.965 59.6722 177.508C58.0462 176.853 56.1848 177.245 54.56 177.901C50.8466 179.401 47.8124 181.931 45.9914 185.497" fill="#D7D9D9"/>
<path d="M42.1565 188.869C44.6691 189.144 47.2214 189.323 49.7141 188.906C52.1642 188.497 54.4794 187.526 56.7688 186.562C56.9586 186.482 57.1648 186.386 57.2483 186.198C57.3383 185.993 57.2419 185.745 57.076 185.595C56.9108 185.444 56.69 185.373 56.4745 185.312C53.9858 184.616 51.2998 184.942 48.8503 185.768C46.4013 186.594 44.394 187.575 42.1565 188.869Z" fill="#D7D9D9"/>
<path d="M27.8111 195.063C26.0969 191.603 26.2084 187.565 27.689 183.999C28.7315 185.587 28.8589 187.61 28.6679 189.5C28.4775 191.39 27.9022 193.335 27.8648 195.235" fill="#D7D9D9"/>
<path d="M20.9636 191.609C16.6843 191.527 12.4032 193.351 9.49698 196.494C11.6334 196.829 13.833 196.279 15.7761 195.33C17.7187 194.381 19.4451 193.05 21.1564 191.729" fill="#D7D9D9"/>
<path d="M16.3601 190.069C14.2663 189.9 12.2519 189.641 10.2387 190.257C8.22603 190.874 6.39386 192.274 5.57327 194.213C7.5316 194.434 9.51678 193.943 11.3122 193.13C13.1069 192.316 14.7388 191.19 16.3601 190.069Z" fill="#D7D9D9"/>
<path d="M23.176 190.14C21.293 188.906 19.3586 187.649 17.1655 187.138C14.973 186.627 12.4312 187.004 10.9022 188.657C12.6777 189.699 14.8311 189.822 16.8893 189.821C18.948 189.819 21.4711 189.796 23.4114 190.482" fill="#D7D9D9"/>
<path d="M23.1871 190.239C19.9672 187.078 18.7471 181.398 20.0426 177.075C22.5732 180.921 23.7069 185.665 23.1871 190.239Z" fill="#D7D9D9"/>
<path d="M32.0414 181.281C32.6482 179.87 33.0757 178.388 33.62 176.951C34.165 175.514 34.8425 174.1 35.8716 172.959C36.9012 171.817 38.3246 170.968 39.8595 170.892C38.8987 175.242 36.0088 179.13 32.1202 181.303" fill="#D7D9D9"/>
<path d="M30.4393 183.148C29.4341 181.764 28.273 179.887 26.9105 178.855C25.5473 177.822 23.7729 177.198 22.1101 177.594C23.8015 180.617 26.9975 182.749 30.4393 183.148Z" fill="#D7D9D9"/>
<path d="M30.7593 181.396C30.1011 179.722 29.4376 178.031 29.1713 176.252C28.9044 174.473 29.0667 172.573 29.9761 171.022C31.744 174.362 32.3129 177.949 30.8498 181.434" fill="#D7D9D9"/>
<path d="M32.0577 171.022C33.0587 167.71 36.0911 165.271 39.3653 164.152C39.7782 164.011 40.2157 163.893 40.6467 163.959C41.0778 164.026 41.5006 164.321 41.5911 164.748C41.7109 165.311 41.2454 165.816 40.8073 166.19C38.258 168.371 35.2606 170.025 32.0577 171.022Z" fill="#D7D9D9"/>
<path d="M32.0933 168.313C32.2207 166.177 32.3538 164.011 33.0488 161.988C33.7433 159.964 35.0819 158.066 37.0291 157.18C37.3609 159.337 36.4089 161.483 35.2612 163.339C34.1136 165.195 32.7305 166.947 32.0414 169.017" fill="#D7D9D9"/>
<path d="M32.0413 169.783C31.2137 167.369 31.1284 164.303 29.6829 162.2C28.6725 160.73 27.0546 159.729 26.1838 158.172C25.6056 159.626 25.7826 161.301 26.3877 162.745C26.9922 164.188 27.9915 165.431 29.0614 166.573C30.1308 167.715 31.0466 168.575 32.0413 169.783Z" fill="#D7D9D9"/>
<path d="M32.0577 240.867C31.9928 240.867 31.9373 224.765 31.9327 204.906C31.9286 185.041 31.9771 168.942 32.0413 168.942C32.1056 168.942 32.161 185.041 32.1657 204.906C32.1704 224.765 32.1213 240.867 32.0577 240.867Z" fill="#D7D9D9"/>
<path d="M46.1286 192.633C46.1333 192.649 45.9178 192.729 45.5236 192.86C45.0884 193.007 44.5289 193.196 43.8573 193.423C42.4526 193.901 40.5229 194.594 38.4279 195.453C36.354 196.342 34.398 197.065 33.2842 198.03C32.7276 198.506 32.4087 199.021 32.251 199.397C32.091 199.775 32.0624 200.007 32.0413 200.002C32.0332 200.001 32.0355 199.943 32.0483 199.833C32.0664 199.725 32.0945 199.563 32.1663 199.364C32.3024 198.967 32.6125 198.416 33.175 197.906C33.7351 197.396 34.5142 196.937 35.4066 196.52C36.2996 196.103 37.289 195.669 38.3397 195.237C40.4406 194.376 42.3855 193.706 43.8065 193.266C44.5161 193.045 45.0955 192.881 45.4973 192.774C45.8997 192.669 46.1246 192.618 46.1286 192.633Z" fill="#D7D9D9"/>
<path d="M50.7415 181.303C50.7467 181.31 50.6877 181.372 50.5715 181.484C50.4343 181.614 50.2637 181.774 50.0546 181.97C49.5751 182.406 48.9222 183 48.1261 183.723C46.4604 185.205 44.2019 187.216 41.7056 189.439C39.1995 191.67 37.0338 193.802 35.5328 195.407C34.7811 196.208 34.1895 196.872 33.7853 197.335C33.5973 197.551 33.4431 197.726 33.3192 197.868C33.2106 197.989 33.151 198.05 33.1446 198.045C33.1382 198.04 33.1861 197.969 33.2825 197.838C33.38 197.709 33.5219 197.516 33.7158 197.277C34.0995 196.795 34.6737 196.113 35.4119 195.295C36.8855 193.657 39.0394 191.5 41.5509 189.265C44.0658 187.039 46.3541 185.04 48.0169 183.599C48.8334 182.898 49.5027 182.324 49.9951 181.902C50.2153 181.719 50.3957 181.57 50.5406 181.449C50.6667 181.348 50.7362 181.298 50.7415 181.303Z" fill="#D7D9D9"/>
<path d="M39.0003 191.707C38.9343 191.678 39.4582 190.469 39.9798 188.941C40.5066 187.412 40.7542 186.122 40.8208 186.132C40.8816 186.139 40.7332 187.467 40.2 189.015C39.9377 189.788 39.6486 190.468 39.4209 190.95C39.1925 191.433 39.029 191.72 39.0003 191.707Z" fill="#D7D9D9"/>
<path d="M32.0723 201.454C32.0589 201.463 31.9222 201.303 31.6857 201.005C31.424 200.669 31.0923 200.243 30.6963 199.737C29.8652 198.662 28.7164 197.18 27.4291 195.556C26.1401 193.934 24.9568 192.478 24.0994 191.425C23.6953 190.924 23.356 190.505 23.0885 190.174C22.8525 189.876 22.7275 189.706 22.7398 189.696C22.7515 189.686 22.8998 189.835 23.1574 190.115C23.4149 190.394 23.78 190.806 24.2256 191.319C25.1157 192.346 26.3212 193.787 27.6113 195.412C28.9003 197.037 30.0299 198.537 30.8283 199.638C31.2272 200.188 31.5449 200.637 31.7587 200.951C31.973 201.266 32.0852 201.444 32.0723 201.454Z" fill="#D7D9D9"/>
<path d="M28.9867 197.493C28.9488 197.533 28.1252 196.557 27.6942 195.073C27.3759 194.027 27.3619 193.07 27.401 192.633L27.5038 192.642C27.4577 192.828 27.4244 192.926 27.4057 192.923C27.3876 192.92 27.3864 192.816 27.4016 192.625L27.5044 192.634C27.5424 193.067 27.6078 193.991 27.9173 195.006C28.3338 196.444 29.0492 197.453 28.9867 197.493Z" fill="#D7D9D9"/>
<path d="M25.0035 192.482C24.9738 192.514 24.7086 192.18 24.1012 191.958C23.4984 191.725 22.5908 191.673 21.5956 191.759C20.5992 191.832 19.7091 192.009 19.0725 192.166C18.4353 192.323 18.0463 192.448 18.0341 192.415C18.0235 192.388 18.3944 192.208 19.0281 192.007C19.6612 191.808 20.5636 191.601 21.5781 191.527C22.585 191.44 23.5393 191.517 24.1625 191.805C24.7945 192.085 25.0246 192.476 25.0035 192.482Z" fill="#D7D9D9"/>
<path d="M24.0591 191.268C24.0416 191.304 23.5335 191.057 22.6767 190.764C21.8216 190.47 20.6027 190.161 19.2273 190.054C17.8506 189.952 16.599 190.072 15.7089 190.233C14.8177 190.392 14.2786 190.559 14.2663 190.521C14.2611 190.506 14.3919 190.451 14.6325 190.365C14.8732 190.275 15.23 190.173 15.6768 190.072C16.5698 189.867 17.8431 189.717 19.2448 189.822C20.6453 189.931 21.8812 190.272 22.7327 190.61C23.1597 190.777 23.4967 190.933 23.7204 191.058C23.9458 191.18 24.0667 191.253 24.0591 191.268Z" fill="#D7D9D9"/>
<path d="M32.0413 186.132C31.9788 186.148 31.5273 184.58 31.0326 182.63C30.5379 180.68 30.1875 179.086 30.25 179.07C30.3125 179.054 30.764 180.622 31.2587 182.573C31.7528 184.523 32.1032 186.117 32.0413 186.132Z" fill="#D7D9D9"/>
<path d="M32.1056 186.132C32.036 186.155 31.7458 185.107 30.9877 184.036C30.25 182.942 29.3085 182.392 29.343 182.338C29.3553 182.314 29.6152 182.409 29.9779 182.666C30.3411 182.918 30.7909 183.348 31.1781 183.902C31.9648 185.017 32.1616 186.129 32.1056 186.132Z" fill="#D7D9D9"/>
<path d="M32.0577 232.284C32.0325 232.287 31.9846 231.896 31.8036 231.212C31.6243 230.529 31.2861 229.559 30.7272 228.425C29.6152 226.151 27.5908 223.269 25.0181 220.382C23.7437 218.925 22.5073 217.551 21.4577 216.236C20.4064 214.923 19.542 213.671 18.9113 212.564C18.2781 211.457 17.8664 210.508 17.6258 209.838C17.5078 209.503 17.4208 209.24 17.3734 209.059C17.3226 208.879 17.2993 208.783 17.3074 208.781C17.3279 208.774 17.4453 209.149 17.7104 209.806C17.9756 210.462 18.4072 211.393 19.0532 212.481C19.6974 213.569 20.5694 214.802 21.6248 216.102C22.6784 217.403 23.9166 218.77 25.1933 220.228C27.7725 223.123 29.7921 226.042 30.8755 228.353C31.4205 229.506 31.7376 230.495 31.8912 231.191C31.966 231.539 32.0162 231.811 32.0337 231.998C32.0571 232.184 32.0652 232.282 32.0577 232.284Z" fill="#D7D9D9"/>
<path d="M44.773 217.921C44.7806 217.938 44.5371 218.061 44.1066 218.296C43.6791 218.536 43.0729 218.905 42.3778 219.438C41.6828 219.97 40.906 220.669 40.1076 221.508C39.311 222.35 38.4904 223.328 37.6529 224.375C35.9778 226.476 34.4114 228.336 33.4734 229.82C32.9974 230.557 32.6511 231.177 32.4244 231.612C32.1955 232.047 32.074 232.291 32.0571 232.284C32.0501 232.28 32.0717 232.215 32.119 232.094C32.1686 231.975 32.2358 231.795 32.3433 231.572C32.5459 231.122 32.8724 230.485 33.3344 229.732C34.2449 228.212 35.7991 226.327 37.4712 224.229C38.3105 223.18 39.141 222.2 39.9529 221.36C40.7664 220.521 41.5637 219.827 42.2791 219.306C42.9946 218.784 43.6207 218.432 44.0646 218.215C44.2854 218.104 44.4652 218.036 44.5844 217.985C44.7047 217.936 44.7695 217.914 44.773 217.921Z" fill="#D7D9D9"/>
<path d="M45.0218 222.581C45.0247 222.615 44.4839 222.68 43.6131 222.785C42.7458 222.897 41.538 223.042 40.2723 223.443C39.0119 223.853 37.9642 224.479 37.2814 225.013C36.5922 225.545 36.2669 225.986 36.2348 225.961C36.2237 225.952 36.2914 225.832 36.4433 225.636C36.594 225.439 36.841 225.176 37.1774 224.885C37.8491 224.307 38.9068 223.643 40.2011 223.221C41.4971 222.811 42.7213 222.692 43.5967 222.622C44.4752 222.558 45.0189 222.55 45.0218 222.581Z" fill="#D7D9D9"/>
<path d="M36.646 225.449C36.5724 225.407 37.2073 224.437 37.6996 223.133C38.1616 221.817 38.2702 220.663 38.3526 220.677C38.383 220.68 38.3818 220.969 38.3292 221.432C38.2743 221.894 38.1634 222.536 37.9186 223.213C37.6722 223.888 37.3498 224.453 37.1016 224.846C36.8504 225.238 36.6723 225.465 36.646 225.449Z" fill="#D7D9D9"/>
<path d="M48.8912 205.413C48.8941 205.42 48.8159 205.461 48.6658 205.532C48.4911 205.612 48.2721 205.712 48.0035 205.833C47.7138 205.957 47.3616 206.115 46.965 206.324C46.5673 206.53 46.103 206.741 45.6194 207.032C45.3741 207.171 45.1177 207.317 44.8507 207.468C44.5844 207.621 44.321 207.804 44.0407 207.979C43.4741 208.323 42.9064 208.746 42.3008 209.178C41.1157 210.077 39.8694 211.142 38.6692 212.372C37.4812 213.613 36.4591 214.896 35.6006 216.111C35.1894 216.731 34.7858 217.313 34.4617 217.891C34.2958 218.178 34.1229 218.447 33.9792 218.718C33.8367 218.99 33.7 219.252 33.5686 219.502C33.2947 219.995 33.0996 220.466 32.9081 220.871C32.7124 221.274 32.567 221.631 32.4525 221.925C32.3398 222.198 32.2481 222.42 32.1745 222.597C32.1085 222.75 32.0705 222.829 32.063 222.827C32.0554 222.824 32.0787 222.74 32.1307 222.581C32.1932 222.4 32.272 222.171 32.3684 221.893C32.47 221.593 32.6038 221.229 32.7889 220.819C32.97 220.407 33.1557 219.929 33.4215 219.427C33.5494 219.174 33.6825 218.909 33.8209 218.633C33.9617 218.357 34.1322 218.084 34.2952 217.793C34.6147 217.207 35.0147 216.618 35.4242 215.99C36.2792 214.759 37.3042 213.461 38.5021 212.21C39.7111 210.971 40.9721 209.902 42.1729 209.006C42.7867 208.575 43.3626 208.155 43.9373 207.816C44.2217 207.643 44.4898 207.464 44.7602 207.314C45.0306 207.166 45.2911 207.023 45.5405 206.887C46.0317 206.605 46.5042 206.402 46.9089 206.207C47.3131 206.008 47.6717 205.862 47.9678 205.75C48.2435 205.644 48.4689 205.558 48.6482 205.489C48.8048 205.431 48.8883 205.405 48.8912 205.413Z" fill="#D7D9D9"/>
<path d="M38.8274 212.155C38.807 212.152 38.9191 211.761 39.3811 211.331C39.8314 210.902 40.6531 210.504 41.6104 210.476C42.5647 210.451 43.3918 210.717 43.9565 210.934C44.5248 211.157 44.8548 211.338 44.8437 211.365C44.8303 211.397 44.4769 211.27 43.9028 211.089C43.3304 210.914 42.5221 210.684 41.618 210.708C40.7168 210.736 39.9394 211.083 39.488 211.456C39.0272 211.827 38.8648 212.178 38.8274 212.155Z" fill="#D7D9D9"/>
<path d="M37.3235 213.707C37.2592 213.672 37.8269 212.839 37.956 211.647C38.1049 210.457 37.744 209.517 37.8147 209.497C37.8398 209.487 37.9665 209.705 38.0757 210.097C38.1861 210.487 38.2585 211.054 38.1873 211.674C38.1143 212.294 37.9128 212.829 37.716 213.183C37.5191 213.54 37.3457 213.723 37.3235 213.707Z" fill="#D7D9D9"/>
<path d="M20.9362 234.59C21.2831 240.744 23.1374 247.003 25.99 253.33H38.3929C41.1134 247.065 42.8392 240.816 43.1464 234.59H20.9362Z" fill="#D7D9D9"/>
<path d="M41.1362 244.548C41.1362 244.613 37.0525 244.665 32.0157 244.665C26.9776 244.665 22.8945 244.613 22.8945 244.548C22.8945 244.484 26.9776 244.432 32.0157 244.432C37.0525 244.432 41.1362 244.484 41.1362 244.548Z" fill="#F9F9F9"/>
<path d="M40.8588 246.777C40.8588 246.842 37.0303 246.894 32.3088 246.894C27.5856 246.894 23.7583 246.842 23.7583 246.777C23.7583 246.713 27.5856 246.661 32.3088 246.661C37.0303 246.661 40.8588 246.713 40.8588 246.777Z" fill="#F9F9F9"/>
<path d="M26.1897 238.631C26.2539 238.631 26.3059 239.91 26.3059 241.488C26.3059 243.066 26.2539 244.345 26.1897 244.345C26.1254 244.345 26.0735 243.066 26.0735 241.488C26.0735 239.91 26.1254 238.631 26.1897 238.631Z" fill="#F9F9F9"/>
<path d="M32.8356 238.631C32.8999 238.631 32.9518 239.956 32.9518 241.589C32.9518 243.224 32.8999 244.548 32.8356 244.548C32.7714 244.548 32.7188 243.224 32.7188 241.589C32.7188 239.956 32.7714 238.631 32.8356 238.631Z" fill="#F9F9F9"/>
<path d="M39.0739 238.581C39.1382 238.581 39.1907 239.932 39.1907 241.599C39.1907 243.265 39.1382 244.616 39.0739 244.616C39.0097 244.616 38.9577 243.265 38.9577 241.599C38.9577 239.932 39.0097 238.581 39.0739 238.581Z" fill="#F9F9F9"/>
<path d="M42.7523 238.631C42.7523 238.695 37.9625 238.747 32.0554 238.747C26.146 238.747 21.3573 238.695 21.3573 238.631C21.3573 238.567 26.146 238.515 32.0554 238.515C37.9625 238.515 42.7523 238.567 42.7523 238.631Z" fill="#F9F9F9"/>
<path d="M250.666 43.5778H247.178V118.583H250.666V43.5778Z" fill="#D7D9D9"/>
<path d="M196.573 44.2081V118.637C196.573 118.665 196.595 118.687 196.623 118.687H246.597C246.625 118.687 246.647 118.665 246.647 118.637V44.2081C246.647 44.1806 246.625 44.1578 246.597 44.1578H196.623C196.595 44.1578 196.573 44.1806 196.573 44.2081Z" fill="#F0F0F0"/>
<path d="M197.203 118.107H246.017C246.045 118.107 246.067 118.085 246.067 118.057V44.7879C246.067 44.7605 246.045 44.7377 246.017 44.7377H197.203C197.175 44.7377 197.153 44.7605 197.153 44.7879V118.057C197.153 118.085 197.175 118.107 197.203 118.107ZM247.178 119.267H196.043C196.015 119.267 195.993 119.245 195.993 119.217V43.628C195.993 43.6 196.015 43.5778 196.043 43.5778H247.178C247.205 43.5778 247.228 43.6 247.228 43.628V119.217C247.228 119.245 247.205 119.267 247.178 119.267Z" fill="#E5E5E4"/>
<path d="M201.615 48.8056V113.99C201.615 114.018 201.637 114.04 201.665 114.04H241.643C241.671 114.04 241.693 114.018 241.693 113.99V48.8056C241.693 48.7782 241.671 48.7554 241.643 48.7554H201.665C201.637 48.7554 201.615 48.7782 201.615 48.8056Z" fill="#F9F9F9"/>
<path d="M232.825 93.6398H210.396C210.375 93.6398 210.358 93.6234 210.358 93.6024V67.3008C210.358 67.2804 210.375 67.2634 210.396 67.2634H232.825C232.845 67.2634 232.862 67.2804 232.862 67.3008V93.6024C232.862 93.6234 232.845 93.6398 232.825 93.6398Z" fill="#E5E5E4"/>
<path d="M231.081 90.4117C231.11 90.4964 229.999 90.9829 227.886 90.7353C226.845 90.5939 225.55 90.2196 224.294 89.2997C223.065 88.3792 221.898 86.8946 221.503 84.9105C221.093 82.9417 221.752 80.4881 223.638 78.9106C224.106 78.5193 224.652 78.1887 225.256 77.9621C225.898 77.7238 226.592 77.6449 227.281 77.729C227.965 77.8126 228.691 78.0509 229.305 78.6133C229.925 79.1757 230.264 80.1254 230.103 80.9711C229.956 81.8244 229.491 82.4785 228.991 82.9948C228.476 83.5217 227.892 83.9106 227.296 84.2435C226.086 84.9123 224.702 85.331 223.252 85.3988C221.808 85.4683 220.282 85.1716 218.942 84.4182C217.615 83.6723 216.48 82.5428 215.77 81.13C215.051 79.7341 214.821 78.0403 215.201 76.5259C215.566 75.0161 216.424 73.667 217.628 72.7319C218.233 72.2635 218.916 71.9177 219.662 71.7046C220.414 71.5118 221.189 71.4756 221.953 71.6333C222.709 71.7922 223.482 72.1642 224.032 72.8061C224.591 73.4427 224.84 74.2738 224.847 75.0278C224.859 75.7859 224.652 76.5253 224.305 77.1444C223.964 77.7647 223.505 78.2681 223.022 78.6869C222.048 79.511 220.956 80.0536 219.834 80.3806C218.713 80.703 217.563 80.7877 216.48 80.6394C215.4 80.4869 214.383 80.0898 213.561 79.5215C211.902 78.396 210.944 76.6853 210.773 75.1055C210.585 73.497 211.174 72.1771 211.806 71.3197C212.456 70.4453 213.203 69.9985 213.716 69.7935C214.242 69.5944 214.541 69.6014 214.555 69.651C214.577 69.7229 214.317 69.8385 213.89 70.1235C213.473 70.4132 212.883 70.9021 212.405 71.7203C211.938 72.5222 211.552 73.6862 211.796 74.9542C212.019 76.2169 212.883 77.5743 214.275 78.4252C215.639 79.2914 217.552 79.5145 219.389 78.9123C220.299 78.6185 221.206 78.1279 221.947 77.4645C222.683 76.8045 223.184 75.9553 223.142 75.0669C223.119 74.1763 222.558 73.5478 221.602 73.365C221.137 73.2745 220.614 73.3037 220.131 73.4345C219.651 73.5811 219.163 73.8264 218.743 74.1617C217.893 74.8298 217.251 75.8437 216.992 76.9517C216.726 78.0584 216.885 79.2318 217.421 80.2954C217.951 81.3566 218.832 82.2402 219.843 82.8126C220.85 83.3862 222.021 83.6309 223.174 83.5877C224.329 83.5462 225.462 83.2203 226.45 82.6917C226.95 82.4219 227.41 82.1176 227.758 81.7707C228.114 81.4226 228.361 81.0248 228.421 80.6896C228.486 80.3497 228.382 80.0541 228.153 79.8194C227.912 79.5805 227.502 79.4 227.069 79.3422C226.635 79.2762 226.185 79.3171 225.794 79.4508C225.363 79.598 224.962 79.8229 224.605 80.102C223.891 80.6616 223.355 81.4278 223.055 82.2379C222.749 83.0497 222.677 83.8896 222.794 84.6909C223.031 86.3 223.938 87.6316 224.938 88.4896C225.957 89.3517 227.083 89.7955 228.02 90.0274C229.923 90.4701 231.066 90.2511 231.081 90.4117Z" fill="#D7D9D9"/>
<path d="M259.767 253.326C259.767 253.41 201.609 253.478 129.885 253.478C58.1355 253.478 -0.00964355 253.41 -0.00964355 253.326C-0.00964355 253.242 58.1355 253.174 129.885 253.174C201.609 253.174 259.767 253.242 259.767 253.326Z" fill="#0C2B34"/>
<path d="M250.848 13.1721H195.81V19.7631H250.848V13.1721Z" fill="#335863"/>
<path d="M242.102 12.9817H207.078C205.339 12.9817 203.929 11.5712 203.929 9.83194C203.929 8.09264 205.339 6.68274 207.078 6.68274H242.102C243.842 6.68274 245.251 8.09264 245.251 9.83194C245.251 11.5712 243.842 12.9817 242.102 12.9817Z" fill="#0063F4"/>
<path d="M206.523 12.8831C206.495 12.8516 206.831 12.4678 207.396 11.8738C207.708 11.5532 208.043 11.2092 208.4 10.843C208.593 10.652 208.787 10.4488 208.935 10.2186C209.083 9.99087 209.168 9.72513 209.083 9.48041C209.006 9.23511 208.78 9.04821 208.543 8.90278C208.304 8.75852 208.04 8.63412 207.802 8.50621C207.35 8.26442 206.925 8.0378 206.529 7.82638C205.808 7.43097 205.372 7.16815 205.391 7.13077C205.409 7.09339 205.88 7.28847 206.626 7.63422C207.031 7.82755 207.466 8.03547 207.928 8.25624C208.172 8.37889 208.428 8.49103 208.698 8.64755C208.957 8.80466 209.251 9.02251 209.373 9.38579C209.497 9.74966 209.36 10.1264 209.185 10.3804C209.009 10.6462 208.799 10.8518 208.602 11.0363C208.227 11.3885 207.874 11.7197 207.546 12.028C206.939 12.5858 206.551 12.914 206.523 12.8831Z" fill="#0C2B34"/>
<path d="M238.848 9.63913C238.848 9.72323 232.277 9.79098 224.173 9.79098C216.066 9.79098 209.496 9.72323 209.496 9.63913C209.496 9.55503 216.066 9.48669 224.173 9.48669C232.277 9.48669 238.848 9.55503 238.848 9.63913Z" fill="#0C2B34"/>
<path d="M243.182 12.8877C243.166 12.9216 242.658 12.7434 241.863 12.3755C241.467 12.188 241 11.9474 240.521 11.6034C240.282 11.4317 240.041 11.2313 239.823 10.9878C239.713 10.8634 239.613 10.7326 239.517 10.6093C239.42 10.4785 239.3 10.3529 239.232 10.1444C239.156 9.91956 239.268 9.68594 239.377 9.55277C239.485 9.41494 239.598 9.29754 239.713 9.18541C239.944 8.9623 240.177 8.76547 240.401 8.58267C240.855 8.21997 241.252 7.90517 241.578 7.61489C242.223 7.03084 242.7 6.7394 242.725 6.78671C242.739 6.81533 242.333 7.14765 241.724 7.77317C241.418 8.0833 241.016 8.42964 240.581 8.79701C240.365 8.98391 240.139 9.1819 239.923 9.39742C239.719 9.61118 239.445 9.86583 239.523 10.058C239.609 10.2776 239.876 10.5714 240.045 10.7898C240.242 11.0158 240.465 11.2086 240.688 11.3785C241.136 11.719 241.583 11.9748 241.96 12.1839C242.721 12.5963 243.203 12.8462 243.182 12.8877Z" fill="#0C2B34"/>
<path d="M242.102 6.6582H207.078C205.339 6.6582 203.929 5.24771 203.929 3.50841C203.929 1.76911 205.339 0.359206 207.109 0.463167H242.133C243.842 0.359206 245.251 1.76911 245.251 3.50841C245.251 5.24771 243.842 6.6582 242.102 6.6582Z" fill="#0063F4"/>
<path d="M206.523 6.55948C206.495 6.52794 206.831 6.14422 207.396 5.55024C207.708 5.2296 208.043 4.88559 208.4 4.51939C208.593 4.32782 208.787 4.12516 208.935 3.89504C209.083 3.66668 209.168 3.40152 209.083 3.1568C209.006 2.9115 208.78 2.7246 208.543 2.57917C208.304 2.43491 208.04 2.31051 207.802 2.1826C207.35 1.94081 206.925 1.71419 206.529 1.50277C205.808 1.10737 205.372 0.844543 205.391 0.807164C205.409 0.769785 205.88 0.964858 206.626 1.31062C207.031 1.50394 207.466 1.71127 207.928 1.93205C208.172 2.0547 208.428 2.16742 208.698 2.32394C208.957 2.48105 209.251 2.6989 209.373 3.06218C209.497 3.42546 209.36 3.80218 209.185 4.05682C209.009 4.32257 208.799 4.52815 208.602 4.71271C208.227 5.0649 207.874 5.39605 207.546 5.70443C206.939 6.2622 206.551 6.59044 206.523 6.55948Z" fill="#0C2B34"/>
<path d="M238.848 3.31565C238.848 3.39916 232.277 3.4675 224.173 3.4675C216.066 3.4675 209.496 3.39916 209.496 3.31565C209.496 3.23154 216.066 3.16321 224.173 3.16321C232.277 3.16321 238.848 3.23154 238.848 3.31565Z" fill="#0C2B34"/>
<path d="M243.182 6.5641C243.166 6.59797 242.658 6.41984 241.863 6.05188C241.467 5.8644 241 5.62377 240.521 5.27977C240.282 5.10747 240.041 4.90773 239.823 4.66418C239.713 4.53978 239.613 4.40895 239.517 4.28571C239.42 4.15489 239.3 4.02932 239.232 3.82081C239.156 3.59537 239.268 3.36233 239.377 3.22917C239.485 3.09133 239.598 2.97394 239.713 2.8618C239.944 2.63869 240.177 2.44187 240.401 2.25906C240.855 1.89636 241.252 1.58156 241.578 1.29128C242.223 0.707234 242.7 0.415793 242.725 0.463101C242.739 0.491135 242.333 0.824044 241.724 1.44956C241.418 1.75911 241.016 2.10604 240.581 2.4734C240.365 2.6603 240.139 2.85829 239.923 3.07381C239.719 3.28757 239.445 3.54222 239.523 3.73437C239.609 3.95397 239.876 4.24775 240.045 4.46619C240.242 4.69221 240.465 4.88495 240.688 5.05491C241.136 5.39541 241.583 5.65123 241.96 5.86032C242.721 6.27266 243.203 6.52263 243.182 6.5641Z" fill="#0C2B34"/>
<path d="M241.672 6.80774C241.672 6.89184 233.85 6.96017 224.204 6.96017C214.554 6.96017 206.734 6.89184 206.734 6.80774C206.734 6.72422 214.554 6.65588 224.204 6.65588C233.85 6.65588 241.672 6.72422 241.672 6.80774Z" fill="#0C2B34"/>
<path d="M243.11 10.4738C243.168 10.4738 243.215 12.4572 243.215 14.9038C243.215 17.351 243.168 19.3338 243.11 19.3338C243.052 19.3338 243.006 17.351 243.006 14.9038C243.006 12.4572 243.052 10.4738 243.11 10.4738Z" fill="#0C2B34"/>
<path d="M247.173 18.5775H239.126V32.5141H247.173V18.5775Z" fill="white"/>
<path d="M247.238 25.853H239.192V32.5141H247.238V25.853Z" fill="#0063F4"/>
<path d="M245.866 23.5717C245.866 23.6295 244.632 23.6763 243.111 23.6763C241.589 23.6763 240.355 23.6295 240.355 23.5717C240.355 23.5139 241.589 23.4672 243.111 23.4672C244.632 23.4672 245.866 23.5139 245.866 23.5717Z" fill="#0C2B34"/>
<path d="M245.761 24.5676C245.761 24.6254 244.527 24.6721 243.006 24.6721C241.484 24.6721 240.25 24.6254 240.25 24.5676C240.25 24.5097 241.484 24.463 243.006 24.463C244.527 24.463 245.761 24.5097 245.761 24.5676Z" fill="#0C2B34"/>
<path d="M243.461 30.7697V31.2597H242.931V30.7872C242.489 30.7562 242.07 30.6283 241.813 30.4514L242.101 29.8066C242.374 29.9876 242.763 30.1114 243.121 30.1114C243.483 30.1114 243.624 30.0098 243.624 29.8597C243.624 29.3691 241.866 29.7271 241.866 28.5789C241.866 28.0924 242.215 27.6818 242.931 27.5936V27.1077H243.461V27.5848C243.788 27.6111 244.11 27.6993 244.358 27.8453L244.088 28.4948C243.792 28.3353 243.501 28.2559 243.231 28.2559C242.864 28.2559 242.732 28.3797 242.732 28.5345C242.732 29.007 244.486 28.6537 244.486 29.7931C244.486 30.2615 244.15 30.668 243.461 30.7697Z" fill="white"/>
<path d="M243.752 20.9622H240.458V22.0981H243.752V20.9622Z" fill="#0C2B34"/>
<path d="M247.173 32.5142C247.167 32.5084 247.161 32.4126 247.156 32.2339C247.151 32.0306 247.146 31.773 247.139 31.4541C247.129 30.7498 247.116 29.7762 247.1 28.5625C247.083 26.0791 247.059 22.6221 247.031 18.5776L247.173 18.7189C244.692 18.7224 241.973 18.7259 239.127 18.7294C239.092 18.7621 239.414 18.4438 239.278 18.5805V19.074L239.278 19.5687V20.5499C239.277 21.2 239.277 21.8412 239.276 22.4738C239.274 23.7371 239.271 24.9624 239.269 26.1393C239.26 28.4872 239.251 30.6388 239.243 32.5142L239.126 32.3968C241.557 32.4225 243.548 32.4441 244.966 32.4587C245.645 32.4716 246.185 32.4815 246.587 32.4885C246.962 32.4973 247.164 32.5054 247.173 32.5142C247.181 32.5224 246.995 32.5305 246.633 32.5393C246.238 32.5469 245.706 32.5568 245.038 32.5691C243.603 32.5843 241.588 32.6053 239.126 32.631L239.009 32.6322V32.5142C239.002 30.6388 238.993 28.4872 238.983 26.1393C238.981 24.9624 238.979 23.7371 238.976 22.4738C238.976 21.8412 238.975 21.2 238.975 20.5499C238.975 20.2252 238.974 19.8981 238.974 19.5687V18.5805C238.839 18.7154 239.158 18.3918 239.127 18.4257C241.973 18.4292 244.692 18.4327 247.173 18.4362H247.315L247.314 18.5776C247.286 22.6601 247.262 26.1498 247.245 28.656C247.23 29.8562 247.216 30.8193 247.207 31.5161C247.2 31.8233 247.194 32.0709 247.19 32.2666C247.184 32.4353 247.178 32.5195 247.173 32.5142Z" fill="#0C2B34"/>
<path d="M59.685 60.295H4.647V66.8861H59.685V60.295Z" fill="#335863"/>
<path d="M49.9063 60.2951H14.8825C13.1432 60.2951 11.7333 58.8852 11.7333 57.1459C11.7333 55.4066 13.1432 53.9967 14.8825 53.9967H49.9063C51.6462 53.9967 53.0561 55.4066 53.0561 57.1459C53.0561 58.8852 51.6462 60.2951 49.9063 60.2951Z" fill="#0063F4"/>
<path d="M14.3276 60.1963C14.2996 60.1654 14.636 59.7811 15.2008 59.1877C15.5126 58.867 15.8479 58.523 16.2036 58.1568C16.3975 57.9659 16.592 57.7626 16.7392 57.5325C16.8881 57.3047 16.9722 57.039 16.8875 56.7942C16.8104 56.5489 16.5844 56.3621 16.3478 56.2166C16.1084 56.0724 15.8444 55.948 15.6067 55.8201C15.1546 55.5783 14.7294 55.3516 14.3334 55.1402C13.6121 54.7448 13.1759 54.482 13.1951 54.4446C13.2138 54.4072 13.6846 54.6023 14.4304 54.9481C14.8351 55.1414 15.2703 55.3493 15.7328 55.5701C15.9764 55.6927 16.2322 55.8049 16.502 55.9614C16.7613 56.1185 17.0557 56.3364 17.1772 56.6996C17.3016 57.0635 17.1643 57.4402 16.9897 57.6943C16.8133 57.96 16.6037 58.1656 16.4062 58.3502C16.0319 58.7023 15.6791 59.0335 15.3509 59.3419C14.744 59.8991 14.3556 60.2279 14.3276 60.1963Z" fill="#0C2B34"/>
<path d="M46.6531 56.9532C46.6531 57.0373 40.0813 57.1051 31.9776 57.1051C23.8704 57.1051 17.3004 57.0373 17.3004 56.9532C17.3004 56.8691 23.8704 56.8008 31.9776 56.8008C40.0813 56.8008 46.6531 56.8691 46.6531 56.9532Z" fill="#0C2B34"/>
<path d="M50.9868 60.2011C50.9704 60.235 50.4623 60.0574 49.6674 59.6895C49.2714 59.5014 48.8036 59.2608 48.3253 58.9173C48.0864 58.7456 47.8457 58.5453 47.6273 58.3018C47.5175 58.1774 47.4176 58.0465 47.3213 57.9233C47.2249 57.7925 47.1046 57.6669 47.0363 57.4584C46.9603 57.2335 47.0725 56.9999 47.1817 56.8667C47.2886 56.7289 47.403 56.6115 47.5175 56.4994C47.7482 56.2763 47.9812 56.0794 48.2055 55.8966C48.6593 55.5339 49.0571 55.2191 49.3824 54.9289C50.0272 54.3448 50.5043 54.0534 50.53 54.1007C50.5435 54.1293 50.1376 54.4616 49.5284 55.0871C49.2224 55.3973 48.8211 55.7436 48.3854 56.111C48.1687 56.2979 47.9439 56.4959 47.7272 56.7114C47.5239 56.9251 47.25 57.1798 47.3277 57.3719C47.4135 57.5915 47.681 57.8853 47.8498 58.1038C48.0467 58.3298 48.2692 58.5225 48.4929 58.6925C48.9403 59.033 49.3876 59.2888 49.7649 59.4979C50.526 59.9102 51.0072 60.1596 50.9868 60.2011Z" fill="#0C2B34"/>
<path d="M49.9063 53.9722H14.8825C13.1432 53.9722 11.7333 52.5617 11.7333 50.8224C11.7333 49.0831 13.1432 47.6732 14.8825 47.6732H49.9063C51.6462 47.6732 53.0561 49.0831 53.0561 50.8224C53.0561 52.5617 51.6462 53.9722 49.9063 53.9722Z" fill="#0063F4"/>
<path d="M14.3276 53.8734C14.2996 53.8419 14.636 53.4582 15.2008 52.8642C15.5126 52.5436 15.8479 52.199 16.2036 51.8334C16.3975 51.6418 16.592 51.4391 16.7392 51.209C16.8881 50.9806 16.9722 50.7155 16.8875 50.4708C16.8104 50.2255 16.5844 50.0386 16.3478 49.8931C16.1084 49.7489 15.8444 49.6245 15.6067 49.4966C15.1546 49.2548 14.7294 49.0282 14.3334 48.8167C13.6121 48.4213 13.1759 48.1585 13.1951 48.1211C13.2138 48.0837 13.6846 48.2788 14.4304 48.6246C14.8351 48.8179 15.2703 49.0252 15.7328 49.246C15.9764 49.3687 16.2322 49.4814 16.502 49.6379C16.7613 49.795 17.0557 50.0129 17.1772 50.3761C17.3016 50.7394 17.1643 51.1161 16.9897 51.3708C16.8133 51.6365 16.6037 51.8421 16.4062 52.0267C16.0319 52.3789 15.6791 52.71 15.3509 53.0184C14.744 53.5762 14.3556 53.9044 14.3276 53.8734Z" fill="#0C2B34"/>
<path d="M46.6531 50.6296C46.6531 50.7131 40.0813 50.7815 31.9776 50.7815C23.8704 50.7815 17.3004 50.7131 17.3004 50.6296C17.3004 50.5455 23.8704 50.4772 31.9776 50.4772C40.0813 50.4772 46.6531 50.5455 46.6531 50.6296Z" fill="#0C2B34"/>
<path d="M50.9868 53.8782C50.9704 53.9121 50.4623 53.7339 49.6674 53.366C49.2714 53.1785 48.8036 52.9379 48.3253 52.5939C48.0864 52.4216 47.8457 52.2218 47.6273 51.9783C47.5175 51.8539 47.4176 51.723 47.3213 51.5992C47.2249 51.469 47.1046 51.3434 47.0363 51.1349C46.9603 50.9095 47.0725 50.6764 47.1817 50.5433C47.2886 50.4054 47.403 50.288 47.5175 50.1759C47.7482 49.9528 47.9812 49.756 48.2055 49.5732C48.6593 49.2105 49.0571 48.8957 49.3824 48.6054C50.0272 48.0207 50.5043 47.7299 50.53 47.7772C50.5435 47.8052 50.1376 48.1381 49.5284 48.7637C49.2224 49.0732 48.8211 49.4201 48.3854 49.7875C48.1687 49.9744 47.9439 50.1724 47.7272 50.3879C47.5239 50.6017 47.25 50.8563 47.3277 51.0485C47.4135 51.2681 47.681 51.5618 47.8498 51.7803C48.0467 52.0063 48.2692 52.199 48.4929 52.369C48.9403 52.7095 49.3876 52.9653 49.7649 53.1744C50.526 53.5867 51.0072 53.8367 50.9868 53.8782Z" fill="#0C2B34"/>
<path d="M49.4758 54.1217C49.4758 54.2058 41.6548 54.2741 32.0086 54.2741C22.3589 54.2741 14.5391 54.2058 14.5391 54.1217C14.5391 54.0382 22.3589 53.9698 32.0086 53.9698C41.6548 53.9698 49.4758 54.0382 49.4758 54.1217Z" fill="#0C2B34"/>
<path d="M46.9562 56.1395C47.014 56.1395 47.0613 58.123 47.0613 60.569C47.0613 63.0161 47.014 64.999 46.9562 64.999C46.8984 64.999 46.8517 63.0161 46.8517 60.569C46.8517 58.123 46.8984 56.1395 46.9562 56.1395Z" fill="#0C2B34"/>
<path d="M51.0189 64.2427H42.9718V78.1793H51.0189V64.2427Z" fill="white"/>
<path d="M51.0843 71.5182H43.0378V78.1793H51.0843V71.5182Z" fill="#0063F4"/>
<path d="M49.7118 69.2369C49.7118 69.2947 48.4783 69.3414 46.9568 69.3414C45.4348 69.3414 44.2013 69.2947 44.2013 69.2369C44.2013 69.179 45.4348 69.1323 46.9568 69.1323C48.4783 69.1323 49.7118 69.179 49.7118 69.2369Z" fill="#0C2B34"/>
<path d="M49.6073 70.2327C49.6073 70.2905 48.3732 70.3373 46.8517 70.3373C45.3297 70.3373 44.0962 70.2905 44.0962 70.2327C44.0962 70.1749 45.3297 70.1282 46.8517 70.1282C48.3732 70.1282 49.6073 70.1749 49.6073 70.2327Z" fill="#0C2B34"/>
<path d="M47.3067 76.4348V76.9248H46.777V76.4523C46.3348 76.4214 45.9155 76.2935 45.6591 76.1165L45.9464 75.4717C46.2204 75.6528 46.6088 75.7766 46.9668 75.7766C47.3289 75.7766 47.4702 75.675 47.4702 75.5249C47.4702 75.0343 45.7122 75.3923 45.7122 74.2435C45.7122 73.7575 46.0609 73.3469 46.777 73.2588V72.7728H47.3067V73.2494C47.6338 73.2763 47.9562 73.3645 48.2038 73.5105L47.934 74.1599C47.6379 74.0005 47.347 73.9211 47.0772 73.9211C46.7104 73.9211 46.5778 74.0449 46.5778 74.1997C46.5778 74.6722 48.3317 74.3188 48.3317 75.4583C48.3317 75.9267 47.9959 76.3332 47.3067 76.4348Z" fill="white"/>
<path d="M47.5975 66.6274H44.3041V67.7634H47.5975V66.6274Z" fill="#0C2B34"/>
<path d="M51.0189 78.1794C51.0131 78.1735 51.0073 78.0777 51.002 77.899C50.9973 77.6958 50.9915 77.4382 50.9845 77.1193C50.9751 76.4149 50.9623 75.4413 50.9459 74.2277C50.929 71.7443 50.905 68.2873 50.877 64.2427L51.0189 64.3841C48.5379 64.3876 45.8191 64.3911 42.9731 64.3946C42.938 64.4273 43.2604 64.1084 43.1243 64.2457V64.7392L43.1237 65.2339V66.2151C43.1232 66.8651 43.1226 67.5064 43.122 68.1389C43.1196 69.4022 43.1173 70.6276 43.115 71.8044C43.1056 74.1517 43.0969 76.304 43.0893 78.1788L42.9719 78.062C45.4033 78.0877 47.3943 78.1087 48.8118 78.1239C49.4905 78.1367 50.0313 78.1461 50.4331 78.1537C50.8081 78.1624 51.0102 78.1706 51.0189 78.1794C51.0271 78.1875 50.8414 78.1957 50.4793 78.2045C50.0839 78.2121 49.5518 78.222 48.8842 78.2343C47.4486 78.2494 45.4337 78.2705 42.9719 78.2962L42.8551 78.2973V78.1788C42.8475 76.304 42.8387 74.1517 42.8294 71.8044C42.827 70.6276 42.8247 69.4022 42.8224 68.1389C42.8218 67.5064 42.8212 66.8651 42.8206 66.2151C42.8206 65.8898 42.82 65.5627 42.82 65.2339V64.2457C42.6845 64.3806 43.004 64.057 42.9731 64.0909C45.8191 64.0944 48.5379 64.0979 51.0189 64.1014H51.1614L51.1603 64.2427C51.1322 68.3253 51.1083 71.815 51.0914 74.3211C51.0756 75.5213 51.0622 76.4844 51.0528 77.1812C51.0458 77.4884 51.04 77.7361 51.0359 77.9317C51.03 78.1005 51.0242 78.1846 51.0189 78.1794Z" fill="#0C2B34"/>
<path d="M59.685 32.0048H4.647V38.5958H59.685V32.0048Z" fill="#335863"/>
<path d="M48.1874 26.1562H13.8399C12.4254 26.1562 11.2783 25.0091 11.2783 23.594V22.3435C11.2783 20.9289 12.4254 19.7819 13.8399 19.7819H48.1874C49.602 19.7819 50.749 20.9289 50.749 22.3435V23.5945C50.749 25.0091 49.602 26.1562 48.1874 26.1562Z" fill="#0C2B34"/>
<path d="M48.5939 19.7818H14.247C12.8324 19.7818 11.6854 18.6347 11.6854 17.2202V15.9691C11.6854 14.5545 12.8324 13.4075 14.247 13.4075H48.5939C50.009 13.4075 51.1561 14.5545 51.1561 15.9691V17.2202C51.1561 18.6347 50.009 19.7818 48.5939 19.7818Z" fill="#0C2B34"/>
<path d="M19.1683 19.7819C19.1683 19.7357 25.7377 19.6978 33.8391 19.6978C41.9433 19.6978 48.511 19.7357 48.511 19.7819C48.511 19.828 41.9433 19.866 33.8391 19.866C25.7377 19.866 19.1683 19.828 19.1683 19.7819Z" fill="#0C2B34"/>
<path d="M24.8686 26.1848C24.8493 26.1901 24.7284 25.8612 24.6052 25.3087C24.4808 24.7574 24.3686 23.9794 24.3593 23.1145C24.3523 22.2495 24.451 21.4692 24.5649 20.9155C24.6782 20.3612 24.7926 20.0301 24.8119 20.0353C24.8376 20.0418 24.764 20.3823 24.6817 20.9359C24.5987 21.4896 24.5205 22.26 24.5275 23.1133C24.5362 23.966 24.6285 24.7346 24.7214 25.2865C24.8142 25.8385 24.8943 26.1778 24.8686 26.1848Z" fill="white"/>
<path d="M30.7699 26.3086C30.75 26.3132 30.6455 25.9681 30.5398 25.3951C30.4335 24.8222 30.3371 24.0197 30.3289 23.1296C30.3213 22.2389 30.4031 21.4347 30.4995 20.86C30.5947 20.2853 30.6928 19.9383 30.7132 19.9424C30.7383 19.9477 30.6817 20.3022 30.6169 20.8763C30.5514 21.4504 30.4895 22.2471 30.4965 23.1278C30.5053 24.0086 30.5818 24.8035 30.6572 25.3764C30.7319 25.95 30.795 26.3033 30.7699 26.3086Z" fill="white"/>
<path d="M36.8364 26.3115C36.8154 26.3156 36.7278 25.964 36.6396 25.3858C36.5514 24.8081 36.472 24.0022 36.4626 23.1086C36.4544 22.2155 36.5187 21.4078 36.5958 20.8284C36.6723 20.2485 36.7535 19.8957 36.7739 19.8992C36.799 19.9027 36.7599 20.2613 36.7138 20.8407C36.6676 21.4201 36.6226 22.2214 36.6308 23.1074C36.6396 23.9928 36.7003 24.793 36.7576 25.3712C36.8148 25.9494 36.8609 26.3074 36.8364 26.3115Z" fill="white"/>
<path d="M43.6137 26.0802C43.5915 26.0819 43.5366 25.7444 43.4741 25.1948C43.4116 24.6452 43.3433 23.8836 43.2925 23.0414C43.2422 22.1992 43.2195 21.4352 43.2165 20.8821C43.213 20.329 43.2271 19.9868 43.2498 19.9862C43.2738 19.9856 43.3012 20.3267 43.3351 20.8781C43.3707 21.4849 43.4134 22.2196 43.4607 23.0314C43.5103 23.8433 43.5553 24.5774 43.5921 25.1843C43.6242 25.7356 43.6376 26.0779 43.6137 26.0802Z" fill="white"/>
<path d="M46.6741 19.8052C46.628 19.8058 46.5649 18.4023 46.5339 16.6706C46.5024 14.9383 46.5147 13.5337 46.5608 13.5331C46.6075 13.5325 46.67 14.9354 46.7016 16.6677C46.7331 18.3994 46.7208 19.804 46.6741 19.8052Z" fill="white"/>
<path d="M39.7952 19.6679C39.7748 19.6714 39.6942 19.321 39.6194 18.7445C39.5447 18.1686 39.4851 17.3662 39.5014 16.479C39.5195 15.5918 39.6101 14.7917 39.7076 14.2193C39.8046 13.6463 39.8986 13.2994 39.9196 13.3035C39.9441 13.3082 39.8916 13.6627 39.825 14.2356C39.7584 14.8092 39.6872 15.6029 39.6696 16.4825C39.6533 17.3615 39.693 18.1576 39.7374 18.7328C39.7812 19.3081 39.8203 19.6638 39.7952 19.6679Z" fill="white"/>
<path d="M33.0582 19.8508C33.0372 19.8537 32.9712 19.4922 32.918 18.9005C32.8637 18.31 32.8316 17.4883 32.873 16.583C32.9151 15.6771 33.0231 14.8624 33.1312 14.2789C33.2392 13.6949 33.3379 13.3415 33.359 13.3456C33.3835 13.3509 33.3257 13.7124 33.2486 14.297C33.1709 14.8823 33.0827 15.6923 33.0407 16.5906C32.9998 17.4889 33.0132 18.3036 33.0366 18.8935C33.0594 19.4828 33.0833 19.8484 33.0582 19.8508Z" fill="white"/>
<path d="M26.8911 19.8945C26.8718 19.8991 26.7638 19.5516 26.6557 18.9734C26.5471 18.3958 26.4519 17.5851 26.4507 16.6863C26.4513 15.7874 26.5471 14.9767 26.6552 14.3991C26.7626 13.8209 26.8707 13.4734 26.8905 13.4781C26.9156 13.4833 26.8491 13.8396 26.7726 14.4178C26.6949 14.9954 26.6195 15.7979 26.619 16.6863C26.6195 17.5746 26.6955 18.3771 26.7731 18.9547C26.8502 19.5323 26.9168 19.8886 26.8911 19.8945Z" fill="white"/>
<path d="M19.9165 19.6579C19.9054 19.662 19.8651 19.5814 19.802 19.4319C19.7366 19.283 19.6577 19.061 19.5748 18.7824C19.4083 18.2258 19.2536 17.4292 19.2349 16.5391C19.2191 15.6484 19.3441 14.8465 19.4889 14.2835C19.5608 14.002 19.6309 13.7771 19.6904 13.6259C19.7482 13.474 19.7856 13.3922 19.7967 13.3957C19.823 13.4045 19.7179 13.7468 19.6046 14.3098C19.4913 14.8722 19.3879 15.6607 19.4031 16.5356C19.4212 17.4099 19.5543 18.1943 19.6898 18.7521C19.8242 19.3104 19.9422 19.648 19.9165 19.6579Z" fill="white"/>
<path d="M18.7839 25.8559C18.7676 25.8647 18.5836 25.5744 18.3739 25.061C18.1643 24.5488 17.9482 23.8053 17.8664 22.9608C17.787 22.1157 17.8588 21.3447 17.968 20.8021C18.0767 20.2584 18.2028 19.9389 18.2203 19.9442C18.2472 19.9517 18.1619 20.2817 18.0848 20.822C18.0072 21.3616 17.9563 22.1168 18.034 22.945C18.114 23.7726 18.3068 24.5044 18.4855 25.0196C18.663 25.5359 18.8091 25.8437 18.7839 25.8559Z" fill="white"/>
<path d="M14.7505 25.6287C14.7341 25.638 14.5519 25.3594 14.3755 24.8548C14.1956 24.3525 14.049 23.6213 14.0286 22.8083C14.0076 21.9953 14.0882 21.2646 14.1577 20.7407C14.2289 20.2169 14.2903 19.8956 14.3125 19.898C14.3364 19.9009 14.3165 20.2274 14.2757 20.753C14.2371 21.2787 14.1758 22.0046 14.1968 22.8036C14.2173 23.602 14.3411 24.3175 14.4888 24.8192C14.6325 25.322 14.7756 25.617 14.7505 25.6287Z" fill="white"/>
<path d="M15.7655 13.4075C15.7924 13.4221 15.6137 13.7468 15.4186 14.304C15.2218 14.8606 15.0442 15.6643 15.0466 16.5654C15.0495 17.4666 15.2078 18.275 15.3462 18.8508C15.4869 19.4267 15.6002 19.7783 15.5745 19.7871C15.5634 19.7912 15.5237 19.7076 15.4612 19.5523C15.3964 19.3975 15.3176 19.1686 15.2311 18.8812C15.0623 18.3077 14.8813 17.4882 14.8789 16.5654C14.876 15.6426 15.0781 14.8185 15.307 14.2625C15.4209 13.9845 15.5284 13.7655 15.6172 13.623C15.703 13.4787 15.7556 13.4022 15.7655 13.4075Z" fill="white"/>
<path d="M45.1795 13.3999H19.764C18.7168 13.3999 17.8681 12.5513 17.8681 11.5041V10.5789C17.8681 9.53232 18.7168 8.68311 19.764 8.68311H45.1795C46.2261 8.68311 47.0748 9.53232 47.0748 10.5789V11.5047C47.0748 12.5513 46.2261 13.3999 45.1795 13.3999Z" fill="#335863"/>
<path d="M45.4804 8.68313H20.0648C19.0182 8.68313 18.1696 7.8345 18.1696 6.78788V5.86216C18.1696 4.81554 19.0182 3.96692 20.0648 3.96692H45.4804C46.5276 3.96692 47.3762 4.81554 47.3762 5.86216V6.78788C47.3762 7.8345 46.5276 8.68313 45.4804 8.68313Z" fill="#335863"/>
<path d="M23.5562 8.63232C23.5562 8.5856 28.4167 8.54822 34.4114 8.54822C40.4084 8.54822 45.2683 8.5856 45.2683 8.63232C45.2683 8.67846 40.4084 8.71642 34.4114 8.71642C28.4167 8.71642 23.5562 8.67846 23.5562 8.63232Z" fill="#0C2B34"/>
<path d="M23.8582 4.10884C23.8704 4.12928 23.5842 4.31268 23.1193 4.6012C22.6077 4.92126 21.9898 5.3079 21.307 5.73484C20.6301 6.1723 20.0186 6.5677 19.5116 6.89535C19.0526 7.1938 18.7658 7.37486 18.7518 7.35558C18.7389 7.33748 19.0012 7.12196 19.4439 6.79781C19.8866 6.47308 20.5104 6.04264 21.2171 5.59292C21.9232 5.14378 22.5779 4.76181 23.0598 4.49899C23.541 4.23558 23.8476 4.08899 23.8582 4.10884Z" fill="white"/>
<path d="M30.608 4.15322C30.6337 4.19176 29.1713 5.21736 27.3414 6.44387C25.5116 7.67096 24.0071 8.63406 23.9814 8.59551C23.9557 8.55696 25.4181 7.53137 27.248 6.30428C29.0778 5.07777 30.5823 4.11467 30.608 4.15322Z" fill="white"/>
<path d="M37.6348 4.15322C37.6605 4.19176 36.198 5.21736 34.3682 6.44387C32.5383 7.67096 31.0338 8.63406 31.0081 8.59551C30.9824 8.55696 32.4449 7.53137 34.2747 6.30428C36.1045 5.07777 37.6091 4.11467 37.6348 4.15322Z" fill="white"/>
<path d="M28.297 8.7433C28.3227 8.78185 26.8602 9.80745 25.0304 11.034C23.2006 12.261 21.696 13.2241 21.6703 13.1856C21.6446 13.147 23.1071 12.1215 24.9369 10.8949C26.7668 9.66844 28.2713 8.70476 28.297 8.7433Z" fill="white"/>
<path d="M36.3551 8.7433C36.3808 8.78185 34.9183 9.80745 33.0891 11.034C31.2586 12.261 29.7547 13.2241 29.729 13.1856C29.7027 13.147 31.1652 12.1215 32.9956 10.8949C34.8249 9.66844 36.3294 8.70476 36.3551 8.7433Z" fill="white"/>
<path d="M44.4138 8.7433C44.4395 8.78185 42.9771 9.80745 41.1472 11.034C39.3168 12.261 37.8129 13.2241 37.7872 13.1856C37.7615 13.147 39.2234 12.1215 41.0538 10.8949C42.883 9.66844 44.3876 8.70476 44.4138 8.7433Z" fill="white"/>
<path d="M44.6615 4.15322C44.6872 4.19176 43.2247 5.21736 41.3949 6.44387C39.5651 7.67096 38.0611 8.63406 38.0348 8.59551C38.0092 8.55696 39.4716 7.53137 41.3014 6.30428C43.1313 5.07777 44.6358 4.11467 44.6615 4.15322Z" fill="white"/>
<path d="M48.4152 32.409H14.0677C12.6531 32.409 11.5061 31.2619 11.5061 29.8474V28.5963C11.5061 27.1817 12.6531 26.0347 14.0677 26.0347H48.4152C49.8297 26.0347 50.9768 27.1817 50.9768 28.5963V29.8474C50.9768 31.2619 49.8297 32.409 48.4152 32.409Z" fill="#0063F4"/>
<path d="M48.372 26.0802C48.372 26.1263 40.7373 26.1637 31.3206 26.1637C21.9011 26.1637 14.2675 26.1263 14.2675 26.0802C14.2675 26.0335 21.9011 25.9961 31.3206 25.9961C40.7373 25.9961 48.372 26.0335 48.372 26.0802Z" fill="#0C2B34"/>
<path d="M48.7744 31.7608C48.7738 31.7637 48.7429 31.7619 48.6833 31.7549C48.6138 31.7461 48.5268 31.7351 48.4181 31.721C48.174 31.6854 47.8347 31.6358 47.4036 31.5733C46.51 31.4384 45.2391 31.2462 43.6745 31.0097C40.5258 30.5319 36.1752 29.8813 31.365 29.1974C26.553 28.5146 22.1925 27.9276 19.0357 27.51C17.4663 27.3015 16.1925 27.1321 15.2972 27.0136C14.8656 26.9534 14.5256 26.9061 14.2815 26.8722C14.1735 26.8559 14.0864 26.8425 14.0175 26.8314C13.9585 26.8214 13.9282 26.815 13.9287 26.8121C13.9287 26.8092 13.9597 26.8098 14.0199 26.8144C14.0894 26.8208 14.1764 26.829 14.2856 26.839C14.5309 26.8652 14.872 26.902 15.3048 26.9488C16.2019 27.0551 17.4786 27.2057 19.0503 27.3921C22.2118 27.7799 26.5752 28.3481 31.3884 29.0309C36.1998 29.7148 40.5486 30.3841 43.6926 30.8923C45.2543 31.151 46.5223 31.3613 47.4136 31.509C47.8428 31.585 48.1804 31.6445 48.424 31.6872C48.5308 31.7082 48.6173 31.7245 48.6856 31.738C48.7446 31.7502 48.7744 31.7578 48.7744 31.7608Z" fill="#0C2B34"/>
<path d="M46.7769 26.0528C46.7792 26.0639 46.6011 26.1153 46.2769 26.1982C45.9236 26.2858 45.461 26.4009 44.9021 26.5399C43.741 26.8255 42.1384 27.2238 40.3757 27.6928C38.6124 28.1624 37.0238 28.6133 35.8738 28.9427C35.3202 29.0998 34.8617 29.23 34.5112 29.3299C34.1888 29.4187 34.009 29.4631 34.0055 29.452C34.0019 29.4409 34.1754 29.3755 34.492 29.2674C34.8085 29.1582 35.2688 29.0081 35.84 28.8288C36.9818 28.4702 38.5669 28.0006 40.3325 27.5304C42.0975 27.0609 43.7065 26.6806 44.8752 26.4242C45.4599 26.2958 45.9341 26.197 46.2629 26.134C46.5912 26.0709 46.774 26.0411 46.7769 26.0528Z" fill="#0C2B34"/>
<path d="M13.8569 23.6155C13.9147 23.6155 13.9614 25.5989 13.9614 28.0455C13.9614 30.4927 13.9147 32.4755 13.8569 32.4755C13.7991 32.4755 13.7518 30.4927 13.7518 28.0455C13.7518 25.5989 13.7991 23.6155 13.8569 23.6155Z" fill="#0C2B34"/>
<path d="M17.9189 31.7192H9.87247V45.6559H17.9189V31.7192Z" fill="white"/>
<path d="M17.985 38.9954H9.9379V45.6559H17.985V38.9954Z" fill="#0063F4"/>
<path d="M16.6118 36.7134C16.6118 36.7713 15.3783 36.818 13.8569 36.818C12.3348 36.818 11.1013 36.7713 11.1013 36.7134C11.1013 36.6556 12.3348 36.6089 13.8569 36.6089C15.3783 36.6089 16.6118 36.6556 16.6118 36.7134Z" fill="#0C2B34"/>
<path d="M16.5073 37.7093C16.5073 37.7671 15.2738 37.8138 13.7524 37.8138C12.2303 37.8138 10.9968 37.7671 10.9968 37.7093C10.9968 37.6515 12.2303 37.6047 13.7524 37.6047C15.2738 37.6047 16.5073 37.6515 16.5073 37.7093Z" fill="#0C2B34"/>
<path d="M14.2073 43.9113V44.4013H13.677V43.9288C13.2354 43.8978 12.8155 43.7699 12.5591 43.593L12.8465 42.9482C13.1204 43.1292 13.5094 43.253 13.8668 43.253C14.2295 43.253 14.3708 43.1514 14.3708 43.0013C14.3708 42.5107 12.6123 42.8687 12.6123 41.7205C12.6123 41.234 12.9615 40.8234 13.677 40.7352V40.2493H14.2073V40.7264C14.5338 40.7527 14.8562 40.8409 15.1038 40.9869L14.8346 41.6364C14.5385 41.4769 14.247 41.3975 13.9772 41.3975C13.611 41.3975 13.4778 41.5213 13.4778 41.6761C13.4778 42.1486 15.2317 41.7953 15.2317 42.9347C15.2317 43.4031 14.8965 43.8096 14.2073 43.9113Z" fill="white"/>
<path d="M14.4976 34.1039H11.2041V35.2399H14.4976V34.1039Z" fill="#0C2B34"/>
<path d="M17.919 45.6558C17.9132 45.65 17.9079 45.5542 17.9021 45.3755C17.8974 45.1722 17.8916 44.9146 17.8846 44.5957C17.8752 43.8914 17.8624 42.9178 17.846 41.7041C17.8291 39.2207 17.8051 35.7637 17.7777 31.7192L17.919 31.8605C15.4385 31.864 12.7198 31.8675 9.87312 31.871C9.83866 31.9037 10.1605 31.5854 10.0244 31.7221V32.7103C10.0244 33.0397 10.0238 33.3668 10.0238 33.6915C10.0232 34.3416 10.0226 34.9829 10.0221 35.6154C10.0197 36.8787 10.0174 38.104 10.015 39.2809C10.0057 41.6288 9.99694 43.7804 9.98935 45.6558L9.87254 45.5384C12.3039 45.5641 14.2944 45.5857 15.7125 45.6003C16.3911 45.6132 16.9314 45.6231 17.3338 45.6301C17.7082 45.6389 17.9108 45.647 17.919 45.6558C17.9272 45.664 17.7415 45.6722 17.3793 45.6809C16.9839 45.6885 16.4525 45.6984 15.7849 45.7107C14.3493 45.7259 12.3337 45.7469 9.87254 45.7726L9.75573 45.7744L9.75515 45.6558C9.74755 43.7804 9.73879 41.6288 9.72945 39.2809C9.72711 38.104 9.72478 36.8787 9.72244 35.6154C9.72186 34.9829 9.72127 34.3416 9.72069 33.6915V32.7103L9.7201 32.2156V31.7221C9.5846 31.857 9.90466 31.5334 9.87312 31.5673C12.7198 31.5708 15.4385 31.5743 17.919 31.5778H18.0615L18.0604 31.7192C18.0329 35.8017 18.009 39.2914 17.9914 41.7976C17.9757 42.9978 17.9628 43.9609 17.9535 44.6577C17.9465 44.9649 17.9406 45.2125 17.9359 45.4082C17.9301 45.577 17.9249 45.6611 17.919 45.6558Z" fill="#0C2B34"/>
<path d="M34.0119 89.9585C33.9868 89.9585 33.9617 89.9556 33.9366 89.9486C33.7806 89.9077 33.6883 89.7477 33.7292 89.5917C33.7327 89.5777 34.0919 88.1894 33.6183 87.0961C33.4734 86.7608 33.2649 86.4051 32.9986 86.0401C32.3281 85.1208 31.9736 84.0648 31.9736 82.9867V82.8862C31.9736 81.1662 33.3735 79.7662 35.0936 79.7662C36.8136 79.7662 38.213 81.1662 38.213 82.8862V83.458C38.213 83.6192 38.0827 83.75 37.921 83.75C37.7598 83.75 37.6289 83.6192 37.6289 83.458V82.8862C37.6289 81.488 36.4918 80.3503 35.0936 80.3503C33.6954 80.3503 32.5576 81.488 32.5576 82.8862V82.9867C32.5576 83.9404 32.873 84.8773 33.4699 85.6961C33.7619 86.0962 33.9921 86.4887 34.1544 86.8636C34.7098 88.1468 34.3109 89.6776 34.2934 89.7424C34.259 89.8726 34.141 89.9585 34.0119 89.9585Z" fill="#0C2B34"/>
<path d="M13.1659 95.8597L34.0166 87.5796L52.1309 95.8597C52.1309 95.8597 53.1933 97.3432 51.2414 97.9161C50.2053 98.2204 34.0866 90.5279 34.0866 90.5279C34.0866 90.5279 14.7061 97.7993 14.0765 97.6148C13.4474 97.4302 12.6999 96.4128 13.1659 95.8597Z" fill="#BA7362"/>
<path d="M23.582 91.1494C23.582 91.1494 13.3038 95.392 11.8974 96.0303C9.69149 97.0314 6.12936 101.059 5.68548 101.798C5.68548 101.798 2.72726 108.898 2.72726 109.341C2.72726 109.785 13.1549 119.103 13.1549 119.103L13.0918 135.801V150.415L54.4619 149.513L52.7191 118.364L61.8899 109.194L60.5588 106.235C59.6512 101.711 56.7315 97.8467 52.6268 95.7377L43.6973 91.1494C43.6973 91.1494 42.6618 98.3969 33.6399 98.3969C24.6175 98.3969 23.582 91.1494 23.582 91.1494Z" fill="#0063F4"/>
<path d="M53.7774 104.161C53.7821 104.162 53.7774 104.215 53.7651 104.315C53.7482 104.431 53.7278 104.575 53.7021 104.751C53.6437 105.129 53.5631 105.677 53.4696 106.354C53.2827 107.709 53.0684 109.587 52.9416 111.67C52.8166 113.753 52.8038 115.643 52.8266 117.01C52.8377 117.694 52.8517 118.248 52.8645 118.63C52.8686 118.808 52.8715 118.954 52.8739 119.071C52.8751 119.171 52.8727 119.225 52.868 119.225C52.8628 119.225 52.8552 119.173 52.8453 119.073C52.8359 118.956 52.8237 118.811 52.8091 118.633C52.7787 118.251 52.7495 117.698 52.7255 117.013C52.6771 115.644 52.6741 113.749 52.7991 111.661C52.9259 109.574 53.1566 107.693 53.3697 106.34C53.476 105.664 53.5718 105.117 53.6478 104.742C53.6834 104.567 53.7132 104.424 53.7365 104.31C53.7587 104.212 53.7722 104.16 53.7774 104.161Z" fill="#0C2B34"/>
<path d="M44.2247 92.0429C44.2247 92.0429 44.2404 92.4529 44.0833 93.1725C43.928 93.8879 43.5489 94.9135 42.7476 95.9642C42.3469 96.487 41.8464 97.0155 41.2343 97.4921C40.6205 97.9658 39.9021 98.3921 39.0949 98.7227C37.4847 99.3955 35.5486 99.694 33.5453 99.5982C31.5396 99.5024 29.6467 99.0293 28.0797 98.2672C26.5051 97.5143 25.2874 96.4654 24.4621 95.4439C23.6293 94.4206 23.169 93.4406 22.9296 92.749C22.6889 92.0534 22.637 91.6487 22.637 91.6487C22.6393 91.6481 22.6475 91.672 22.6621 91.7194C22.6773 91.7748 22.6965 91.8443 22.7205 91.9308C22.7438 92.0242 22.7771 92.1381 22.8227 92.2713C22.8642 92.4056 22.9144 92.5598 22.9821 92.7298C23.2356 93.4114 23.7058 94.375 24.5398 95.3796C25.3674 96.383 26.5764 97.4103 28.137 98.148C29.6894 98.8956 31.5636 99.3605 33.5517 99.4551C35.5381 99.5503 37.4526 99.2583 39.0447 98.6006C39.8431 98.2783 40.5539 97.8612 41.1619 97.3981C41.7687 96.932 42.2669 96.4145 42.6676 95.9023C43.4689 94.8726 43.859 93.8652 44.029 93.1596C44.0775 92.9838 44.1073 92.8244 44.13 92.686C44.1581 92.5475 44.175 92.4301 44.1832 92.3344C44.1943 92.2456 44.203 92.1738 44.2106 92.1165C44.2171 92.068 44.2223 92.0429 44.2247 92.0429Z" fill="#0C2B34"/>
<path d="M13.0205 105.847C13.1046 105.846 13.1992 109.667 13.2325 114.378C13.2658 119.092 13.2244 122.912 13.1403 122.912C13.0562 122.913 12.9615 119.094 12.9282 114.381C12.895 109.668 12.9364 105.848 13.0205 105.847Z" fill="#0C2B34"/>
<path d="M13.1082 138.088L13.1222 127.778L53.2365 126.548L53.7791 137.308L13.1082 138.088Z" fill="#E5E5E4"/>
<path d="M46.3745 135.799C46.3745 135.802 46.3442 135.801 46.2852 135.796C46.2186 135.79 46.1327 135.782 46.0241 135.771C45.7951 135.743 45.4541 135.726 45.0219 135.651C44.154 135.531 42.9058 135.276 41.4089 134.806C39.9114 134.34 38.1785 133.617 36.3592 132.62C34.5393 131.624 32.6452 130.339 30.7944 128.822C28.9494 127.295 27.3146 125.701 25.8942 124.193C24.4732 122.683 23.256 121.269 22.2509 120.067C21.2463 118.866 20.4497 117.881 19.9018 117.197C19.6343 116.86 19.4241 116.596 19.2746 116.408C19.208 116.322 19.1554 116.253 19.1145 116.2C19.0789 116.153 19.062 116.128 19.0637 116.126C19.0655 116.125 19.0865 116.147 19.1256 116.191C19.1694 116.242 19.2261 116.307 19.2968 116.39C19.4509 116.574 19.6682 116.832 19.9451 117.162C20.5063 117.835 21.3141 118.81 22.3286 120.003C23.3425 121.195 24.5661 122.601 25.99 124.102C27.4127 125.602 29.0463 127.19 30.8849 128.711C32.7293 130.223 34.6141 131.507 36.4229 132.505C38.2311 133.505 39.9517 134.233 41.4399 134.71C42.9269 135.191 44.1674 135.46 45.0306 135.596C45.4605 135.679 45.7998 135.705 46.027 135.743C46.1351 135.759 46.2203 135.771 46.2869 135.781C46.3453 135.791 46.3751 135.797 46.3745 135.799Z" fill="#0C2B34"/>
<path d="M37.4911 82.8704C37.4911 84.1945 36.4176 85.268 35.0935 85.268C33.7689 85.268 32.6954 84.1945 32.6954 82.8704C32.6954 81.5464 33.7689 80.4729 35.0935 80.4729C36.4176 80.4729 37.4911 81.5464 37.4911 82.8704Z" fill="#D7D9D9"/>
<path d="M48.3078 146.59C48.3656 146.59 48.4123 148.574 48.4123 151.02C48.4123 153.468 48.3656 155.45 48.3078 155.45C48.25 155.45 48.2032 153.468 48.2032 151.02C48.2032 148.574 48.25 146.59 48.3078 146.59Z" fill="#0C2B34"/>
<path d="M52.3698 154.694H44.3233V168.631H52.3698V154.694Z" fill="white"/>
<path d="M52.4358 161.97H44.3894V168.631H52.4358V161.97Z" fill="#0063F4"/>
<path d="M51.0633 159.688C51.0633 159.746 49.8292 159.793 48.3077 159.793C46.7857 159.793 45.5522 159.746 45.5522 159.688C45.5522 159.63 46.7857 159.583 48.3077 159.583C49.8292 159.583 51.0633 159.63 51.0633 159.688Z" fill="#0C2B34"/>
<path d="M50.9582 160.684C50.9582 160.742 49.7247 160.789 48.2032 160.789C46.6812 160.789 45.4477 160.742 45.4477 160.684C45.4477 160.626 46.6812 160.579 48.2032 160.579C49.7247 160.579 50.9582 160.626 50.9582 160.684Z" fill="#0C2B34"/>
<path d="M48.6581 166.886V167.376H48.1278V166.904C47.6863 166.873 47.2669 166.745 47.0099 166.568L47.2973 165.923C47.5712 166.104 47.9602 166.228 48.3176 166.228C48.6803 166.228 48.8217 166.126 48.8217 165.976C48.8217 165.486 47.0631 165.844 47.0631 164.695C47.0631 164.209 47.4124 163.798 48.1278 163.71V163.224H48.6581V163.701C48.9852 163.728 49.3076 163.816 49.5547 163.961L49.2854 164.611C48.9893 164.452 48.6979 164.372 48.4286 164.372C48.0618 164.372 47.9292 164.496 47.9292 164.65C47.9292 165.123 49.6832 164.77 49.6832 165.91C49.6832 166.378 49.3473 166.785 48.6581 166.886Z" fill="white"/>
<path d="M48.949 157.079H45.6549V158.214H48.949V157.079Z" fill="#0C2B34"/>
<path d="M52.3698 168.631C52.3645 168.625 52.3587 168.529 52.3528 168.35C52.3481 168.147 52.3429 167.89 52.3359 167.571C52.326 166.866 52.3131 165.892 52.2973 164.679C52.2798 162.196 52.2565 158.738 52.2284 154.694L52.3698 154.835C49.8893 154.839 47.1705 154.842 44.3245 154.846C44.2894 154.879 44.6118 154.56 44.4751 154.697V155.685C44.4751 156.014 44.4751 156.341 44.4746 156.666C44.474 157.316 44.4734 157.958 44.4728 158.59C44.4705 159.854 44.4681 161.079 44.4658 162.256C44.4565 164.603 44.4483 166.755 44.4407 168.63L44.3233 168.513C46.7547 168.539 48.7451 168.56 50.1632 168.575C50.8419 168.587 51.3827 168.597 51.7845 168.605C52.1595 168.614 52.3616 168.622 52.3698 168.631C52.3785 168.639 52.1922 168.647 51.8307 168.656C51.4353 168.663 50.9032 168.673 50.2356 168.686C48.8 168.701 46.7851 168.722 44.3233 168.747L44.2065 168.749L44.2059 168.63C44.1983 166.755 44.1901 164.603 44.1802 162.256C44.1784 161.079 44.1761 159.854 44.1738 158.59C44.1732 157.958 44.1726 157.316 44.172 156.666C44.1714 156.341 44.1714 156.014 44.1714 155.685V154.697C44.0354 154.832 44.3554 154.508 44.3245 154.542C47.1705 154.546 49.8893 154.549 52.3698 154.553H52.5123L52.5117 154.694C52.4837 158.776 52.4597 162.266 52.4428 164.772C52.4264 165.973 52.4136 166.936 52.4042 167.633C52.3972 167.94 52.3914 168.187 52.3867 168.383C52.3814 168.551 52.3756 168.636 52.3698 168.631Z" fill="#0C2B34"/>
<path d="M153.057 253.119L110.393 253.379L113.183 210.979L148.455 210.95L153.057 253.119Z" fill="#335863"/>
<path d="M141.325 212.121C141.292 212.122 141.286 211.653 141.172 210.818C141.055 209.986 140.854 208.774 140.326 207.367C139.811 205.967 138.965 204.337 137.533 202.975C136.819 202.301 135.954 201.707 134.955 201.325C133.961 200.936 132.855 200.728 131.721 200.725C129.45 200.744 127.307 201.595 125.88 202.948C124.433 204.298 123.625 205.952 123.137 207.36C122.647 208.78 122.448 209.991 122.316 210.822C122.263 211.213 122.221 211.532 122.186 211.785C122.157 212.006 122.137 212.122 122.127 212.121C122.116 212.12 122.116 212.003 122.125 211.78C122.131 211.557 122.159 211.229 122.199 210.807C122.295 209.967 122.463 208.741 122.934 207.291C123.403 205.855 124.205 204.15 125.689 202.743C127.159 201.329 129.373 200.439 131.72 200.421C132.892 200.424 134.035 200.641 135.065 201.048C136.1 201.448 136.996 202.071 137.726 202.771C139.192 204.189 140.031 205.865 140.528 207.294C141.037 208.732 141.208 209.963 141.29 210.804C141.328 211.228 141.342 211.557 141.338 211.78C141.339 212.004 141.335 212.12 141.325 212.121Z" fill="#0C2B34"/>
<path d="M120.913 211.22C120.997 211.224 120.665 220.653 120.171 232.278C119.678 243.908 119.21 253.33 119.126 253.326C119.042 253.323 119.374 243.895 119.867 232.265C120.361 220.64 120.829 211.217 120.913 211.22Z" fill="#0C2B34"/>
<path d="M177.211 253.152L139.85 253.379L142.292 216.249L173.18 216.224L177.211 253.152Z" fill="#0063F4"/>
<path d="M167.406 216.46C167.375 216.461 167.368 216.05 167.265 215.32C167.16 214.592 166.982 213.532 166.518 212.302C166.067 211.078 165.325 209.653 164.074 208.464C162.846 207.255 160.984 206.491 158.996 206.499C157.012 206.516 155.14 207.259 153.892 208.44C152.627 209.618 151.92 211.064 151.492 212.295C151.062 213.537 150.885 214.596 150.767 215.323C150.659 216.054 150.618 216.462 150.593 216.46C150.583 216.459 150.582 216.356 150.588 216.161C150.593 215.966 150.616 215.678 150.65 215.309C150.732 214.572 150.877 213.498 151.288 212.226C151.698 210.967 152.4 209.471 153.701 208.235C154.991 206.992 156.935 206.212 158.995 206.195C161.056 206.184 163.004 206.994 164.267 208.26C165.552 209.505 166.287 210.975 166.721 212.229C167.166 213.49 167.313 214.569 167.383 215.307C167.415 215.677 167.426 215.966 167.421 216.161C167.421 216.357 167.416 216.46 167.406 216.46Z" fill="#0C2B34"/>
<path d="M149.062 216.46C149.145 216.463 148.863 224.721 148.431 234.902C147.999 245.086 147.58 253.336 147.496 253.333C147.412 253.329 147.694 245.073 148.127 234.889C148.559 224.708 148.978 216.456 149.062 216.46Z" fill="#0C2B34"/>
<path d="M182.592 156.2H182.583V5.7804H73.9067L74.062 159.237L73.7782 166.539L79.242 162.352L84.7069 166.539L90.1713 162.352L95.6374 166.539L101.102 162.352L106.569 166.539L112.036 162.352L117.502 166.539L122.969 162.352L128.435 166.539L133.903 162.352L139.371 166.539L144.838 162.352L150.304 166.539L155.77 162.352L161.238 166.539L166.707 162.352L172.175 166.539L177.646 162.352L183.118 166.539L182.592 156.2Z" fill="#F0F0F0"/>
<path d="M182.592 156.2C182.607 156.477 182.787 159.747 183.159 166.537L183.163 166.624L183.094 166.571C181.515 165.367 179.678 163.966 177.615 162.393H177.678C176.044 163.646 174.202 165.06 172.212 166.587L172.175 166.615L172.138 166.587C170.432 165.283 168.603 163.886 166.666 162.405H166.749C165.062 163.7 163.216 165.115 161.284 166.598L161.238 166.633L161.193 166.598C159.515 165.316 157.654 163.893 155.721 162.416H155.819C154.151 163.696 152.285 165.128 150.357 166.608L150.304 166.647L150.251 166.608C148.586 165.333 146.712 163.899 144.782 162.424H144.893C143.232 163.698 141.354 165.139 139.429 166.615L139.371 166.66L139.312 166.615C137.65 165.344 135.768 163.904 133.843 162.431H133.965C132.304 163.704 130.421 165.148 128.499 166.622L128.435 166.67L128.372 166.622C126.711 165.351 124.824 163.908 122.903 162.437H123.034C121.374 163.711 119.488 165.157 117.57 166.627L117.502 166.679L117.434 166.627C115.771 165.355 113.883 163.91 111.966 162.443H112.105C110.443 163.718 108.555 165.165 106.64 166.633L106.569 166.688L106.497 166.633C104.831 165.358 102.942 163.912 101.029 162.447H101.176C99.5098 163.725 97.6227 165.173 95.7128 166.637L95.6375 166.695L95.5622 166.637C93.8924 165.359 92.0041 163.913 90.0943 162.452H90.2485C88.5781 163.733 86.691 165.18 84.7853 166.641L84.707 166.701L84.6281 166.641C82.9548 165.359 81.0672 163.915 79.162 162.456H79.3215C77.6464 163.74 75.7611 165.186 73.8594 166.644L73.634 166.817L73.6451 166.533C73.7379 164.047 73.8314 161.535 73.9266 158.997C73.9231 156.457 73.9202 153.89 73.9166 151.3C73.9102 146.12 73.9038 140.841 73.8968 135.472C73.8839 124.735 73.8711 113.636 73.8571 102.234C73.8325 79.4304 73.8069 55.4165 73.78 30.6633C73.7712 22.2646 73.763 13.9513 73.7549 5.78039V5.62854H73.9067C113.211 5.63496 150.1 5.6408 182.583 5.64606H182.717V5.78039C182.694 50.6846 182.675 88.2805 182.662 114.658C182.646 127.844 182.634 138.224 182.625 145.314C182.616 148.855 182.609 151.574 182.604 153.412C182.6 154.327 182.596 155.022 182.594 155.492C182.59 155.959 182.583 156.199 182.583 156.199C182.583 156.199 182.576 155.959 182.572 155.492C182.57 155.022 182.566 154.327 182.562 153.412C182.557 151.574 182.55 148.855 182.541 145.314C182.533 138.224 182.52 127.844 182.504 114.658C182.491 88.2805 182.471 50.6846 182.449 5.78039L182.583 5.91414C150.1 5.9194 113.211 5.92524 73.9067 5.93166L74.058 5.77981C74.0668 13.9513 74.0755 22.2646 74.0837 30.6639C74.1076 55.4183 74.1298 79.4327 74.1514 102.238C74.1614 113.639 74.1707 124.739 74.1795 135.477C74.1836 140.846 74.1876 146.124 74.1917 151.305C74.1935 153.896 74.1958 156.461 74.1976 159.002C74.1012 161.542 74.006 164.056 73.9114 166.544L73.697 166.433C75.5999 164.976 77.4864 163.531 79.162 162.247L79.242 162.186L79.3215 162.247C81.226 163.708 83.1125 165.154 84.7853 166.436H84.6287C86.5357 164.976 88.4233 163.531 90.0943 162.251L90.1714 162.192L90.2485 162.251C92.1566 163.714 94.0442 165.161 95.7128 166.441H95.5622C97.4732 164.978 99.3614 163.532 101.028 162.255L101.102 162.199L101.176 162.255C103.088 163.721 104.976 165.168 106.64 166.445H106.497C108.412 164.979 110.301 163.534 111.966 162.26L112.036 162.207L112.106 162.26C114.022 163.729 115.908 165.176 117.57 166.45H117.434C119.353 164.982 121.241 163.537 122.903 162.266L122.969 162.215L123.034 162.266C124.954 163.738 126.839 165.183 128.499 166.456H128.372C130.296 164.985 132.181 163.542 133.843 162.272L133.903 162.225L133.965 162.272C135.888 163.747 137.769 165.19 139.429 166.463H139.312C141.24 164.989 143.119 163.551 144.782 162.279L144.838 162.237L144.893 162.279C146.82 163.757 148.693 165.194 150.357 166.47H150.251C152.182 164.994 154.051 163.565 155.721 162.287L155.77 162.249L155.819 162.287C157.75 163.769 159.608 165.194 161.284 166.48H161.193C163.129 165 164.977 163.588 166.666 162.297L166.708 162.266L166.749 162.297C168.683 163.782 170.508 165.183 172.212 166.491H172.138C174.133 164.969 175.978 163.561 177.615 162.311L177.647 162.286L177.678 162.311C179.736 163.891 181.568 165.298 183.143 166.507L183.078 166.541C182.759 159.749 182.606 156.477 182.592 156.2Z" fill="#0C2B34"/>
<path d="M97.4072 67.74V74.3847H100.729V67.74H97.4072Z" fill="#0C2B34"/>
<path d="M100.729 51.1289H97.4072V54.451H100.729V51.1289Z" fill="#0C2B34"/>
<path d="M121.259 87.7075H117.937V91.0302H121.259V87.7075Z" fill="#0C2B34"/>
<path d="M100.729 54.451V61.0952H97.4072V64.4179H100.729V67.74H107.374V71.062H110.696V67.74H114.018V61.0952H110.696V64.4179H104.051V54.451H100.729Z" fill="#0C2B34"/>
<path d="M110.696 51.1289H104.051V54.451H110.696V51.1289Z" fill="#0C2B34"/>
<path d="M120.539 77.8365H124.109V74.5138H120.539V77.8365Z" fill="#0C2B34"/>
<path d="M114.018 54.451H110.696V57.7731H114.018V54.451Z" fill="#0C2B34"/>
<path d="M137.274 67.74H133.952V71.0621H137.274V67.74Z" fill="#0C2B34"/>
<path d="M140.596 31.1953H137.274V34.5174H140.596V31.1953Z" fill="#0C2B34"/>
<path d="M120.663 57.7732V54.4511H123.985V51.1291H120.663V47.8064H117.341V51.1291H114.018V54.4511H117.341V67.7401H120.663V61.0953H123.985V57.7732H120.663Z" fill="#0C2B34"/>
<path d="M133.952 90.9962H140.597V87.6736H133.952V90.9962Z" fill="#0C2B34"/>
<path d="M133.952 31.1953H130.63V34.5174H133.952V31.1953Z" fill="#0C2B34"/>
<path d="M133.121 57.7731V54.451H129.799V51.1289H126.477V57.7731H123.154V61.0952H129.799V57.7731H133.121Z" fill="#0C2B34"/>
<path d="M151.873 51.1289H148.551V54.451H151.873V51.1289Z" fill="#0C2B34"/>
<path d="M117.437 67.74H114.114V71.0621H117.437V67.74Z" fill="#0C2B34"/>
<path d="M130.63 47.8064V44.4843H133.952V41.1622H140.597V37.8395H137.274V34.5175H133.952V37.8395H130.63V41.1622H127.308V44.4843H123.986V47.8064H130.63Z" fill="#0C2B34"/>
<path d="M130.63 71.0621V67.7401H133.952V64.418H127.308V67.7401H123.985V71.0621H130.63Z" fill="#0C2B34"/>
<path d="M140.597 84.3498V81.0272H133.952V77.7051H130.63V81.0272H127.308V84.3498H120.663V87.6719H130.63V84.3498H133.952V87.6719H137.274V84.3498H140.597Z" fill="#0C2B34"/>
<path d="M127.308 34.5174V31.1953H120.663V34.5174H117.341V37.8395H123.986V34.5174H127.308Z" fill="#0C2B34"/>
<path d="M127.308 37.8395H123.986V41.1621H127.308V37.8395Z" fill="#0C2B34"/>
<path d="M135.613 51.129H132.291V61.0952H138.935V57.7732H135.613V54.4511H138.935V51.129H142.258V47.8063H138.935V44.4843H135.613V51.129Z" fill="#0C2B34"/>
<path d="M123.986 41.1621H120.663V44.4842H123.986V41.1621Z" fill="#0C2B34"/>
<path d="M133.952 74.3848V77.7069H140.597V74.3848H147.241V71.0621H137.274V74.3848H133.952Z" fill="#0C2B34"/>
<path d="M151.873 61.0952H148.551V64.4179H151.873V61.0952Z" fill="#0C2B34"/>
<path d="M140.596 64.418H137.274V67.7401H140.596V64.418Z" fill="#0C2B34"/>
<path d="M148.902 54.451H142.258V57.7731H145.58V61.0952H148.902V54.451Z" fill="#0C2B34"/>
<path d="M147.241 64.418H143.919V67.7401H147.241V64.418Z" fill="#0C2B34"/>
<path d="M118.109 73.6162V81.9219H109.803V73.6162H118.109ZM110.696 84.4135H120.666V71.0586H107.311V74.3848H104.051V77.7068H107.311V81.0295H104.051V84.3516H107.311V84.4135H107.374V87.6737H104.051V94.3184H107.374V90.9963H110.696V84.4135Z" fill="#0C2B34"/>
<path d="M147.241 71.0621H157.208V67.74H147.241V71.0621Z" fill="#0C2B34"/>
<path d="M153.886 57.7731H157.208V51.1289H153.886V57.7731Z" fill="#0C2B34"/>
<path d="M127.431 74.5138H124.109V81.1585H127.431V74.5138Z" fill="#0C2B34"/>
<path d="M160.53 71.0621H157.208V74.3848H160.53V71.0621Z" fill="#0C2B34"/>
<path d="M160.53 67.74V61.0952H157.208V67.74H160.53Z" fill="#0C2B34"/>
<path d="M100.729 87.6736H97.4072V94.3183H100.729V87.6736Z" fill="#0C2B34"/>
<path d="M146.411 45.3147V33.6869H158.039V45.3147H146.411ZM160.53 47.8063V31.1953H143.919V47.8063H160.53Z" fill="#0C2B34"/>
<path d="M155.547 36.1785H148.902V42.8232H155.547V36.1785Z" fill="#0C2B34"/>
<path d="M146.411 91.8268V80.1983H158.039V91.8268H146.411ZM160.53 77.7068H143.919V94.3184H160.53V77.7068Z" fill="#0C2B34"/>
<path d="M155.547 82.6906H148.902V89.3347H155.547V82.6906Z" fill="#0C2B34"/>
<path d="M111.485 33.6869V45.3147H99.8573V33.6869H111.485ZM97.3651 31.1953V47.8063H113.977V31.1953H97.3651Z" fill="#0C2B34"/>
<path d="M108.994 36.1785H102.349V42.8232H108.994V36.1785Z" fill="#0C2B34"/>
<path d="M92.6272 42.7753V30.9775C92.6272 29.8771 92.8118 28.8363 93.5629 27.9702C94.4016 27.003 95.5516 26.6304 96.7962 26.6304H109.202C109.679 26.6304 109.68 25.8881 109.202 25.8881H96.9329C95.8816 25.8881 94.8752 26.0434 93.9746 26.6356C92.6588 27.5006 91.9135 28.9473 91.8855 30.5097C91.851 32.451 91.8855 34.3959 91.8855 36.3373V42.7753C91.8855 43.2531 92.6272 43.2536 92.6272 42.7753Z" fill="#0063F4"/>
<path d="M108.115 99.9282H96.3167C95.2169 99.9282 94.1761 99.7437 93.31 98.9932C92.3428 98.1545 91.9696 97.0039 91.9696 95.7599V83.354C91.9696 82.8769 91.2278 82.8757 91.2278 83.354V95.6232C91.2278 96.6745 91.3832 97.6802 91.9748 98.5814C92.8404 99.8973 94.2871 100.643 95.8494 100.671C97.7908 100.704 99.7357 100.671 101.677 100.671H108.115C108.593 100.671 108.593 99.9282 108.115 99.9282Z" fill="#0063F4"/>
<path d="M164.911 83.2366V95.035C164.911 96.1348 164.727 97.1755 163.976 98.0417C163.137 99.0089 161.987 99.3821 160.743 99.3821H148.337C147.859 99.3821 147.859 100.124 148.337 100.124H160.606C161.657 100.124 162.663 99.9685 163.564 99.3768C164.88 98.5119 165.625 97.0646 165.653 95.5022C165.687 93.5609 165.653 91.616 165.653 89.6746V83.2366C165.653 82.7588 164.911 82.7582 164.911 83.2366Z" fill="#0063F4"/>
<path d="M148.551 26.6303H160.35C161.45 26.6303 162.49 26.8143 163.356 27.5654C164.324 28.4041 164.697 29.5541 164.697 30.7987V43.2045C164.697 43.6817 165.439 43.6823 165.439 43.2045V30.9354C165.439 29.8841 165.283 28.8783 164.692 27.9771C163.827 26.6613 162.379 25.916 160.817 25.888C158.876 25.8535 156.931 25.888 154.989 25.888H148.551C148.074 25.888 148.073 26.6303 148.551 26.6303Z" fill="#0063F4"/>
<path d="M98.5647 118.522L99.4116 116.62C100.22 117.154 101.366 117.519 102.422 117.519C103.49 117.519 103.907 117.218 103.907 116.776C103.907 115.33 98.7213 116.385 98.7213 112.997C98.7213 111.369 100.051 110.04 102.761 110.04C103.946 110.04 105.171 110.314 106.07 110.835L105.275 112.75C104.402 112.281 103.542 112.046 102.747 112.046C101.666 112.046 101.275 112.411 101.275 112.867C101.275 114.261 106.448 113.219 106.448 116.581C106.448 118.17 105.118 119.525 102.408 119.525C100.91 119.525 99.425 119.121 98.5647 118.522Z" fill="#0063F4"/>
<path d="M107.166 114.782C107.166 112.007 109.29 110.04 112.182 110.04C113.863 110.04 115.218 110.652 116.104 111.76L114.463 113.245C113.889 112.555 113.186 112.177 112.313 112.177C110.815 112.177 109.772 113.219 109.772 114.782C109.772 116.346 110.815 117.388 112.313 117.388C113.186 117.388 113.889 117.01 114.463 116.32L116.104 117.805C115.218 118.913 113.863 119.525 112.182 119.525C109.29 119.525 107.166 117.557 107.166 114.782Z" fill="#0063F4"/>
<path d="M122.452 115.668L121.279 112.75L120.106 115.668H122.452ZM123.208 117.571H119.351L118.634 119.343H116.002L120.029 110.222H122.569L126.608 119.343H123.924L123.208 117.571Z" fill="#0063F4"/>
<path d="M136.018 110.222V119.343H133.894L129.868 114.483V119.343H127.34V110.222H129.464L133.49 115.082V110.222H136.018Z" fill="#0063F4"/>
<path d="M111.339 130.579C111.339 128.636 110.114 127.501 107.662 127.501H104.374V133.628H107.662C110.114 133.628 111.339 132.493 111.339 130.579ZM117.317 130.579C117.317 135.332 113.73 138.291 108.021 138.291H104.374V143.761H98.4561V122.838H108.021C113.73 122.838 117.317 125.797 117.317 130.579Z" fill="#0063F4"/>
<path d="M131.423 135.332L128.733 128.636L126.043 135.332H131.423ZM133.157 139.696H124.31L122.666 143.761H116.628L125.864 122.838H131.692L140.959 143.761H134.802L133.157 139.696Z" fill="#0063F4"/>
<path d="M152.524 136.259V143.761H146.605V136.169L138.625 122.838H144.872L149.833 131.148L154.796 122.838H160.535L152.524 136.259Z" fill="#0063F4"/>
<path d="M144.155 111.356H141.028V110.222H148.572V111.356H145.445V119.343H144.155V111.356Z" fill="#0063F4"/>
<path d="M157.512 114.782C157.512 112.763 156 111.277 153.981 111.277C151.935 111.277 150.424 112.763 150.424 114.782C150.424 116.802 151.935 118.287 153.981 118.287C156 118.287 157.512 116.802 157.512 114.782ZM149.121 114.782C149.121 112.112 151.18 110.118 153.981 110.118C156.756 110.118 158.815 112.099 158.815 114.782C158.815 117.466 156.756 119.447 153.981 119.447C151.18 119.447 149.121 117.454 149.121 114.782Z" fill="#0063F4"/>
<path d="M204.014 233.439L205.193 245.711C205.193 245.711 191.816 250.709 191.671 253.181L216.96 253.25L216.946 251.4L215.885 245.087L214.322 232.824L204.014 233.439Z" fill="#335863"/>
<path d="M212.805 243.807C213.306 243.942 213.654 244.505 213.539 245.011C213.424 245.517 212.855 245.876 212.351 245.749C211.848 245.622 211.41 244.96 211.581 244.47C211.752 243.979 212.443 243.595 212.901 243.839" fill="#D7D9D9"/>
<path d="M216.96 253.25L216.946 251.4L192.69 251.866C192.69 251.866 191.539 252.37 191.671 253.181L216.96 253.25Z" fill="#0C2B34"/>
<path d="M204.773 245.581C204.777 245.707 205.409 245.763 206.032 246.168C206.666 246.556 206.987 247.103 207.104 247.052C207.22 247.027 207.03 246.272 206.267 245.796C205.509 245.312 204.745 245.464 204.773 245.581Z" fill="#0C2B34"/>
<path d="M202.061 246.71C202.032 246.833 202.58 247.046 203.011 247.58C203.457 248.1 203.567 248.678 203.693 248.672C203.811 248.692 203.897 247.951 203.349 247.298C202.807 246.641 202.064 246.59 202.061 246.71Z" fill="#0C2B34"/>
<path d="M200.528 249.963C200.642 249.99 200.817 249.358 200.49 248.666C200.169 247.972 199.572 247.701 199.519 247.806C199.448 247.91 199.833 248.281 200.092 248.852C200.364 249.418 200.402 249.95 200.528 249.963Z" fill="#0C2B34"/>
<path d="M203.876 242.63C203.929 242.745 204.509 242.569 205.223 242.616C205.938 242.648 206.494 242.886 206.56 242.778C206.633 242.686 206.089 242.219 205.247 242.177C204.405 242.127 203.814 242.531 203.876 242.63Z" fill="#0C2B34"/>
<path d="M235.092 233.786L236.175 245.849C236.175 245.849 223.004 250.678 222.846 253.106L247.69 253.326L247.687 251.509L246.684 245.301L245.222 233.244L235.092 233.786Z" fill="#335863"/>
<path d="M243.665 244.025C244.156 244.161 244.495 244.715 244.379 245.212C244.263 245.709 243.701 246.058 243.208 245.929C242.714 245.802 242.287 245.149 242.459 244.668C242.63 244.188 243.311 243.814 243.759 244.056" fill="#D7D9D9"/>
<path d="M247.69 253.326L247.687 251.509L223.855 251.82C223.855 251.82 222.721 252.308 222.846 253.106L247.69 253.326Z" fill="#0C2B34"/>
<path d="M235.764 245.718C235.767 245.843 236.388 245.901 236.997 246.302C237.617 246.688 237.93 247.227 238.044 247.178C238.159 247.155 237.977 246.412 237.23 245.939C236.488 245.459 235.737 245.605 235.764 245.718Z" fill="#0C2B34"/>
<path d="M233.093 246.812C233.064 246.932 233.601 247.145 234.021 247.671C234.456 248.186 234.56 248.754 234.684 248.749C234.8 248.769 234.889 248.042 234.354 247.398C233.826 246.748 233.096 246.693 233.093 246.812Z" fill="#0C2B34"/>
<path d="M231.567 249.998C231.679 250.025 231.855 249.405 231.538 248.724C231.226 248.041 230.642 247.77 230.589 247.874C230.518 247.975 230.894 248.341 231.145 248.904C231.409 249.462 231.443 249.985 231.567 249.998Z" fill="#0C2B34"/>
<path d="M234.9 242.814C234.952 242.927 235.522 242.758 236.223 242.809C236.926 242.844 237.471 243.082 237.536 242.976C237.609 242.886 237.077 242.424 236.25 242.377C235.424 242.323 234.84 242.716 234.9 242.814Z" fill="#0C2B34"/>
<path d="M203.468 126.71C203.468 126.71 197.474 144.071 197.267 156.985C197.06 169.9 196.853 190.436 199.541 213.09C202.228 235.743 203.468 244.847 203.468 244.847H217.11C217.11 244.847 218.557 230.662 218.35 217.959C218.143 205.257 217.15 201.234 218.371 187.261C219.591 173.287 221.521 164.895 223.553 160.66C223.553 160.66 229.184 153.966 229.598 144.784C230.011 135.603 226.761 127.712 226.761 127.712L203.468 126.71Z" fill="#0C2B34"/>
<path d="M215.59 151.067C215.818 151.764 219.866 180.226 222.819 192.78C225.773 205.334 229.058 208.656 229.634 218.868C230.296 230.614 233.521 244.847 233.521 244.847H248.048C248.048 244.847 246.005 223.136 243.962 206.165C241.919 189.193 238.969 168.27 239.423 161.993C239.877 155.716 241.012 147.964 239.423 139.17C237.834 130.375 234.399 128.057 234.399 128.057L222.075 127.5L215.59 151.067Z" fill="#0C2B34"/>
<path d="M229.264 134.787C229.273 134.782 229.35 134.934 229.489 135.229C229.646 135.517 229.793 135.974 229.981 136.565C230.318 137.759 230.54 139.556 230.461 141.767C230.391 143.978 230.022 146.601 229.267 149.427C228.882 150.837 228.381 152.299 227.681 153.736C226.985 155.178 226.019 156.533 225.057 157.901C223.082 160.621 222.107 163.719 221.368 166.516C220.65 169.332 220.265 171.929 219.99 174.111C219.721 176.296 219.561 178.072 219.441 179.298C219.381 179.889 219.334 180.36 219.299 180.709C219.263 181.032 219.24 181.201 219.229 181.2C219.219 181.2 219.221 181.029 219.237 180.705C219.258 180.354 219.287 179.882 219.323 179.288C219.407 178.058 219.535 176.279 219.776 174.086C220.025 171.896 220.389 169.285 221.097 166.448C221.452 165.03 221.896 163.558 222.471 162.072C222.765 161.33 223.096 160.586 223.485 159.858C223.877 159.131 224.327 158.423 224.806 157.729C225.776 156.349 226.724 155.022 227.414 153.604C228.106 152.191 228.608 150.749 228.996 149.352C229.761 146.554 230.149 143.95 230.246 141.759C230.352 139.566 230.165 137.785 229.867 136.595C229.698 136.006 229.571 135.546 229.432 135.253C229.313 134.953 229.254 134.791 229.264 134.787Z" fill="#335863"/>
<path d="M185.722 67.8306C185.677 67.7354 185.621 67.6355 185.524 67.5952C185.356 67.5263 185.182 67.6705 185.058 67.8031C184.588 68.3025 184.118 68.8018 183.648 69.3012L185.04 71.9493C186.068 70.8846 186.352 69.1698 185.722 67.8306Z" fill="#FAB499"/>
<path d="M188.137 72.1566C188.123 71.8926 188.091 71.6199 187.954 71.3932C187.818 71.1666 187.551 70.999 187.293 71.0551C187.042 71.11 186.878 71.3448 186.74 71.5615C186.322 72.2162 185.903 72.8715 185.485 73.5262L186.908 76.6199C187.784 75.3169 188.222 73.7248 188.137 72.1566Z" fill="#FAB499"/>
<path d="M188.801 76.0978C188.745 75.8776 188.611 75.6142 188.385 75.6334C188.215 75.648 188.109 75.8198 188.031 75.9716C187.752 76.5165 187.473 77.0609 187.194 77.6052L188.421 79.8199C188.977 78.6746 189.114 77.3313 188.801 76.0978Z" fill="#FAB499"/>
<path d="M171.492 68.1197L180.37 90.1991C180.532 90.5992 180.944 90.8381 181.371 90.7779L190.548 89.4854C191.137 89.4025 191.501 88.7986 191.299 88.239L183.376 66.2951C183.229 65.8862 182.82 65.6328 182.388 65.6818L172.256 66.8383C171.641 66.9083 171.261 67.545 171.492 68.1197Z" fill="#0C2B34"/>
<path d="M172.509 68.2265L180.893 89.0748C180.936 89.1822 181.047 89.2465 181.162 89.2301L190.52 87.9125C190.679 87.8897 190.776 87.7274 190.722 87.5767L183.248 66.875C183.208 66.7652 183.098 66.6969 182.982 66.7103L172.715 67.8819C172.549 67.9006 172.447 68.0723 172.509 68.2265Z" fill="#335863"/>
<path d="M178.215 76.4529L178.292 76.1556C178.442 76.231 178.654 76.2654 178.844 76.2333C179.062 76.1971 179.139 76.1101 179.122 76.0125C179.072 75.7152 178.184 76.0738 178.085 75.4845C178.04 75.2141 178.22 74.9536 178.671 74.8783C178.872 74.845 179.083 74.8584 179.246 74.9262L179.179 75.2252C179.018 75.1651 178.859 75.1499 178.719 75.1732C178.501 75.21 178.431 75.3052 178.447 75.4045C178.496 75.6971 179.385 75.3415 179.483 75.9243C179.527 76.1889 179.345 76.4529 178.892 76.5288C178.639 76.5709 178.373 76.5388 178.215 76.4529Z" fill="white"/>
<path d="M179.58 75.5698C179.501 75.0909 179.811 74.6879 180.306 74.605C180.58 74.5594 180.825 74.6201 181.005 74.7772L180.806 75.0342C180.679 74.9297 180.535 74.8882 180.376 74.9145C180.079 74.9641 179.903 75.2083 179.953 75.5079C180.003 75.8075 180.248 75.9798 180.546 75.9308C180.704 75.9039 180.828 75.818 180.914 75.6755L181.186 75.8542C181.067 76.0627 180.854 76.2006 180.578 76.2473C180.085 76.3291 179.661 76.0487 179.58 75.5698Z" fill="white"/>
<path d="M182.271 75.2993L181.918 74.734L181.768 75.3834L182.271 75.2993ZM182.433 75.5592L181.697 75.6825L181.613 76.0457L181.236 76.1088L181.679 74.4034L182.041 74.3427L183.016 75.811L182.631 75.8758L182.433 75.5592Z" fill="white"/>
<path d="M184.374 73.9531L184.64 75.5406L184.338 75.5902L183.385 74.7597L183.546 75.7228L183.183 75.7835L182.918 74.1961L183.222 74.1453L184.173 74.9775L184.011 74.0133L184.374 73.9531Z" fill="white"/>
<path d="M173.586 81.1288L174.568 70.9587C174.568 70.9587 176.065 70.9768 176.512 73.1226C176.959 75.269 176.976 79.0268 176.976 79.0268C176.976 79.0268 179.625 80.2568 180.402 86.6002L182.197 88.7793L178.024 92.9594C178.024 92.9594 173.748 84.7161 173.586 81.1288Z" fill="#FAB499"/>
<path d="M185.768 81.44L180.841 82.3015C180.325 82.392 179.818 82.1 179.638 81.6082C179.406 80.9751 179.803 80.2865 180.466 80.1692L185.389 79.2983C185.863 79.2148 186.336 79.4549 186.549 79.8871L186.553 79.8958C186.871 80.5435 186.479 81.3156 185.768 81.44Z" fill="#0063F4"/>
<path d="M181.506 73.07C181.523 73.1524 181.098 73.2797 180.557 73.3545C180.29 73.3912 180.048 73.4082 179.873 73.4053L179.863 73.188C179.935 73.1979 179.996 73.2102 180.043 73.223L180.043 73.3661C179.967 73.3451 179.925 73.3206 179.925 73.2949C179.925 73.2692 179.966 73.2447 180.043 73.223L180.044 73.3661C179.998 73.3807 179.938 73.3942 179.865 73.4058L179.856 73.1886C180.024 73.1378 180.258 73.0887 180.518 73.0531C181.046 72.9801 181.488 72.9877 181.506 73.07Z" fill="white"/>
<path d="M184.865 76.9043C184.88 76.9872 183.619 77.2927 182.047 77.5865C180.475 77.8808 179.188 78.0525 179.172 77.9702C179.157 77.8872 180.419 77.5818 181.991 77.288C183.563 76.9936 184.85 76.8219 184.865 76.9043Z" fill="white"/>
<path d="M236.21 56.6285C234.996 48.2088 232.847 38.965 220.818 39.8259C220.818 39.8259 214.39 41.0308 210.869 46.5022C208.798 49.7203 212.258 71.2794 214.984 79.636L237.664 81.4226L241.479 80.286C241.479 80.286 236.966 61.8633 236.21 56.6285Z" fill="#0C2B34"/>
<path d="M219.217 42.9611L219.97 42.2439L228.103 45.5216C229.279 45.5864 230.211 46.5413 230.247 47.7194L230.175 74.2189C230.185 76.0161 229.825 77.572 228.74 79.0047L227.598 80.5127C224.994 83.951 219.636 83.6683 217.574 79.8796C217.43 79.615 217.33 79.3825 217.286 79.1945C217.243 78.9579 217.178 78.8026 217.166 78.6017C216.923 76.4699 216.91 74.6208 216.91 74.6208C216.765 72.2805 216.717 71.3197 216.716 71.3419C216.716 71.3419 211.735 70.7689 210.388 64.3748C209.719 61.1946 209.845 56.8201 210.033 52.5138C210.294 46.5554 214.427 42.9553 219.217 42.9611Z" fill="#FAB499"/>
<path d="M219.749 57.3246C219.756 57.7621 220.131 58.1172 220.589 58.1189C221.044 58.1207 221.41 57.7685 221.403 57.3311C221.396 56.8936 221.021 56.5379 220.565 56.5368C220.108 56.5344 219.743 56.8878 219.749 57.3246Z" fill="#0C2B34"/>
<path d="M211.49 57.5565C211.496 57.994 211.872 58.3491 212.328 58.3509C212.785 58.3526 213.15 57.9998 213.143 57.563C213.137 57.1255 212.761 56.7698 212.306 56.7681C211.848 56.7663 211.483 57.1197 211.49 57.5565Z" fill="#0C2B34"/>
<path d="M210.884 54.2169C210.992 54.3197 211.595 53.825 212.484 53.783C213.373 53.7275 214.049 54.1527 214.14 54.0388C214.185 53.9885 214.07 53.7987 213.776 53.606C213.486 53.4144 212.998 53.238 212.444 53.2678C211.89 53.2988 211.434 53.526 211.177 53.7485C210.914 53.9716 210.831 54.1714 210.884 54.2169Z" fill="#0C2B34"/>
<path d="M219.911 54.3092C220.029 54.4003 220.579 53.846 221.459 53.7129C222.336 53.5669 223.052 53.9202 223.131 53.7975C223.171 53.7426 223.039 53.5663 222.725 53.4045C222.416 53.2433 221.914 53.1177 221.365 53.2047C220.818 53.2923 220.388 53.5651 220.154 53.8127C219.916 54.0621 219.854 54.2695 219.911 54.3092Z" fill="#0C2B34"/>
<path d="M216.804 60.7845C216.805 60.7337 216.248 60.6659 215.346 60.5959C215.117 60.5842 214.9 60.5497 214.854 60.3967C214.792 60.2349 214.875 59.9855 214.972 59.7157C215.158 59.1556 215.352 58.568 215.557 57.9524C216.366 55.4434 216.94 53.3846 216.839 53.353C216.738 53.3209 215.999 55.3295 215.19 57.8386C214.995 58.4571 214.81 59.0464 214.633 59.6106C214.56 59.8728 214.427 60.1736 214.56 60.5082C214.63 60.6747 214.803 60.7898 214.95 60.8213C215.098 60.8587 215.226 60.8546 215.339 60.8558C216.243 60.8593 216.802 60.8353 216.804 60.7845Z" fill="#0C2B34"/>
<path d="M216.716 71.3413C216.716 71.3413 221.067 71.4038 225.234 68.6062C225.234 68.6062 223.287 73.177 216.805 72.8972L216.716 71.3413Z" fill="#F69270"/>
<path d="M217.287 62.9093C217.586 62.4707 218.135 62.2102 218.694 62.2417C219.082 62.2645 219.482 62.4309 219.732 62.7335C219.982 63.036 220.054 63.4799 219.856 63.79C219.632 64.1399 219.134 64.2427 218.704 64.1434C218.274 64.0441 217.894 63.783 217.533 63.5219C217.433 63.4495 217.331 63.3742 217.266 63.2714C217.201 63.1692 217.181 63.0313 217.251 62.9402" fill="#F69270"/>
<path d="M219.452 61.2687C219.307 61.2675 219.353 62.233 218.561 62.9595C217.771 63.6884 216.736 63.6318 216.736 63.7673C216.725 63.8286 216.974 63.9431 217.409 63.9331C217.836 63.9267 218.451 63.7585 218.936 63.314C219.419 62.8684 219.608 62.2966 219.621 61.8989C219.637 61.4936 219.518 61.2594 219.452 61.2687Z" fill="#0C2B34"/>
<path d="M219.06 50.8416C219.183 51.0676 220.044 50.8194 221.096 50.7855C222.148 50.7306 223.027 50.9053 223.131 50.6693C223.177 50.5577 222.997 50.3545 222.625 50.1746C222.255 49.9941 221.689 49.8563 221.058 49.882C220.428 49.9094 219.875 50.0946 219.522 50.3054C219.167 50.5163 219.005 50.7335 219.06 50.8416Z" fill="#0C2B34"/>
<path d="M211.012 50.3955C211.178 50.5894 211.781 50.3494 212.517 50.3021C213.252 50.2296 213.885 50.3698 214.018 50.1514C214.076 50.0457 213.967 49.8482 213.685 49.6707C213.407 49.4931 212.949 49.36 212.444 49.4009C211.938 49.4423 211.509 49.6473 211.263 49.8669C211.013 50.0877 210.938 50.3003 211.012 50.3955Z" fill="#0C2B34"/>
<path d="M230.084 59.0283C230.084 59.0283 225.528 60.4464 222.95 49.2022C222.068 45.3574 218.504 42.2438 218.504 42.2438L219.95 41.8087C219.95 41.8087 228.934 44.34 229.085 44.4533C229.236 44.5666 231.352 49.1 231.352 49.1L230.084 59.0283Z" fill="#0C2B34"/>
<path d="M228.962 58.6102C228.939 58.1301 229.437 56.9701 229.907 56.8726C231.163 56.6121 233.45 56.5993 233.632 59.8127C233.882 64.2059 229.42 63.5501 229.404 63.4245C229.393 63.3264 229.041 60.2671 228.962 58.6102Z" fill="#FAB499"/>
<path d="M230.652 61.684C230.671 61.6688 230.731 61.733 230.864 61.785C230.994 61.8353 231.213 61.8633 231.437 61.7646C231.892 61.5678 232.241 60.8085 232.217 60.0154C232.206 59.6153 232.1 59.2391 231.94 58.9319C231.788 58.6183 231.568 58.4057 231.332 58.3777C231.096 58.3368 230.939 58.4863 230.892 58.6125C230.84 58.7392 230.873 58.8251 230.85 58.8338C230.838 58.8455 230.751 58.7655 230.776 58.5827C230.79 58.4939 230.835 58.3876 230.934 58.2971C231.034 58.2054 231.187 58.1528 231.35 58.161C231.691 58.1657 232.013 58.46 232.189 58.797C232.383 59.1346 232.511 59.5569 232.524 60.006C232.545 60.8932 232.14 61.7471 231.515 61.9667C231.21 62.0648 230.947 61.9865 230.808 61.8902C230.666 61.7897 230.637 61.6927 230.652 61.684Z" fill="#F69270"/>
<path d="M199.015 84.9415C200.563 87.4167 202.054 91.9122 202.054 91.9122L198.103 97.0635C198.103 97.0635 191.402 93.5691 189.5 92.439C188.986 92.1335 188.422 91.9069 187.864 91.866C186.739 91.7825 186.636 90.122 187.744 89.9089C188.057 89.8487 189.127 90.049 189.539 90.1886C190.799 90.6167 191.696 90.4999 191.696 90.4999C191.696 90.4999 191.374 90.1361 190.742 89.2366C190.054 88.2578 186.972 85.1173 185.988 83.5632C184.737 81.585 185.26 80.3912 185.942 80.654C186.79 80.9805 190.576 86.1639 191.203 85.9636C191.203 85.9636 191.757 84.9398 192.41 84.7838C193.062 84.6279 193.714 84.7675 193.714 84.7675C193.714 84.7675 193.788 83.8172 194.392 83.5515C194.996 83.2851 195.86 83.5935 195.86 83.5935C195.86 83.5935 195.925 82.7128 196.4 82.6018C196.876 82.4914 197.851 83.0807 199.015 84.9415Z" fill="#FAB499"/>
<path d="M182.767 88.2864C182.843 88.5153 193.642 99.5714 193.642 99.5714C193.642 99.5714 202.654 89.42 205.398 85.6862C208.141 81.9523 210.893 77.3722 214.475 76.5148C218.057 75.6574 222.549 77.7349 222.549 77.7349L218.098 91.0098L210.089 102.021C210.089 102.021 201.434 112.892 197.319 114.569C193.204 116.245 189.172 113.838 187.419 112.009C185.667 110.18 175.268 94.3745 175.268 94.3745L182.767 88.2864Z" fill="#0063F4"/>
<path d="M230.398 128.46L203.078 126.944C203.078 126.944 206.02 114.191 208.601 101.427C211.183 88.6619 218.083 76.5148 218.083 76.5148L242.933 80.821C242.933 80.821 243.829 87.6953 240.744 100.236C239.323 106.016 235.976 112.728 232.696 120.921L235.97 128.77L230.398 128.46Z" fill="#0063F4"/>
<path d="M217.506 92.9594C217.521 92.9734 217.376 93.1661 217.101 93.5031C216.785 93.8892 216.396 94.3652 215.936 94.9265C214.952 96.1279 213.618 97.8082 212.14 99.6637C210.662 101.52 209.298 103.182 208.27 104.35C207.757 104.935 207.333 105.401 207.029 105.713C206.727 106.026 206.552 106.193 206.537 106.179C206.521 106.165 206.666 105.971 206.941 105.635C207.257 105.249 207.646 104.773 208.106 104.212C209.09 103.01 210.425 101.33 211.903 99.4739C213.38 97.6184 214.744 95.9562 215.772 94.7881C216.285 94.2028 216.709 93.7368 217.013 93.4249C217.315 93.1112 217.49 92.9448 217.506 92.9594Z" fill="#0C2B34"/>
<path d="M231.456 120.642C231.448 120.685 230.669 120.573 229.413 120.395C228.156 120.218 226.419 119.985 224.494 119.782C222.569 119.58 220.821 119.447 219.555 119.359C218.289 119.271 217.504 119.219 217.506 119.175C217.506 119.153 217.703 119.139 218.059 119.132C218.414 119.124 218.929 119.127 219.566 119.144C220.838 119.177 222.594 119.277 224.526 119.479C226.458 119.683 228.197 119.951 229.448 120.183C230.073 120.299 230.577 120.403 230.924 120.485C231.27 120.566 231.46 120.621 231.456 120.642Z" fill="#0C2B34"/>
<path d="M242.727 79.1635C242.013 76.5096 240.109 75.0086 239.57 72.3143C239.106 69.9927 240.289 67.2442 239.844 64.9191C239.409 62.6489 238.357 60.8734 237.63 58.6797C237.004 56.792 236.149 54.9663 235.807 53.0074C235.609 51.8743 235.584 50.708 235.263 49.6035C234.942 48.4985 233.642 46.6389 230.95 42.8157L223.263 50.4702C224.432 56.2588 226.719 57.6926 226.659 61.2577C226.635 62.6226 226.341 64.0407 226.821 65.318C227.224 66.3891 228.145 67.2658 228.273 68.4029C228.448 69.9524 227.101 71.2584 226.821 72.7927C226.53 74.3871 227.418 75.9395 227.657 77.5422C228.026 80.0034 226.856 82.4032 226.413 84.8522C226.2 86.036 226.176 87.3338 226.809 88.3571C227.7 89.7967 229.554 90.2377 231.218 90.5525C232.535 90.8019 233.919 91.0478 235.194 90.6331C236.468 90.2184 237.557 88.9008 237.228 87.6013C237.551 88.4517 237.874 89.302 238.198 90.1524C239.562 90.7201 241.224 90.1016 242.155 88.9528C243.085 87.8039 242.621 86.4186 242.53 84.9433C242.439 83.468 243.11 80.5909 242.727 79.1635Z" fill="#0C2B34"/>
<path d="M236.501 86.1592C236.459 86.1283 237.097 85.7475 237.586 84.6132C237.825 84.052 237.996 83.3096 237.996 82.4417C238.004 81.5733 237.797 80.5932 237.418 79.5641C237.042 78.5321 236.492 77.4551 235.949 76.2689C235.415 75.0839 234.885 73.7552 234.778 72.2594C234.726 71.5165 234.819 70.7333 235.045 69.9939C235.253 69.2515 235.536 68.5191 235.608 67.7523C235.693 66.9895 235.466 66.211 234.981 65.5808C234.514 64.9354 233.858 64.4173 233.217 63.8724C232.575 63.3269 231.916 62.7756 231.447 62.0607C230.954 61.3575 230.763 60.4914 230.761 59.683C230.763 58.0535 231.259 56.5601 231.131 55.128C231.026 53.693 230.201 52.4986 229.275 51.6296C228.342 50.7435 227.326 50.0801 226.406 49.4703C224.544 48.2742 223.182 47.0155 222.588 45.9018C222.281 45.3563 222.143 44.8849 222.074 44.5655C222.041 44.4054 222.032 44.2799 222.02 44.1969C222.011 44.1134 222.009 44.0708 222.014 44.0702C222.06 44.055 222.062 44.781 222.691 45.8422C223.303 46.9133 224.655 48.1223 226.523 49.2898C227.451 49.8891 228.484 50.5467 229.448 51.4467C230.403 52.3257 231.29 53.5797 231.41 55.1035C231.547 56.6098 231.051 58.1219 231.058 59.6795C231.065 60.454 231.241 61.2401 231.699 61.8931C232.135 62.5589 232.773 63.0968 233.413 63.6394C234.052 64.1849 234.723 64.7105 235.226 65.4021C235.745 66.072 236.003 66.9586 235.904 67.7803C235.823 68.6044 235.529 69.3462 235.324 70.0733C235.101 70.7975 235.013 71.5247 235.058 72.2419C235.151 73.6781 235.659 74.9869 236.179 76.1655C236.709 77.3476 237.251 78.4387 237.62 79.4911C237.992 80.5401 238.191 81.5511 238.166 82.4429C238.149 83.3336 237.956 84.0917 237.695 84.6605C237.434 85.2318 237.12 85.6143 236.886 85.8421C236.653 86.0734 236.501 86.1592 236.501 86.1592Z" fill="#335863"/>
</g>
<defs>
<clipPath id="clip0_0_265">
<rect width="260.019" height="253.571" fill="white" transform="translate(-0.00964355)"/>
</clipPath>
</defs>
</svg>
